<svg width="58" height="70" viewBox="0 0 58 70" fill="none" xmlns="http://www.w3.org/2000/svg">
<rect width="105.75" height="20" transform="translate(-24 57.1816) rotate(-51.1402)" fill="#F56565"/>
<path d="M11.6812 23.5431L17.293 28.1692L16.6515 28.9474L10.1844 28.4071L10.1415 28.4592L14.2571 31.8519L13.5592 32.6986L7.94737 28.0726L8.59339 27.2889L15.0682 27.8309L15.1112 27.7789L10.99 24.3816L11.6812 23.5431ZM19.8372 25.2559C19.4954 25.6706 19.1124 25.9546 18.6882 26.1082C18.2637 26.2584 17.8228 26.2815 17.3655 26.1775C16.9078 26.0702 16.4606 25.8366 16.0241 25.4767C15.5929 25.1213 15.2792 24.7277 15.0829 24.2959C14.8881 23.8623 14.8182 23.4242 14.8731 22.9816C14.9296 22.5373 15.1189 22.1196 15.4412 21.7287C15.6369 21.4912 15.866 21.2934 16.1282 21.1353C16.3905 20.9772 16.6787 20.8788 16.9928 20.8402C17.307 20.8015 17.6405 20.8417 17.9933 20.9608C18.3443 21.0783 18.7108 21.2945 19.0926 21.6092L19.383 21.8486L16.625 25.1943L16.0112 24.6884L18.1074 22.1455C17.8918 21.9678 17.6648 21.8543 17.4263 21.805C17.1859 21.7541 16.9518 21.7682 16.724 21.8473C16.4977 21.9246 16.2972 22.0692 16.1225 22.2811C15.9328 22.5113 15.8238 22.7589 15.7955 23.024C15.7668 23.2858 15.8046 23.5378 15.9086 23.78C16.0123 24.0189 16.1692 24.225 16.3793 24.3981L16.8588 24.7934C17.1402 25.0253 17.4201 25.1733 17.6987 25.2373C17.9789 25.2994 18.2448 25.2839 18.4965 25.1907C18.7463 25.096 18.9699 24.929 19.1672 24.6897C19.2952 24.5345 19.39 24.3748 19.4515 24.2108C19.5113 24.0453 19.5348 23.879 19.5221 23.7121C19.5094 23.5451 19.4576 23.3828 19.3667 23.225L20.1457 22.5648C20.3228 22.8151 20.431 23.0915 20.4702 23.3938C20.5091 23.6927 20.4766 24.0019 20.3728 24.3214C20.2687 24.6375 20.0902 24.949 19.8372 25.2559ZM22.7362 21.5661L17.5063 19.3351L18.2043 18.4884L21.9751 20.2116L22.009 20.1705L19.6002 16.795L20.2982 15.9483L24.053 17.6629L24.0869 17.6218L21.6851 14.2659L22.3831 13.4192L25.5732 18.1245L24.8843 18.9603L21.1407 17.3102L21.0888 17.3732L23.4228 20.7331L22.7362 21.5661Z" fill="white"/>
</svg>
