<svg width="32" height="33" viewBox="0 0 32 33" fill="none" xmlns="http://www.w3.org/2000/svg">
<path d="M0 8.83594C0 4.41766 3.58172 0.835938 8 0.835938H32V24.8359C32 29.2542 28.4183 32.8359 24 32.8359H0V8.83594Z" fill="#3638DA"/>
<path d="M11.5 22.8359C12.3284 22.8359 13 23.5075 13 24.3359C13 25.1643 12.3284 25.8359 11.5 25.8359C10.6716 25.8359 10 25.1643 10 24.3359C10 23.5075 10.6716 22.8359 11.5 22.8359Z" stroke="white" stroke-width="1.5"/>
<path d="M20.5 22.8359C21.3284 22.8359 22 23.5074 22 24.3359C22 25.1643 21.3284 25.8359 20.5 25.8359C19.6716 25.8359 19 25.1643 19 24.3359C19 23.5074 19.6716 22.8359 20.5 22.8359Z" stroke="white" stroke-width="1.5"/>
<path d="M16.9999 17.8359V15.8359M16.9999 15.8359V13.8359M16.9999 15.8359H18.9999M16.9999 15.8359H14.9999" stroke="white" stroke-width="1.5" stroke-linecap="round"/>
<path d="M5.99994 7.83594L6.26115 7.92778C7.56274 8.38539 8.21354 8.6142 8.58578 9.15892C8.95802 9.70365 8.95802 10.4272 8.95802 11.8743V14.5959C8.95802 17.5375 9.02126 18.5082 9.88766 19.4221C10.7541 20.3359 12.1485 20.3359 14.9374 20.3359H15.9999M20.2403 20.3359C21.8013 20.3359 22.5818 20.3359 23.1335 19.8863C23.6852 19.4367 23.8428 18.6723 24.1579 17.1434L24.6577 14.7187C25.0048 12.9796 25.1783 12.1101 24.7344 11.533C24.2905 10.9559 22.7737 10.9559 21.0887 10.9559H15.0234M8.95802 10.9559H10.9999" stroke="white" stroke-width="1.5" stroke-linecap="round"/>
</svg>
