<svg width="24" height="24" viewBox="0 0 24 24" fill="none" xmlns="http://www.w3.org/2000/svg">
<path d="M2.75 16.5V6.25H3H3.25V16.5H2.75ZM20.75 16.5V6.25H21H21.25V16.5H20.75ZM20.6775 17.5H21.1937C21.1003 17.9099 20.893 18.289 20.591 18.591C20.289 18.893 19.9099 19.1003 19.5 19.1937V18.6775C20.0643 18.5094 20.5094 18.0643 20.6775 17.5ZM18.5 18.75V19.25H5.5V18.75H18.5ZM4.5 18.6775V19.1937C4.09009 19.1003 3.71104 18.893 3.40901 18.591C3.10698 18.289 2.89969 17.9099 2.80625 17.5H3.32254C3.4906 18.0643 3.93575 18.5094 4.5 18.6775ZM19.75 5V5.25H4.25V5V4.75H19.75V5Z" fill="#718096" stroke="#718096"/>
<path d="M3 5L12 14L21 5" stroke="#718096" stroke-width="1.5" stroke-linecap="round" stroke-linejoin="round"/>
</svg>
