<svg width="19" height="18" viewBox="0 0 19 18" fill="none" xmlns="http://www.w3.org/2000/svg">
<g clip-path="url(#clip0_951_1444)">
<path d="M8.015 17.91C3.74 17.145 0.5 13.455 0.5 9C0.5 4.05 4.55 0 9.5 0C14.45 0 18.5 4.05 18.5 9C18.5 13.455 15.26 17.145 10.985 17.91L10.49 17.505H8.51L8.015 17.91Z" fill="url(#paint0_linear_951_1444)"/>
<path d="M13.01 11.52L13.415 9.00001H11.03V7.24501C11.03 6.52501 11.3 5.98501 12.38 5.98501H13.55V3.69001C12.92 3.60001 12.2 3.51001 11.57 3.51001C9.5 3.51001 8.06 4.77001 8.06 7.02001V9.00001H5.81V11.52H8.06V17.865C8.555 17.955 9.05 18 9.545 18C10.04 18 10.535 17.955 11.03 17.865V11.52H13.01Z" fill="white"/>
</g>
<defs>
<linearGradient id="paint0_linear_951_1444" x1="9.50045" y1="17.374" x2="9.50045" y2="-0.0033155" gradientUnits="userSpaceOnUse">
<stop stop-color="#0062E0"/>
<stop offset="1" stop-color="#19AFFF"/>
</linearGradient>
<clipPath id="clip0_951_1444">
<rect width="18" height="18" fill="white" transform="translate(0.5)"/>
</clipPath>
</defs>
</svg>
