<svg width="324" height="216" viewBox="0 0 324 216" fill="none" xmlns="http://www.w3.org/2000/svg">
<g clip-path="url(#clip0_2_378)">
<path d="M130.542 51.5718H217.382C222.709 51.5718 227.033 55.8957 227.033 61.2223V118.208C227.033 123.542 222.709 127.859 217.382 127.859H130.542C125.215 127.865 120.891 123.542 120.891 118.208V61.2223C120.891 55.8957 125.215 51.5718 130.542 51.5718Z" stroke="#E1E4E5" stroke-width="4" stroke-linecap="round" stroke-linejoin="round"/>
<path d="M121.603 58.1857L165.589 89.6475C170.531 93.182 177.174 93.1892 182.123 89.6619L226.315 58.1432M203.062 141.866H120.794C112.936 141.866 106.571 135.501 106.571 127.643V75.2374" stroke="#E1E4E5" stroke-width="4" stroke-linecap="round" stroke-linejoin="round"/>
<path d="M192.528 153.793H110.26C102.402 153.793 96.0369 147.429 96.0369 139.57V87.1643" stroke="#E1E4E5" stroke-width="4" stroke-linecap="round" stroke-linejoin="round"/>
<path d="M232.328 159.34C238.072 152.51 248.161 141.365 242.573 151.423C235.588 163.997 248.394 155.614 252.818 151.423C257.242 147.232 267.72 144.205 260.269 155.149C252.818 166.092 274.239 159.573 278.198 151.423M203.127 192.653C208.871 185.823 218.961 174.678 213.373 184.737C206.387 197.31 219.194 188.928 223.618 184.737C228.042 180.545 238.519 177.519 231.069 188.462C223.618 199.406 245.039 192.886 248.997 184.737M57.96 183.313C63.7034 176.484 73.7931 165.338 68.2049 175.397C61.2198 187.97 74.0261 179.588 78.4501 175.397C82.8738 171.206 93.3516 168.179 85.9007 179.122C78.4501 190.066 99.8712 183.546 103.829 175.397M136.514 189.894C142.257 183.064 152.347 171.919 146.759 181.977C139.774 194.551 152.58 186.169 157.004 181.977C161.428 177.786 171.905 174.759 164.454 185.703C157.004 196.646 178.425 190.127 182.383 181.977M23.4 101.761C29.1434 94.9313 39.2332 83.786 33.6449 93.8448C26.6598 106.418 39.4661 98.0359 43.8901 93.8448C48.3138 89.6537 58.7916 86.6268 51.3407 97.5701C43.8901 108.514 65.3112 101.994 69.2694 93.8448M23.4 145.768C29.1434 138.938 39.2332 127.792 33.6449 137.851C26.6598 150.425 39.4661 142.042 43.8901 137.851C48.3138 133.66 58.7916 130.633 51.3407 141.577C43.8901 152.52 65.3112 146.001 69.2694 137.851M249.602 110.398C255.345 103.568 265.435 92.4228 259.847 102.482C252.861 115.055 265.668 106.673 270.092 102.482C274.516 98.2904 284.994 95.2636 277.543 106.207C270.092 117.15 291.513 110.631 295.471 102.482M50.1329 63.5126C55.8763 56.6827 65.966 45.5375 60.3778 55.5959C53.3927 68.1696 66.199 59.787 70.623 55.5959C75.047 51.4048 85.5248 48.3779 78.0739 59.3215C70.623 70.2652 92.0441 63.7456 96.0026 55.5959M249.602 63.9238C255.345 57.0938 265.435 45.9486 259.847 56.0074C252.861 68.5807 265.668 60.1985 270.092 56.0074C274.516 51.8162 284.994 48.7894 277.543 59.7326C270.092 70.6763 291.513 64.1567 295.471 56.0074" stroke="#E1E4E5" stroke-width="4"/>
<path fill-rule="evenodd" clip-rule="evenodd" d="M174.06 112.68C160.243 112.68 149.04 101.477 149.04 87.66C149.04 73.8429 160.243 62.64 174.06 62.64C187.877 62.64 199.08 73.8429 199.08 87.66C199.08 101.477 187.877 112.68 174.06 112.68Z" fill="#282C96"/>
<path d="M181.248 84.235L172.279 93.3689L166.895 87.8893" stroke="white" stroke-width="8" stroke-linecap="round" stroke-linejoin="round"/>
<path d="M251.177 45.4507C247.374 49.2224 240.364 48.3249 240.364 48.3249C240.364 48.3249 239.527 41.3125 243.334 37.5433C247.138 33.7716 254.144 34.6669 254.144 34.6669C254.144 34.6669 254.981 41.679 251.177 45.4507Z" fill="url(#paint0_linear_2_378)"/>
<path d="M283.645 138.768C286.062 137.114 286.301 133.257 286.301 133.257C286.301 133.257 282.621 132.087 280.206 133.744C277.789 135.399 277.55 139.253 277.55 139.253C277.55 139.253 281.229 140.423 283.645 138.768Z" fill="url(#paint1_linear_2_378)"/>
<path d="M59.5883 124.557C63.4586 128.497 70.6964 127.666 70.6964 127.666C70.6964 127.666 71.6544 120.448 67.7801 116.511C63.9097 112.572 56.6755 113.4 56.6755 113.4C56.6755 113.4 55.7175 120.618 59.5883 124.557Z" fill="url(#paint2_linear_2_378)"/>
<path d="M238.703 118.61C236.545 118.61 234.796 120.359 234.796 122.517C234.796 124.675 236.545 126.424 238.703 126.424C240.861 126.424 242.61 124.675 242.61 122.517C242.61 120.359 240.861 118.61 238.703 118.61Z" fill="#282C96"/>
<path d="M37.7946 109.151C35.5232 109.151 33.6819 110.992 33.6819 113.263C33.6819 115.535 35.5232 117.376 37.7946 117.376C40.0659 117.376 41.9072 115.535 41.9072 113.263C41.9072 110.992 40.0659 109.151 37.7946 109.151Z" fill="#282C96"/>
<path d="M85.3629 46.3568C83.1686 46.3568 81.3899 44.5781 81.3899 42.3838C81.3899 40.1896 83.1686 38.4109 85.3629 38.4109C87.5571 38.4109 89.3358 40.1896 89.3358 42.3838C89.3358 44.5781 87.5571 46.3568 85.3629 46.3568Z" fill="#282C96"/>
<path d="M194.76 42.3442C192.374 42.3442 190.44 40.4101 190.44 38.0242C190.44 35.6384 192.374 33.7042 194.76 33.7042C197.146 33.7042 199.08 35.6384 199.08 38.0242C199.08 40.4101 197.146 42.3442 194.76 42.3442Z" fill="#282C96"/>
<path d="M247.164 75.8733C245.461 75.8733 244.08 74.4923 244.08 72.7888C244.08 71.0853 245.461 69.7043 247.164 69.7043C248.868 69.7043 250.249 71.0853 250.249 72.7888C250.249 74.4923 248.868 75.8733 247.164 75.8733Z" fill="#E1E4E5"/>
<path d="M33.678 151.512C31.863 151.512 30.3916 150.04 30.3916 148.225C30.3916 146.41 31.863 144.939 33.678 144.939C35.4931 144.939 36.9644 146.41 36.9644 148.225C36.9644 150.04 35.4931 151.512 33.678 151.512Z" fill="white"/>
<path d="M82.7921 80.6983C81.3361 80.6983 80.1558 79.518 80.1558 78.0621C80.1558 76.6061 81.3361 75.4258 82.7921 75.4258C84.248 75.4258 85.4283 76.6061 85.4283 78.0621C85.4283 79.518 84.248 80.6983 82.7921 80.6983Z" fill="#E1E4E5"/>
<path d="M224.64 40.9043C223.248 40.9043 222.12 39.776 222.12 38.3843C222.12 36.9925 223.248 35.8643 224.64 35.8643C226.032 35.8643 227.16 36.9925 227.16 38.3843C227.16 39.776 226.032 40.9043 224.64 40.9043Z" fill="#E1E4E5"/>
<path d="M59.8024 105.34C60.1786 106.744 59.3454 108.188 57.9413 108.564C56.5372 108.94 55.094 108.107 54.7178 106.703C54.3416 105.299 55.1748 103.856 56.5789 103.479C57.983 103.103 59.4262 103.936 59.8024 105.34Z" fill="white"/>
<path d="M111.624 46.2359C109.691 46.2359 108.123 44.6684 108.123 42.7349C108.123 40.8013 109.691 39.2339 111.624 39.2339C113.558 39.2339 115.125 40.8013 115.125 42.7349C115.125 44.6684 113.558 46.2359 111.624 46.2359Z" fill="#E1E4E5"/>
<path d="M271.417 152.007C269.241 153.068 266.798 152.536 265.96 150.819C265.122 149.101 266.206 146.848 268.382 145.786C270.558 144.725 273.001 145.257 273.839 146.975C274.677 148.693 273.593 150.946 271.417 152.007Z" fill="white"/>
<path d="M158.771 26.8833C159.5 29.6023 157.886 32.3971 155.167 33.1256C152.448 33.8542 149.653 32.2406 148.925 29.5216C148.196 26.8026 149.81 24.0078 152.529 23.2792C155.248 22.5507 158.042 24.1642 158.771 26.8833Z" fill="#E1E4E5"/>
<path d="M218.633 141.641H218.703C219.12 147.552 223.516 147.644 223.516 147.644C223.516 147.644 218.669 147.738 218.669 154.569C218.669 147.738 213.821 147.644 213.821 147.644C213.821 147.644 218.215 147.552 218.633 141.641ZM130.512 29.7742H130.562C130.863 34.0999 134.033 34.1662 134.033 34.1662C134.033 34.1662 130.537 34.2357 130.537 39.2335C130.537 34.2357 127.041 34.1662 127.041 34.1662C127.041 34.1662 130.211 34.0999 130.512 29.7742ZM60.183 72.9583H60.2341C60.5347 77.2837 63.7049 77.3503 63.7049 77.3503C63.7049 77.3503 60.2093 77.4194 60.2093 82.4177C60.2093 77.4194 56.7133 77.3503 56.7133 77.3503C56.7133 77.3503 59.8824 77.2837 60.183 72.9583Z" fill="#E1E4E5"/>
<path d="M278.732 174.633C272.65 173.192 266.216 178.35 266.216 178.35C266.216 178.35 269.649 185.842 275.734 187.279C281.816 188.72 288.248 183.566 288.248 183.566C288.248 183.566 284.815 176.074 278.732 174.633Z" fill="url(#paint3_linear_2_378)"/>
<path d="M268.428 82.3615C270.845 84.0165 271.084 87.8728 271.084 87.8728C271.084 87.8728 267.404 89.0431 264.988 87.3864C262.572 85.7315 262.332 81.8773 262.332 81.8773C262.332 81.8773 266.012 80.7066 268.428 82.3615Z" fill="url(#paint4_linear_2_378)"/>
<path d="M76.334 159.513C78.3158 157.496 82.022 157.921 82.022 157.921C82.022 157.921 82.5123 161.617 80.5287 163.633C78.5466 165.65 74.8425 165.226 74.8425 165.226C74.8425 165.226 74.3522 161.53 76.334 159.513Z" fill="url(#paint5_linear_2_378)"/>
<path d="M295.87 89.8203C293.258 89.8203 291.141 87.7028 291.141 85.0906C291.141 82.4785 293.258 80.361 295.87 80.361C298.482 80.361 300.6 82.4785 300.6 85.0906C300.6 87.7028 298.482 89.8203 295.87 89.8203Z" fill="#282C96"/>
<path d="M112.043 192.759C109.658 192.759 107.725 190.825 107.725 188.441C107.725 186.056 109.658 184.122 112.043 184.122C114.428 184.122 116.361 186.056 116.361 188.441C116.361 190.825 114.428 192.759 112.043 192.759Z" fill="#282C96"/>
<path d="M82.8 137.744C80.613 137.744 78.84 139.517 78.84 141.704C78.84 143.891 80.613 145.664 82.8 145.664C84.9871 145.664 86.76 143.891 86.76 141.704C86.76 139.517 84.9871 137.744 82.8 137.744Z" fill="#282C96"/>
<path d="M202.987 162.224C200.829 162.224 199.08 163.974 199.08 166.131C199.08 168.289 200.829 170.038 202.987 170.038C205.145 170.038 206.894 168.289 206.894 166.131C206.894 163.974 205.145 162.224 202.987 162.224Z" fill="#282C96"/>
<path d="M253.098 130.487C251.394 130.487 250.013 131.868 250.013 133.572C250.013 135.275 251.394 136.656 253.098 136.656C254.801 136.656 256.182 135.275 256.182 133.572C256.182 131.868 254.801 130.487 253.098 130.487Z" fill="#E1E4E5"/>
<path d="M36.9684 70.0294C35.1533 70.0294 33.6819 71.5008 33.6819 73.3159C33.6819 75.1309 35.1533 76.6023 36.9684 76.6023C38.7834 76.6023 40.2548 75.1309 40.2548 73.3159C40.2548 71.5008 38.7834 70.0294 36.9684 70.0294Z" fill="white"/>
<path d="M80.7559 106.784C79.3 106.784 78.1196 107.965 78.1196 109.421C78.1196 110.877 79.3 112.057 80.7559 112.057C82.2119 112.057 83.3922 110.877 83.3922 109.421C83.3922 107.965 82.2119 106.784 80.7559 106.784Z" fill="#E1E4E5"/>
<path d="M245.811 168.374C243.589 168.374 241.788 170.175 241.788 172.398C241.788 174.62 243.589 176.421 245.811 176.421C248.033 176.421 249.835 174.62 249.835 172.398C249.835 170.175 248.033 168.374 245.811 168.374Z" fill="#E1E4E5"/>
<path d="M119.451 169.256C117.518 169.256 115.95 170.823 115.95 172.757C115.95 174.69 117.518 176.258 119.451 176.258C121.385 176.258 122.952 174.69 122.952 172.757C122.952 170.823 121.385 169.256 119.451 169.256Z" fill="#E1E4E5"/>
<path d="M274.71 69.5334C272.534 68.4719 270.091 69.004 269.253 70.7217C268.415 72.4395 269.5 74.6925 271.675 75.7539C273.851 76.8154 276.294 76.2834 277.132 74.5656C277.97 72.8479 276.886 70.5949 274.71 69.5334Z" fill="white"/>
<path d="M184.367 171.005C184.887 169.067 183.736 167.075 181.798 166.555C179.86 166.036 177.867 167.186 177.348 169.125C176.829 171.063 177.979 173.055 179.917 173.575C181.855 174.094 183.848 172.944 184.367 171.005Z" fill="#E1E4E5"/>
<path d="M267.985 127.836H268.056C268.473 121.924 272.87 121.833 272.87 121.833C272.87 121.833 268.022 121.739 268.022 114.908C268.022 121.739 263.174 121.833 263.174 121.833C263.174 121.833 267.568 121.924 267.985 127.836ZM131.347 192.298H131.397C131.698 187.972 134.869 187.906 134.869 187.906C134.869 187.906 131.373 187.837 131.373 182.839C131.373 187.837 127.877 187.906 127.877 187.906C127.877 187.906 131.046 187.972 131.347 192.298Z" fill="#E1E4E5"/>
</g>
<defs>
<linearGradient id="paint0_linear_2_378" x1="236.029" y1="58.3056" x2="263.724" y2="16.1182" gradientUnits="userSpaceOnUse">
<stop stop-color="white"/>
<stop offset="1" stop-color="#EEEEEE"/>
</linearGradient>
<linearGradient id="paint1_linear_2_378" x1="292.106" y1="131.956" x2="266.604" y2="142.49" gradientUnits="userSpaceOnUse">
<stop stop-color="white"/>
<stop offset="1" stop-color="#EEEEEE"/>
</linearGradient>
<linearGradient id="paint2_linear_2_378" x1="75.0308" y1="138.013" x2="47.0491" y2="94.1494" gradientUnits="userSpaceOnUse">
<stop stop-color="white"/>
<stop offset="1" stop-color="#EEEEEE"/>
</linearGradient>
<linearGradient id="paint3_linear_2_378" x1="255.827" y1="171.05" x2="309.073" y2="196.206" gradientUnits="userSpaceOnUse">
<stop stop-color="white"/>
<stop offset="1" stop-color="#EEEEEE"/>
</linearGradient>
<linearGradient id="paint4_linear_2_378" x1="276.889" y1="89.1745" x2="251.387" y2="78.6399" gradientUnits="userSpaceOnUse">
<stop stop-color="white"/>
<stop offset="1" stop-color="#EEEEEE"/>
</linearGradient>
<linearGradient id="paint5_linear_2_378" x1="84.2414" y1="152.623" x2="69.9134" y2="175.083" gradientUnits="userSpaceOnUse">
<stop stop-color="white"/>
<stop offset="1" stop-color="#EEEEEE"/>
</linearGradient>
<clipPath id="clip0_2_378">
<rect width="324" height="216" fill="white"/>
</clipPath>
</defs>
</svg>
