<svg width="45" height="19" viewBox="0 0 45 19" fill="none" xmlns="http://www.w3.org/2000/svg">
<path fill-rule="evenodd" clip-rule="evenodd" d="M0 -0.00012207L0 18.6172L45 18.6172V17.9534L38.5714 9.30757L45 0.661779V-0.00012207L0 -0.00012207Z" fill="#EECE5D"/>
<rect width="35.4255" height="12" transform="translate(1.91492 3)" fill="#EECE5D"/>
<path d="M12.6799 8.43494L11.9199 7.67494C11.7899 7.54494 11.6849 7.28994 11.6849 7.10994V6.02994C11.6849 5.58994 11.3249 5.22994 10.8849 5.22994H9.80986C9.62986 5.22994 9.37486 5.12494 9.24486 4.99494L8.48486 4.23494C8.17486 3.92494 7.66486 3.92494 7.35486 4.23494L6.58486 4.99494C6.45986 5.12494 6.20486 5.22994 6.01986 5.22994H4.94486C4.50486 5.22994 4.14486 5.58994 4.14486 6.02994V7.10494C4.14486 7.28494 4.03986 7.53994 3.90986 7.66994L3.14986 8.42994C2.83986 8.73994 2.83986 9.24994 3.14986 9.55994L3.90986 10.3199C4.03986 10.4499 4.14486 10.7049 4.14486 10.8849V11.9599C4.14486 12.3999 4.50486 12.7599 4.94486 12.7599H6.01986C6.19986 12.7599 6.45486 12.8649 6.58486 12.9949L7.34486 13.7549C7.65486 14.0649 8.16486 14.0649 8.47486 13.7549L9.23486 12.9949C9.36486 12.8649 9.61986 12.7599 9.79986 12.7599H10.8749C11.3149 12.7599 11.6749 12.3999 11.6749 11.9599V10.8849C11.6749 10.7049 11.7799 10.4499 11.9099 10.3199L12.6699 9.55994C12.9949 9.25494 12.9949 8.74494 12.6799 8.43494ZM5.91486 7.49994C5.91486 7.22494 6.13986 6.99994 6.41486 6.99994C6.68986 6.99994 6.91486 7.22494 6.91486 7.49994C6.91486 7.77494 6.69486 7.99994 6.41486 7.99994C6.13986 7.99994 5.91486 7.77494 5.91486 7.49994ZM6.67986 10.7649C6.60486 10.8399 6.50986 10.8749 6.41486 10.8749C6.31986 10.8749 6.22486 10.8399 6.14986 10.7649C6.00486 10.6199 6.00486 10.3799 6.14986 10.2349L9.14986 7.23494C9.29486 7.08994 9.53486 7.08994 9.67986 7.23494C9.82486 7.37994 9.82486 7.61994 9.67986 7.76494L6.67986 10.7649ZM9.41486 10.9999C9.13486 10.9999 8.90986 10.7749 8.90986 10.4999C8.90986 10.2249 9.13486 9.99994 9.40986 9.99994C9.68486 9.99994 9.90986 10.2249 9.90986 10.4999C9.90986 10.7749 9.68986 10.9999 9.41486 10.9999Z" fill="black"/>
</svg>
