<svg width="20" height="21" viewBox="0 0 20 21" fill="none" xmlns="http://www.w3.org/2000/svg">
<path d="M2.0049 20.249C1.5479 20.249 1.10408 20.069 0.768085 19.733C0.294085 19.26 0.131083 18.573 0.341083 17.941L1.1819 15.44C1.2799 15.133 1.27102 14.825 1.15602 14.582C0.564024 13.309 0.253925 11.899 0.253925 10.499C0.253925 5.12402 4.62697 0.75 10.002 0.75C15.378 0.75 19.751 5.12302 19.751 10.499C19.751 15.875 15.378 20.248 10.002 20.248C8.60297 20.248 7.19302 19.937 5.92702 19.348C5.67902 19.229 5.36902 19.221 5.05202 19.322L2.56301 20.158C2.37801 20.219 2.1899 20.249 2.0049 20.249ZM10.001 2.25C5.453 2.25 1.75295 5.95002 1.75295 10.499C1.75295 11.682 2.01596 12.873 2.51296 13.943C2.78896 14.524 2.82493 15.223 2.60793 15.906L1.76393 18.417C1.72193 18.542 1.7859 18.631 1.8279 18.673C1.8699 18.715 1.95998 18.779 2.08498 18.737L4.58303 17.898C5.27603 17.677 5.97696 17.711 6.56496 17.992C7.62696 18.486 8.818 18.749 10.001 18.749C14.55 18.749 18.25 15.049 18.25 10.5C18.25 5.951 14.55 2.25 10.001 2.25ZM14.75 8.5C14.75 8.086 14.414 7.75 14 7.75H6.00002C5.58602 7.75 5.25002 8.086 5.25002 8.5C5.25002 8.914 5.58602 9.25 6.00002 9.25H14C14.414 9.25 14.75 8.914 14.75 8.5ZM11.75 12.5C11.75 12.086 11.414 11.75 11 11.75H6.00002C5.58602 11.75 5.25002 12.086 5.25002 12.5C5.25002 12.914 5.58602 13.25 6.00002 13.25H11C11.414 13.25 11.75 12.914 11.75 12.5Z" fill="#444D5A"/>
</svg>
