<svg width="21" height="24" viewBox="0 0 21 24" fill="none" xmlns="http://www.w3.org/2000/svg">
<path d="M6.66831 14.5338C6.88985 14.4526 7.94954 13.8757 7.35692 12.3212C5.83662 10.7686 4.68831 8.25415 4.68831 5.77846C4.68831 1.98646 7.19539 0 10.1271 0C13.0569 0 15.5778 1.98738 15.5778 5.77846C15.5778 7.99477 14.6447 10.2424 13.3585 11.8046L6.66831 14.5338ZM6.66831 14.5338C3.6 15.6434 0 17.6658 0 19.6625V20.4111C0 23.1314 5.27446 23.7498 10.1557 23.7498C15.0443 23.7498 20.2523 23.1314 20.2523 20.4111V19.6625C20.2523 17.6058 16.6348 15.5991 13.4151 14.5329M6.66831 14.5338L12.7872 12.8046C12.5224 14.1485 13.2833 14.4898 13.4151 14.5329M13.4151 14.5329L13.2579 15.0076C14.8387 15.531 16.5021 16.2812 17.7592 17.1392C18.388 17.5685 18.8969 18.0124 19.2441 18.4528C19.5921 18.8942 19.7523 19.2988 19.7523 19.6625V20.4111C19.7523 20.9038 19.5268 21.3178 19.0546 21.6862C18.5675 22.0662 17.839 22.3768 16.9121 22.6165C15.0624 23.0948 12.59 23.2498 10.1557 23.2498C7.72528 23.2498 5.2376 23.0948 3.3716 22.6163C2.43637 22.3764 1.69936 22.0654 1.20591 21.6846C0.727182 21.3151 0.5 20.9012 0.5 20.4111V19.6625C0.5 19.3164 0.656813 18.9225 1.00273 18.4848C1.34704 18.0492 1.85054 17.6067 2.46928 17.1758C3.7059 16.3146 5.33013 15.5494 6.83834 15.0041L6.84044 15.0033C7.0246 14.9358 7.44884 14.7126 7.74159 14.2455C8.05374 13.7475 8.16898 13.0477 7.82412 12.1431L7.78703 12.0458L7.71417 11.9714C6.27955 10.5063 5.18831 8.11528 5.18831 5.77846C5.18831 3.99745 5.77399 2.68849 6.65777 1.82483C7.54537 0.957443 8.77371 0.5 10.1271 0.5C11.4795 0.5 12.7112 0.957697 13.6023 1.82572C14.4893 2.68984 15.0778 3.99877 15.0778 5.77846C15.0778 8.10341 13.9814 10.4855 12.5533 11.9563L11.7296 12.8046H12.279C12.1707 13.4401 12.2563 13.9289 12.4549 14.2983C12.7112 14.7753 13.1051 14.9576 13.2597 15.0082L13.4151 14.5329Z" stroke="#7F8DA1"/>
</svg>
