<svg width="308" height="229" viewBox="0 0 308 229" fill="none" xmlns="http://www.w3.org/2000/svg">
<path d="M307.109 201.194H0V201.348H307.109V201.194Z" fill="#EBEBEB"/>
<path d="M276.337 211.077H255.994V211.23H276.337V211.077Z" fill="#EBEBEB"/>
<path d="M203.441 212.748H198.104V212.901H203.441V212.748Z" fill="#EBEBEB"/>
<path d="M255.38 205.377H226.1V205.53H255.38V205.377Z" fill="#EBEBEB"/>
<path d="M46.7666 206.409H32.2219V206.562H46.7666V206.409Z" fill="#EBEBEB"/>
<path d="M68.1107 206.409H52.2332V206.562H68.1107V206.409Z" fill="#EBEBEB"/>
<path d="M120.454 209.001H80.7512V209.155H120.454V209.001Z" fill="#EBEBEB"/>
<path d="M145.57 173.8H26.9704C26.0413 173.798 25.1508 173.428 24.4944 172.77C23.838 172.113 23.4694 171.222 23.4694 170.292V3.57511C23.4774 2.65134 23.8497 1.76807 24.5052 1.11714C25.1607 0.466217 26.0466 0.100215 26.9704 0.0986328H145.57C146.5 0.0986328 147.392 0.468139 148.05 1.12586C148.708 1.78359 149.077 2.67566 149.077 3.60582V170.292C149.077 171.223 148.708 172.115 148.05 172.772C147.392 173.43 146.5 173.8 145.57 173.8ZM26.9704 0.221477C26.082 0.223104 25.2306 0.577149 24.603 1.2059C23.9754 1.83465 23.6229 2.68673 23.6229 3.57511V170.292C23.6229 171.181 23.9754 172.033 24.603 172.662C25.2306 173.29 26.082 173.644 26.9704 173.646H145.57C146.459 173.644 147.311 173.291 147.939 172.662C148.568 172.033 148.922 171.181 148.924 170.292V3.57511C148.922 2.68617 148.568 1.8341 147.939 1.20553C147.311 0.57695 146.459 0.223101 145.57 0.221477H26.9704Z" fill="#EBEBEB"/>
<path d="M278.432 173.8H159.826C158.896 173.798 158.005 173.428 157.348 172.771C156.69 172.113 156.32 171.222 156.319 170.292V3.57511C156.328 2.65078 156.702 1.76751 157.359 1.11676C158.015 0.466002 158.902 0.100198 159.826 0.0986328H278.432C279.354 0.10183 280.239 0.468545 280.893 1.1193C281.547 1.77005 281.918 2.6524 281.926 3.57511V170.292C281.926 171.221 281.559 172.111 280.904 172.768C280.248 173.425 279.36 173.796 278.432 173.8ZM159.826 0.221477C158.937 0.223101 158.085 0.57695 157.456 1.20553C156.828 1.8341 156.474 2.68617 156.472 3.57511V170.292C156.474 171.181 156.828 172.033 157.456 172.662C158.085 173.291 158.937 173.644 159.826 173.646H278.432C279.32 173.644 280.173 173.291 280.801 172.662C281.43 172.033 281.784 171.181 281.785 170.292V3.57511C281.784 2.68617 281.43 1.8341 280.801 1.20553C280.173 0.57695 279.32 0.223101 278.432 0.221477H159.826Z" fill="#EBEBEB"/>
<path d="M267.928 24.7351H39.181V28.2914H267.928V24.7351Z" fill="#F0F0F0"/>
<path d="M267.928 66.5388H39.181V70.0951H267.928V66.5388Z" fill="#F0F0F0"/>
<path d="M267.928 108.336H39.181V111.893H267.928V108.336Z" fill="#F0F0F0"/>
<path d="M267.928 150.134H39.181V153.69H267.928V150.134Z" fill="#F0F0F0"/>
<path d="M71.409 14.2134H63.2767C62.4863 14.2134 61.8456 14.8541 61.8456 15.6445V23.31C61.8456 24.1003 62.4863 24.7411 63.2767 24.7411H71.409C72.1994 24.7411 72.8401 24.1003 72.8401 23.31V15.6445C72.8401 14.8541 72.1994 14.2134 71.409 14.2134Z" fill="#EBEBEB"/>
<path d="M68.0615 16.4492H61.8456V22.4378H68.0615V16.4492Z" fill="#FAFAFA"/>
<path d="M69.8429 11.7566H64.8493C64.6016 11.7566 64.4009 11.9573 64.4009 12.205V13.7651C64.4009 14.0127 64.6016 14.2135 64.8493 14.2135H69.8429C70.0905 14.2135 70.2912 14.0127 70.2912 13.7651V12.205C70.2912 11.9573 70.0905 11.7566 69.8429 11.7566Z" fill="#F5F5F5"/>
<path d="M90.8122 14.2134H82.6799C81.8895 14.2134 81.2488 14.8541 81.2488 15.6445V23.31C81.2488 24.1003 81.8895 24.7411 82.6799 24.7411H90.8122C91.6026 24.7411 92.2433 24.1003 92.2433 23.31V15.6445C92.2433 14.8541 91.6026 14.2134 90.8122 14.2134Z" fill="#EBEBEB"/>
<path d="M87.4647 16.4492H81.2488V22.4378H87.4647V16.4492Z" fill="#FAFAFA"/>
<path d="M89.2397 11.7566H84.2461C83.9985 11.7566 83.7977 11.9573 83.7977 12.205V13.7651C83.7977 14.0127 83.9985 14.2135 84.2461 14.2135H89.2397C89.4873 14.2135 89.6881 14.0127 89.6881 13.7651V12.205C89.6881 11.9573 89.4873 11.7566 89.2397 11.7566Z" fill="#F5F5F5"/>
<path d="M110.209 14.2134H102.077C101.287 14.2134 100.646 14.8541 100.646 15.6445V23.31C100.646 24.1003 101.287 24.7411 102.077 24.7411H110.209C111 24.7411 111.64 24.1003 111.64 23.31V15.6445C111.64 14.8541 111 14.2134 110.209 14.2134Z" fill="#EBEBEB"/>
<path d="M106.862 16.4492H100.646V22.4378H106.862V16.4492Z" fill="#FAFAFA"/>
<path d="M108.637 11.7566H103.643C103.396 11.7566 103.195 11.9573 103.195 12.205V13.7651C103.195 14.0127 103.396 14.2135 103.643 14.2135H108.637C108.884 14.2135 109.085 14.0127 109.085 13.7651V12.205C109.085 11.9573 108.884 11.7566 108.637 11.7566Z" fill="#F5F5F5"/>
<path d="M129.606 14.2134H121.474C120.684 14.2134 120.043 14.8541 120.043 15.6445V23.31C120.043 24.1003 120.684 24.7411 121.474 24.7411H129.606C130.397 24.7411 131.037 24.1003 131.037 23.31V15.6445C131.037 14.8541 130.397 14.2134 129.606 14.2134Z" fill="#EBEBEB"/>
<path d="M126.259 16.4492H120.043V22.4378H126.259V16.4492Z" fill="#FAFAFA"/>
<path d="M128.034 11.7566H123.04C122.792 11.7566 122.592 11.9573 122.592 12.205V13.7651C122.592 14.0127 122.792 14.2135 123.04 14.2135H128.034C128.281 14.2135 128.482 14.0127 128.482 13.7651V12.205C128.482 11.9573 128.281 11.7566 128.034 11.7566Z" fill="#F5F5F5"/>
<path d="M149.003 14.2134H140.871C140.08 14.2134 139.44 14.8541 139.44 15.6445V23.31C139.44 24.1003 140.08 24.7411 140.871 24.7411H149.003C149.793 24.7411 150.434 24.1003 150.434 23.31V15.6445C150.434 14.8541 149.793 14.2134 149.003 14.2134Z" fill="#EBEBEB"/>
<path d="M145.656 16.4492H139.44V22.4378H145.656V16.4492Z" fill="#FAFAFA"/>
<path d="M147.431 11.7566H142.437C142.19 11.7566 141.989 11.9573 141.989 12.205V13.7651C141.989 14.0127 142.19 14.2135 142.437 14.2135H147.431C147.678 14.2135 147.879 14.0127 147.879 13.7651V12.205C147.879 11.9573 147.678 11.7566 147.431 11.7566Z" fill="#F5F5F5"/>
<path d="M149.003 97.8083H140.871C140.08 97.8083 139.44 98.4491 139.44 99.2395V106.905C139.44 107.695 140.08 108.336 140.871 108.336H149.003C149.793 108.336 150.434 107.695 150.434 106.905V99.2395C150.434 98.4491 149.793 97.8083 149.003 97.8083Z" fill="#EBEBEB"/>
<path d="M145.656 100.05H139.44V106.039H145.656V100.05Z" fill="#FAFAFA"/>
<path d="M147.431 95.3516H142.437C142.19 95.3516 141.989 95.5523 141.989 95.7999V97.3601C141.989 97.6077 142.19 97.8084 142.437 97.8084H147.431C147.678 97.8084 147.879 97.6077 147.879 97.3601V95.7999C147.879 95.5523 147.678 95.3516 147.431 95.3516Z" fill="#F5F5F5"/>
<path d="M168.4 97.8083H160.268C159.478 97.8083 158.837 98.4491 158.837 99.2395V106.905C158.837 107.695 159.478 108.336 160.268 108.336H168.4C169.191 108.336 169.831 107.695 169.831 106.905V99.2395C169.831 98.4491 169.191 97.8083 168.4 97.8083Z" fill="#EBEBEB"/>
<path d="M165.053 100.05H158.837V106.039H165.053V100.05Z" fill="#FAFAFA"/>
<path d="M166.828 95.3516H161.834C161.587 95.3516 161.386 95.5523 161.386 95.7999V97.3601C161.386 97.6077 161.587 97.8084 161.834 97.8084H166.828C167.075 97.8084 167.276 97.6077 167.276 97.3601V95.7999C167.276 95.5523 167.075 95.3516 166.828 95.3516Z" fill="#F5F5F5"/>
<path d="M187.797 97.8083H179.665C178.875 97.8083 178.234 98.4491 178.234 99.2395V106.905C178.234 107.695 178.875 108.336 179.665 108.336H187.797C188.588 108.336 189.228 107.695 189.228 106.905V99.2395C189.228 98.4491 188.588 97.8083 187.797 97.8083Z" fill="#EBEBEB"/>
<path d="M184.45 100.05H178.234V106.039H184.45V100.05Z" fill="#FAFAFA"/>
<path d="M186.225 95.3516H181.231C180.984 95.3516 180.783 95.5523 180.783 95.7999V97.3601C180.783 97.6077 180.984 97.8084 181.231 97.8084H186.225C186.473 97.8084 186.673 97.6077 186.673 97.3601V95.7999C186.673 95.5523 186.473 95.3516 186.225 95.3516Z" fill="#F5F5F5"/>
<path d="M207.194 97.8083H199.062C198.271 97.8083 197.631 98.4491 197.631 99.2395V106.905C197.631 107.695 198.271 108.336 199.062 108.336H207.194C207.984 108.336 208.625 107.695 208.625 106.905V99.2395C208.625 98.4491 207.984 97.8083 207.194 97.8083Z" fill="#EBEBEB"/>
<path d="M203.847 100.05H197.631V106.039H203.847V100.05Z" fill="#FAFAFA"/>
<path d="M205.622 95.3516H200.628C200.381 95.3516 200.18 95.5523 200.18 95.7999V97.3601C200.18 97.6077 200.381 97.8084 200.628 97.8084H205.622C205.87 97.8084 206.07 97.6077 206.07 97.3601V95.7999C206.07 95.5523 205.87 95.3516 205.622 95.3516Z" fill="#F5F5F5"/>
<path d="M226.591 97.8083H218.459C217.669 97.8083 217.028 98.4491 217.028 99.2395V106.905C217.028 107.695 217.669 108.336 218.459 108.336H226.591C227.382 108.336 228.022 107.695 228.022 106.905V99.2395C228.022 98.4491 227.382 97.8083 226.591 97.8083Z" fill="#EBEBEB"/>
<path d="M223.244 100.05H217.028V106.039H223.244V100.05Z" fill="#FAFAFA"/>
<path d="M225.019 95.3516H220.025C219.778 95.3516 219.577 95.5523 219.577 95.7999V97.3601C219.577 97.6077 219.778 97.8084 220.025 97.8084H225.019C225.267 97.8084 225.467 97.6077 225.467 97.3601V95.7999C225.467 95.5523 225.267 95.3516 225.019 95.3516Z" fill="#F5F5F5"/>
<path d="M91.4448 150.14H99.577C100.367 150.14 101.008 149.499 101.008 148.709V141.044C101.008 140.253 100.367 139.612 99.577 139.612H91.4448C90.6544 139.612 90.0137 140.253 90.0137 141.044V148.709C90.0137 149.499 90.6544 150.14 91.4448 150.14Z" fill="#EBEBEB"/>
<path d="M94.7862 147.837H101.002V141.848H94.7862V147.837Z" fill="#FAFAFA"/>
<path d="M93.011 139.606H98.0046C98.2523 139.606 98.453 139.406 98.453 139.158V137.598C98.453 137.35 98.2523 137.15 98.0046 137.15H93.011C92.7634 137.15 92.5626 137.35 92.5626 137.598V139.158C92.5626 139.406 92.7634 139.606 93.011 139.606Z" fill="#F5F5F5"/>
<path d="M72.0416 150.14H80.1739C80.9642 150.14 81.605 149.499 81.605 148.709V141.044C81.605 140.253 80.9642 139.612 80.1739 139.612H72.0416C71.2512 139.612 70.6105 140.253 70.6105 141.044V148.709C70.6105 149.499 71.2512 150.14 72.0416 150.14Z" fill="#EBEBEB"/>
<path d="M75.3891 147.837H81.605V141.848H75.3891V147.837Z" fill="#FAFAFA"/>
<path d="M73.6079 139.606H78.6015C78.8492 139.606 79.0499 139.406 79.0499 139.158V137.598C79.0499 137.35 78.8492 137.15 78.6015 137.15H73.6079C73.3603 137.15 73.1596 137.35 73.1596 137.598V139.158C73.1596 139.406 73.3603 139.606 73.6079 139.606Z" fill="#F5F5F5"/>
<path d="M52.6447 150.14H60.777C61.5674 150.14 62.2081 149.499 62.2081 148.709V141.044C62.2081 140.253 61.5674 139.612 60.777 139.612H52.6447C51.8544 139.612 51.2136 140.253 51.2136 141.044V148.709C51.2136 149.499 51.8544 150.14 52.6447 150.14Z" fill="#EBEBEB"/>
<path d="M55.9922 147.837H62.2081V141.848H55.9922V147.837Z" fill="#FAFAFA"/>
<path d="M54.2109 139.606H59.2045C59.4521 139.606 59.6528 139.406 59.6528 139.158V137.598C59.6528 137.35 59.4521 137.15 59.2045 137.15H54.2109C53.9632 137.15 53.7625 137.35 53.7625 137.598V139.158C53.7625 139.406 53.9632 139.606 54.2109 139.606Z" fill="#F5F5F5"/>
<path d="M169.647 15.3557H163.972V24.741H169.647V15.3557Z" fill="#E0E0E0"/>
<path d="M168.64 17.5425H163.972V22.5484H168.64V17.5425Z" fill="#F5F5F5"/>
<path d="M169.825 13.8943H163.794C163.539 13.8943 163.333 14.1005 163.333 14.355V15.4237C163.333 15.6781 163.539 15.8844 163.794 15.8844H169.825C170.08 15.8844 170.286 15.6781 170.286 15.4237V14.355C170.286 14.1005 170.08 13.8943 169.825 13.8943Z" fill="#F0F0F0"/>
<path d="M182.576 15.3557H176.901V24.741H182.576V15.3557Z" fill="#E0E0E0"/>
<path d="M181.569 17.5425H176.901V22.5484H181.569V17.5425Z" fill="#F5F5F5"/>
<path d="M182.761 13.8943H176.729C176.475 13.8943 176.269 14.1005 176.269 14.355V15.4237C176.269 15.6781 176.475 15.8844 176.729 15.8844H182.761C183.015 15.8844 183.221 15.6781 183.221 15.4237V14.355C183.221 14.1005 183.015 13.8943 182.761 13.8943Z" fill="#F0F0F0"/>
<path d="M195.512 15.3557H189.837V24.741H195.512V15.3557Z" fill="#E0E0E0"/>
<path d="M194.505 17.5425H189.837V22.5484H194.505V17.5425Z" fill="#F5F5F5"/>
<path d="M195.69 13.8943H189.658C189.404 13.8943 189.198 14.1005 189.198 14.355V15.4237C189.198 15.6781 189.404 15.8844 189.658 15.8844H195.69C195.944 15.8844 196.151 15.6781 196.151 15.4237V14.355C196.151 14.1005 195.944 13.8943 195.69 13.8943Z" fill="#F0F0F0"/>
<path d="M208.441 15.3557H202.766V24.741H208.441V15.3557Z" fill="#E0E0E0"/>
<path d="M207.434 17.5425H202.766V22.5484H207.434V17.5425Z" fill="#F5F5F5"/>
<path d="M208.619 13.8943H202.588C202.333 13.8943 202.127 14.1005 202.127 14.355V15.4237C202.127 15.6781 202.333 15.8844 202.588 15.8844H208.619C208.874 15.8844 209.08 15.6781 209.08 15.4237V14.355C209.08 14.1005 208.874 13.8943 208.619 13.8943Z" fill="#F0F0F0"/>
<path d="M76.7896 57.1533H71.1143V66.5386H76.7896V57.1533Z" fill="#E0E0E0"/>
<path d="M75.7823 59.3462H71.1143V64.3521H75.7823V59.3462Z" fill="#F5F5F5"/>
<path d="M76.9678 55.6917H70.9361C70.6817 55.6917 70.4755 55.8979 70.4755 56.1523V57.2211C70.4755 57.4755 70.6817 57.6817 70.9361 57.6817H76.9678C77.2222 57.6817 77.4284 57.4755 77.4284 57.2211V56.1523C77.4284 55.8979 77.2222 55.6917 76.9678 55.6917Z" fill="#F0F0F0"/>
<path d="M89.7251 57.1533H84.0497V66.5386H89.7251V57.1533Z" fill="#E0E0E0"/>
<path d="M88.7177 59.3462H84.0497V64.3521H88.7177V59.3462Z" fill="#F5F5F5"/>
<path d="M89.9031 55.6917H83.8714C83.617 55.6917 83.4108 55.8979 83.4108 56.1523V57.2211C83.4108 57.4755 83.617 57.6817 83.8714 57.6817H89.9031C90.1575 57.6817 90.3637 57.4755 90.3637 57.2211V56.1523C90.3637 55.8979 90.1575 55.6917 89.9031 55.6917Z" fill="#F0F0F0"/>
<path d="M102.654 57.1533H96.9789V66.5386H102.654V57.1533Z" fill="#E0E0E0"/>
<path d="M101.647 59.3462H96.9789V64.3521H101.647V59.3462Z" fill="#F5F5F5"/>
<path d="M102.832 55.6917H96.8009C96.5465 55.6917 96.3402 55.8979 96.3402 56.1523V57.2211C96.3402 57.4755 96.5465 57.6817 96.8009 57.6817H102.832C103.087 57.6817 103.293 57.4755 103.293 57.2211V56.1523C103.293 55.8979 103.087 55.6917 102.832 55.6917Z" fill="#F0F0F0"/>
<path d="M115.584 57.1533H109.908V66.5386H115.584V57.1533Z" fill="#E0E0E0"/>
<path d="M114.576 59.3462H109.908V64.3521H114.576V59.3462Z" fill="#F5F5F5"/>
<path d="M115.768 55.6917H109.736C109.482 55.6917 109.276 55.8979 109.276 56.1523V57.2211C109.276 57.4755 109.482 57.6817 109.736 57.6817H115.768C116.022 57.6817 116.229 57.4755 116.229 57.2211V56.1523C116.229 55.8979 116.022 55.6917 115.768 55.6917Z" fill="#F0F0F0"/>
<path d="M218.385 140.755H212.71V150.14H218.385V140.755Z" fill="#E0E0E0"/>
<path d="M217.378 142.941H212.71V147.947H217.378V142.941Z" fill="#F5F5F5"/>
<path d="M218.563 139.293H212.532C212.277 139.293 212.071 139.499 212.071 139.754V140.823C212.071 141.077 212.277 141.283 212.532 141.283H218.563C218.818 141.283 219.024 141.077 219.024 140.823V139.754C219.024 139.499 218.818 139.293 218.563 139.293Z" fill="#F0F0F0"/>
<path d="M231.315 140.755H225.639V150.14H231.315V140.755Z" fill="#E0E0E0"/>
<path d="M230.307 142.941H225.639V147.947H230.307V142.941Z" fill="#F5F5F5"/>
<path d="M231.493 139.293H225.461C225.207 139.293 225 139.499 225 139.754V140.823C225 141.077 225.207 141.283 225.461 141.283H231.493C231.747 141.283 231.953 141.077 231.953 140.823V139.754C231.953 139.499 231.747 139.293 231.493 139.293Z" fill="#F0F0F0"/>
<path d="M244.244 140.755H238.569V150.14H244.244V140.755Z" fill="#E0E0E0"/>
<path d="M243.237 142.941H238.569V147.947H243.237V142.941Z" fill="#F5F5F5"/>
<path d="M244.428 139.293H238.397C238.142 139.293 237.936 139.499 237.936 139.754V140.823C237.936 141.077 238.142 141.283 238.397 141.283H244.428C244.683 141.283 244.889 141.077 244.889 140.823V139.754C244.889 139.499 244.683 139.293 244.428 139.293Z" fill="#F0F0F0"/>
<path d="M257.18 140.755H251.504V150.14H257.18V140.755Z" fill="#E0E0E0"/>
<path d="M256.172 142.941H251.504V147.947H256.172V142.941Z" fill="#F5F5F5"/>
<path d="M257.358 139.293H251.326C251.071 139.293 250.865 139.499 250.865 139.754V140.823C250.865 141.077 251.071 141.283 251.326 141.283H257.358C257.612 141.283 257.818 141.077 257.818 140.823V139.754C257.818 139.499 257.612 139.293 257.358 139.293Z" fill="#F0F0F0"/>
<path d="M172.675 56.9016H162.24V66.5387H172.675V56.9016Z" fill="#F5F5F5"/>
<path d="M172.669 66.5327H176.876V56.8956H172.669V66.5327Z" fill="#E6E6E6"/>
<path d="M162.24 56.9016L167.454 61.7171L172.675 56.9016H162.24Z" fill="#EBEBEB"/>
<path d="M183.811 56.9016H173.375V66.5387H183.811V56.9016Z" fill="#F5F5F5"/>
<path d="M183.805 66.5327H188.012V56.8956H183.805V66.5327Z" fill="#E6E6E6"/>
<path d="M173.375 56.9016L178.59 61.7171L183.811 56.9016H173.375Z" fill="#EBEBEB"/>
<path d="M194.947 56.9016H184.511V66.5387H194.947V56.9016Z" fill="#F5F5F5"/>
<path d="M194.947 66.5327H199.154V56.8956H194.947V66.5327Z" fill="#E6E6E6"/>
<path d="M184.511 56.9016L189.726 61.7171L194.947 56.9016H184.511Z" fill="#EBEBEB"/>
<path d="M177.89 47.2646H167.454V56.9017H177.89V47.2646Z" fill="#F5F5F5"/>
<path d="M177.89 56.8955H182.097V47.2584H177.89V56.8955Z" fill="#E6E6E6"/>
<path d="M167.454 47.2646L172.675 52.0801L177.89 47.2646H167.454Z" fill="#EBEBEB"/>
<path d="M189.026 47.2646H178.59V56.9017H189.026V47.2646Z" fill="#F5F5F5"/>
<path d="M189.026 56.8955H193.233V47.2584H189.026V56.8955Z" fill="#E6E6E6"/>
<path d="M178.59 47.2646L183.811 52.0801L189.026 47.2646H178.59Z" fill="#EBEBEB"/>
<path d="M219.215 56.9016H208.779V66.5387H219.215V56.9016Z" fill="#F5F5F5"/>
<path d="M219.221 66.5327H223.428V56.8956H219.221V66.5327Z" fill="#E6E6E6"/>
<path d="M208.779 56.9016L214 61.7171L219.215 56.9016H208.779Z" fill="#EBEBEB"/>
<path d="M230.356 56.9016H219.921V66.5387H230.356V56.9016Z" fill="#F5F5F5"/>
<path d="M230.35 66.5327H234.558V56.8956H230.35V66.5327Z" fill="#E6E6E6"/>
<path d="M219.921 56.9016L225.136 61.7171L230.356 56.9016H219.921Z" fill="#EBEBEB"/>
<path d="M241.492 56.9016H231.057V66.5387H241.492V56.9016Z" fill="#F5F5F5"/>
<path d="M241.486 66.5327H245.694V56.8956H241.486V66.5327Z" fill="#E6E6E6"/>
<path d="M231.057 56.9016L236.271 61.7171L241.492 56.9016H231.057Z" fill="#EBEBEB"/>
<path d="M224.436 47.2646H214V56.9017H224.436V47.2646Z" fill="#F5F5F5"/>
<path d="M224.435 56.8955H228.643V47.2584H224.435V56.8955Z" fill="#E6E6E6"/>
<path d="M214 47.2646L219.215 52.0801L224.436 47.2646H214Z" fill="#EBEBEB"/>
<path d="M235.571 47.2646H225.136V56.9017H235.571V47.2646Z" fill="#F5F5F5"/>
<path d="M235.571 56.8955H239.778V47.2584H235.571V56.8955Z" fill="#E6E6E6"/>
<path d="M225.136 47.2646L230.356 52.0801L235.571 47.2646H225.136Z" fill="#EBEBEB"/>
<path d="M123.445 140.497H113.01V150.134H123.445V140.497Z" fill="#F5F5F5"/>
<path d="M123.446 150.14H127.653V140.503H123.446V150.14Z" fill="#E6E6E6"/>
<path d="M113.01 140.497L118.231 145.319L123.445 140.497H113.01Z" fill="#EBEBEB"/>
<path d="M134.581 140.497H124.146V150.134H134.581V140.497Z" fill="#F5F5F5"/>
<path d="M134.581 150.14H138.789V140.503H134.581V150.14Z" fill="#E6E6E6"/>
<path d="M124.146 140.497L129.367 145.319L134.581 140.497H124.146Z" fill="#EBEBEB"/>
<path d="M145.717 140.497H135.281V150.134H145.717V140.497Z" fill="#F5F5F5"/>
<path d="M145.717 150.14H149.924V140.503H145.717V150.14Z" fill="#E6E6E6"/>
<path d="M135.281 140.497L140.502 145.319L145.717 140.497H135.281Z" fill="#EBEBEB"/>
<path d="M128.66 130.86H118.225V140.497H128.66V130.86Z" fill="#F5F5F5"/>
<path d="M128.667 140.503H132.874V130.866H128.667V140.503Z" fill="#E6E6E6"/>
<path d="M118.231 130.86L123.446 135.682L128.66 130.86H118.231Z" fill="#EBEBEB"/>
<path d="M139.802 130.86H129.367V140.497H139.802V130.86Z" fill="#F5F5F5"/>
<path d="M139.796 140.503H144.004V130.866H139.796V140.503Z" fill="#E6E6E6"/>
<path d="M129.367 130.86L134.581 135.682L139.802 130.86H129.367Z" fill="#EBEBEB"/>
<path d="M169.991 140.497H159.556V150.134H169.991V140.497Z" fill="#F5F5F5"/>
<path d="M169.985 150.14H174.192V140.503H169.985V150.14Z" fill="#E6E6E6"/>
<path d="M159.556 140.497L164.77 145.319L169.991 140.497H159.556Z" fill="#EBEBEB"/>
<path d="M181.127 140.497H170.691V150.134H181.127V140.497Z" fill="#F5F5F5"/>
<path d="M181.127 150.14H185.334V140.503H181.127V150.14Z" fill="#E6E6E6"/>
<path d="M170.691 140.497L175.906 145.319L181.127 140.497H170.691Z" fill="#EBEBEB"/>
<path d="M192.263 140.497H181.827V150.134H192.263V140.497Z" fill="#F5F5F5"/>
<path d="M192.263 150.14H196.47V140.503H192.263V150.14Z" fill="#E6E6E6"/>
<path d="M181.827 140.497L187.042 145.319L192.263 140.497H181.827Z" fill="#EBEBEB"/>
<path d="M175.206 130.86H164.77V140.497H175.206V130.86Z" fill="#F5F5F5"/>
<path d="M175.206 140.503H179.413V130.866H175.206V140.503Z" fill="#E6E6E6"/>
<path d="M164.77 130.86L169.991 135.682L175.206 130.86H164.77Z" fill="#EBEBEB"/>
<path d="M186.342 130.86H175.906V140.497H186.342V130.86Z" fill="#F5F5F5"/>
<path d="M186.348 140.503H190.555V130.866H186.348V140.503Z" fill="#E6E6E6"/>
<path d="M175.906 130.86L181.127 135.682L186.342 130.86H175.906Z" fill="#EBEBEB"/>
<path d="M69.2655 96.9426H56.932V108.336H69.2655V96.9426Z" fill="#F5F5F5"/>
<path d="M69.2653 108.336H74.2405V96.9427H69.2653V108.336Z" fill="#E6E6E6"/>
<path d="M56.932 96.9426L63.0988 102.643L69.2717 96.9426H56.932Z" fill="#EBEBEB"/>
<path d="M82.4282 96.9426H70.0947V108.336H82.4282V96.9426Z" fill="#F5F5F5"/>
<path d="M82.428 108.336H87.4032V96.9427H82.428V108.336Z" fill="#E6E6E6"/>
<path d="M70.1008 96.9426L76.2676 102.643L82.4343 96.9426H70.1008Z" fill="#EBEBEB"/>
<path d="M95.5969 96.9426H83.2634V108.336H95.5969V96.9426Z" fill="#F5F5F5"/>
<path d="M95.5968 108.336H100.572V96.9427H95.5968V108.336Z" fill="#E6E6E6"/>
<path d="M83.2634 96.9426L89.4302 102.643L95.5969 96.9426H83.2634Z" fill="#EBEBEB"/>
<path d="M75.4321 85.5486H63.0986V96.9423H75.4321V85.5486Z" fill="#F5F5F5"/>
<path d="M75.4322 96.9487H80.4073V85.555H75.4322V96.9487Z" fill="#E6E6E6"/>
<path d="M63.0986 85.5486L69.2715 91.2485L75.4383 85.5486H63.0986Z" fill="#EBEBEB"/>
<path d="M88.6011 85.5486H76.2676V96.9423H88.6011V85.5486Z" fill="#F5F5F5"/>
<path d="M88.601 96.9487H93.5762V85.555H88.601V96.9487Z" fill="#E6E6E6"/>
<path d="M76.2676 85.5486L82.4343 91.2485L88.6011 85.5486H76.2676Z" fill="#EBEBEB"/>
<path d="M228.25 16.9592H219.829V24.7352H228.25V16.9592Z" fill="#F5F5F5"/>
<path d="M228.25 24.7412H231.646V16.9652H228.25V24.7412Z" fill="#E6E6E6"/>
<path d="M219.829 16.9592L224.036 20.8472L228.25 16.9592H219.829Z" fill="#EBEBEB"/>
<path d="M237.236 16.9592H228.815V24.7352H237.236V16.9592Z" fill="#F5F5F5"/>
<path d="M237.236 24.7412H240.632V16.9652H237.236V24.7412Z" fill="#E6E6E6"/>
<path d="M228.815 16.9592L233.022 20.8472L237.236 16.9592H228.815Z" fill="#EBEBEB"/>
<path d="M246.222 16.9592H237.801V24.7352H246.222V16.9592Z" fill="#F5F5F5"/>
<path d="M246.222 24.7412H249.619V16.9652H246.222V24.7412Z" fill="#E6E6E6"/>
<path d="M237.801 16.9592L242.014 20.8472L246.222 16.9592H237.801Z" fill="#EBEBEB"/>
<path d="M232.457 9.18311H224.036V16.9591H232.457V9.18311Z" fill="#F5F5F5"/>
<path d="M232.463 16.9651H235.86V9.18908H232.463V16.9651Z" fill="#E6E6E6"/>
<path d="M224.036 9.18311L228.25 13.0711L232.457 9.18311H224.036Z" fill="#EBEBEB"/>
<path d="M241.449 9.18311H233.028V16.9591H241.449V9.18311Z" fill="#F5F5F5"/>
<path d="M241.449 16.9651H244.846V9.18908H241.449V16.9651Z" fill="#E6E6E6"/>
<path d="M233.022 9.18311L237.236 13.0711L241.449 9.18311H233.022Z" fill="#EBEBEB"/>
<path d="M153.555 228.932C219.327 228.932 272.646 225.819 272.646 221.979C272.646 218.139 219.327 215.026 153.555 215.026C87.7828 215.026 34.464 218.139 34.464 221.979C34.464 225.819 87.7828 228.932 153.555 228.932Z" fill="#F5F5F5"/>
<path d="M205.352 85.4077H129.809C119.178 85.4077 110.559 94.0261 110.559 104.657V202.73C110.559 213.361 119.178 221.979 129.809 221.979H205.352C215.983 221.979 224.601 213.361 224.601 202.73V104.657C224.601 94.0261 215.983 85.4077 205.352 85.4077Z" fill="#3638DA"/>
<path d="M203.442 76.6738H131.713V98.1715H203.442V76.6738Z" fill="#888BE8"/>
<path opacity="0.3" d="M203.442 79.9476L131.713 82.0667V76.6738H203.442V79.9476Z" fill="#263238"/>
<path d="M206.292 55.2805H128.869C127.916 55.2805 127.143 56.0533 127.143 57.0065V76.2438C127.143 77.197 127.916 77.9698 128.869 77.9698H206.292C207.245 77.9698 208.017 77.197 208.017 76.2438V57.0065C208.017 56.0533 207.245 55.2805 206.292 55.2805Z" fill="#407BFF"/>
<path opacity="0.6" d="M206.267 55.1357H128.844C127.891 55.1357 127.119 55.9085 127.119 56.8617V76.099C127.119 77.0522 127.891 77.825 128.844 77.825H206.267C207.22 77.825 207.993 77.0522 207.993 76.099V56.8617C207.993 55.9085 207.22 55.1357 206.267 55.1357Z" fill="#A6A9F1"/>
<path opacity="0.9" d="M152.019 116.531H224.601V191.189H152.019C150.715 191.189 149.423 190.932 148.218 190.433C147.013 189.934 145.919 189.202 144.996 188.28C144.074 187.358 143.342 186.263 142.843 185.058C142.344 183.853 142.087 182.561 142.087 181.257V126.456C142.089 123.823 143.136 121.299 144.998 119.437C146.861 117.576 149.386 116.531 152.019 116.531Z" fill="white"/>
<path opacity="0.9" d="M118.852 191.189H110.56L110.56 116.531H118.852C121.486 116.531 124.012 117.577 125.874 119.44C127.737 121.302 128.783 123.828 128.783 126.463V181.263C128.782 183.896 127.735 186.421 125.872 188.282C124.01 190.143 121.485 191.189 118.852 191.189Z" fill="white"/>
<path d="M45.7228 134.883L43.2659 135.313C41.0179 136.867 43.1799 140.141 43.1799 140.141L43.7143 142.217C43.7855 142.546 43.9797 142.835 44.2571 143.026C44.5345 143.216 44.8742 143.294 45.2069 143.242L46.9144 142.96C47.3032 142.874 47.6454 142.645 47.873 142.318C48.1006 141.992 48.1969 141.591 48.1428 141.197L47.9217 139.311C47.8588 138.777 47.6874 138.26 47.4181 137.794L45.7228 134.883Z" fill="#FFC3BD"/>
<path d="M57.8472 103.287L55.4825 107.513L53.13 111.763L50.8635 116.026L49.7887 118.151L49.2727 119.201L49.1437 119.466L49.0823 119.595C49.0823 119.656 49.0823 119.595 49.0823 119.631H49.0455H48.984C48.984 119.631 48.984 119.631 48.984 119.693V122.844C48.984 124.527 48.984 126.21 48.984 127.893L48.8858 132.935C48.8243 134.618 48.7813 136.301 48.6892 137.984L40.9992 138.353C40.7105 136.713 40.471 135.073 40.2191 133.439L39.5374 128.525C39.3285 126.885 39.1135 125.245 38.9231 123.612L38.6406 121.155L38.5669 120.54C38.4451 119.326 38.5239 118.099 38.8003 116.91C38.8984 116.513 39.0173 116.122 39.1565 115.737L39.4207 115.012L39.8875 113.784C40.2069 112.967 40.5385 112.156 40.8702 111.327C41.5397 109.724 42.2338 108.152 42.9647 106.604C44.4081 103.484 45.9007 100.462 47.5775 97.4397L57.8472 103.287Z" fill="#407BFF"/>
<g opacity="0.2">
<path d="M57.8472 103.287L55.4825 107.513L53.13 111.763L50.8635 116.026L49.7887 118.151L49.2727 119.201L49.1437 119.466L49.0823 119.595C49.0823 119.656 49.0823 119.595 49.0823 119.631H49.0455H48.984C48.984 119.631 48.984 119.631 48.984 119.693V122.844C48.984 124.527 48.984 126.21 48.984 127.893L48.8858 132.935C48.8243 134.618 48.7813 136.301 48.6892 137.984L40.9992 138.353C40.7105 136.713 40.471 135.073 40.2191 133.439L39.5374 128.525C39.3285 126.885 39.1135 125.245 38.9231 123.612L38.6406 121.155L38.5669 120.54C38.4451 119.326 38.5239 118.099 38.8003 116.91C38.8984 116.513 39.0173 116.122 39.1565 115.737L39.4207 115.012L39.8875 113.784C40.2069 112.967 40.5385 112.156 40.8702 111.327C41.5397 109.724 42.2338 108.152 42.9647 106.604C44.4081 103.484 45.9007 100.462 47.5775 97.4397L57.8472 103.287Z" fill="white"/>
</g>
<path d="M97.4338 91.8199C98.7605 81.1202 99.8907 73.5408 106.346 73.5408C111.155 73.5408 116.075 83.1226 115.043 93.8591C114.055 104.129 108.109 111.782 101.918 112.378L98.1401 217.729C98.0677 218.846 97.5767 219.896 96.765 220.667C95.9534 221.439 94.8807 221.877 93.7608 221.893H91.2118C90.6796 221.906 90.1508 221.804 89.6618 221.594C89.1729 221.383 88.7353 221.069 88.3792 220.674C88.0232 220.278 87.7571 219.81 87.5993 219.301C87.4414 218.793 87.3956 218.256 87.465 217.729L98.392 110.314C95.8614 107.016 96.4879 99.4792 97.4338 91.8199Z" fill="#407BFF"/>
<path opacity="0.7" d="M97.4338 91.8199C98.7605 81.1202 99.8907 73.5408 106.346 73.5408C111.155 73.5408 116.075 83.1226 115.043 93.8591C114.055 104.129 108.109 111.782 101.918 112.378L98.1401 217.729C98.0677 218.846 97.5767 219.896 96.765 220.667C95.9534 221.439 94.8807 221.877 93.7608 221.893H91.2118C90.6796 221.906 90.1508 221.804 89.6618 221.594C89.1729 221.383 88.7353 221.069 88.3792 220.674C88.0232 220.278 87.7571 219.81 87.5993 219.301C87.4414 218.793 87.3956 218.256 87.465 217.729L98.392 110.314C95.8614 107.016 96.4879 99.4792 97.4338 91.8199Z" fill="white"/>
<path d="M81.857 219.768C77.5575 219.436 75.2849 216.494 75.3893 213.374C75.4507 211.654 69.9473 211.5 69.9473 211.5C71.1757 216.832 70.107 217.593 69.8367 218.969C69.5665 220.345 69.7446 221.868 70.8809 221.899C72.2445 221.93 72.8648 221.672 74.5662 221.733C76.5502 221.813 77.883 221.893 81.4025 221.899C82.8029 221.899 83.7734 219.915 81.857 219.768Z" fill="#407BFF"/>
<path d="M50.0898 219.884C47.3013 218.938 47.16 216.052 47.5285 213.079C47.7496 211.322 42.277 211.66 42.277 211.66C41.8777 215.904 41.1038 216.07 40.3667 217.36C39.6297 218.65 39.5928 220.056 40.6554 220.431C41.9269 220.898 42.6332 220.769 44.2855 221.045C46.2264 221.389 47.9708 221.862 50.3355 221.862C51.7421 221.899 51.8772 220.492 50.0898 219.884Z" fill="#407BFF"/>
<path d="M77.7234 126.566C77.7234 126.566 80.383 148.254 77.9261 167.104C78.0551 183.025 75.7764 214.129 75.7764 214.129C73.9001 214.573 71.9437 214.554 70.0764 214.074C70.0764 214.074 61.6186 192.41 63.7991 166.834C55.7713 141.197 56.3425 127.377 56.3425 127.377L77.7234 126.566Z" fill="#263238"/>
<path d="M69.2717 126.873C69.2717 126.873 64.9046 157.989 60.1199 172.817C55.0894 188.387 47.9092 212.618 47.7127 213.767C45.483 213.975 43.4131 213.932 41.7486 213.214C41.7486 213.214 39.1382 185.942 45.569 169.039C47.1906 133.746 50.9741 127.536 50.9741 127.536L69.2717 126.873Z" fill="#263238"/>
<path d="M57.2885 84.7134C58.1484 87.7046 59.0574 92.5999 57.9641 95.2595C57.9641 95.2595 61.9565 95.3148 67.7916 99.645C70.3283 95.6158 67.6687 94.9401 67.6687 94.9401C65.2794 94.4733 64.8003 91.6049 64.7205 89.363L57.2885 84.7134Z" fill="#FFC3BD"/>
<path d="M76.7775 102.262C76.7775 98.6192 74.253 96.0518 69.6096 95.2226C65.31 94.4548 59.3398 94.3443 55.3965 95.5481C51.4532 96.752 50.2985 98.9632 51.0417 101.973C54.2541 114.964 50.4275 123.471 50.9926 127.537C60.8201 128.476 75.6166 128.249 77.7418 126.566C79.1668 124.509 77.0846 113.36 76.2861 111.739C80.1188 108.871 76.7775 104.295 76.7775 102.262Z" fill="#407BFF"/>
<path d="M68.0559 79.1178C68.148 79.5231 68.4305 79.7995 68.6701 79.732C68.9096 79.6644 69.0755 79.302 68.9895 78.9028C68.9035 78.5035 68.6209 78.221 68.3753 78.2886C68.1296 78.3561 67.9699 78.7185 68.0559 79.1178Z" fill="#263238"/>
<path d="M68.2644 78.3378L69.1673 77.8525C69.1673 77.8525 68.8356 78.7186 68.2644 78.3378Z" fill="#263238"/>
<path d="M68.3751 79.8977C68.9271 80.7369 69.5927 81.4955 70.3529 82.1519C70.1804 82.3421 69.9685 82.4923 69.7319 82.592C69.4953 82.6917 69.2398 82.7386 68.9832 82.7293L68.3751 79.8977Z" fill="#ED847E"/>
<path d="M68.3014 82.6614C67.0054 82.6614 65.9428 80.8618 65.9305 78.6444C65.8949 77.666 66.1062 76.6944 66.5447 75.819C66.6905 75.483 66.9233 75.192 67.2192 74.976C67.5151 74.7601 67.8632 74.627 68.2277 74.5906C69.5175 74.5906 70.5801 76.3902 70.5985 78.6076C70.6235 79.5873 70.3995 80.5573 69.9475 81.4268C69.8033 81.764 69.5709 82.056 69.2747 82.2722C68.9786 82.4884 68.6296 82.6207 68.2645 82.6553L68.3014 82.6614ZM68.3014 74.9038C67.991 74.9392 67.6958 75.0569 67.4463 75.2449C67.1968 75.4328 67.0022 75.684 66.8825 75.9726C66.4549 76.7968 66.2436 77.7162 66.2683 78.6444C66.2683 80.6898 67.2081 82.3297 68.3321 82.3297C68.6418 82.2925 68.9362 82.1741 69.1854 81.9864C69.4346 81.7987 69.6297 81.5484 69.7509 81.261C70.1785 80.4367 70.3899 79.5174 70.3651 78.5891C70.3221 76.5684 69.407 74.9038 68.2707 74.9038H68.3014Z" fill="#263238"/>
<path d="M68.4857 76.6484C68.5231 76.5993 68.5407 76.5379 68.5349 76.4764C68.5311 76.4449 68.5211 76.4144 68.5054 76.3867C68.4897 76.3591 68.4686 76.3348 68.4435 76.3154C68.4183 76.2959 68.3896 76.2817 68.3589 76.2735C68.3281 76.2653 68.2961 76.2633 68.2646 76.2676C67.8848 76.305 67.5193 76.4327 67.1988 76.64C66.8783 76.8473 66.6119 77.1281 66.422 77.4592C66.4038 77.5153 66.4065 77.5761 66.4294 77.6304C66.4524 77.6848 66.4942 77.729 66.5471 77.7551C66.6 77.7812 66.6606 77.7874 66.7176 77.7725C66.7747 77.7577 66.8246 77.7227 66.858 77.6742C67.0097 77.4126 67.2225 77.1916 67.4781 77.0301C67.7337 76.8686 68.0247 76.7713 68.326 76.7467C68.3899 76.7357 68.4471 76.7005 68.4857 76.6484Z" fill="#263238"/>
<path d="M54.7701 81.2796C56.1214 86.1442 56.6128 88.2326 59.5795 90.2349C64.0694 93.2507 69.622 90.5359 69.7202 85.3764C69.8062 80.7268 67.5766 73.5527 62.4233 72.613C57.27 71.6732 53.4373 76.4211 54.7701 81.2796Z" fill="#FFC3BD"/>
<path d="M47.6144 97.1449C50.2986 93.5518 62.5277 93.2201 71.6918 94.6451C80.8559 96.0701 80.039 105.148 80.2356 111.364C80.4321 117.58 82.6065 161.337 79.8179 177.81C67.1343 179.96 47.0494 178.732 41.2266 176.791C42.455 170.851 46.9818 125.473 47.0494 113.735C47.0801 107.998 44.7829 100.935 47.6144 97.1449Z" fill="#407BFF"/>
<path opacity="0.3" d="M47.6144 97.1449C50.2986 93.5518 62.5277 93.2201 71.6918 94.6451C80.8559 96.0701 80.039 105.148 80.2356 111.364C80.4321 117.58 82.6065 161.337 79.8179 177.81C67.1343 179.96 47.0494 178.732 41.2266 176.791C42.455 170.851 46.9818 125.473 47.0494 113.735C47.0801 107.998 44.7829 100.935 47.6144 97.1449Z" fill="white"/>
<path opacity="0.5" d="M80.4937 117.985C78.3869 115.995 76.5381 114.042 75.8564 112.764C73.3995 108.189 77.7543 121.044 80.8377 127.598C80.721 123.943 80.5981 120.663 80.4937 117.985Z" fill="#407BFF"/>
<path d="M95.2902 116.647L94.9708 119.103C95.7755 121.714 99.5468 120.633 99.5468 120.633L101.69 120.75C102.026 120.782 102.361 120.685 102.627 120.478C102.893 120.271 103.07 119.971 103.122 119.638L103.361 117.924C103.398 117.527 103.283 117.131 103.041 116.814C102.799 116.498 102.446 116.284 102.053 116.217L100.21 115.86C99.6818 115.746 99.1353 115.746 98.607 115.86L95.2902 116.647Z" fill="#FFC3BD"/>
<path d="M94.6206 116.929C95.6648 115.086 97.9988 115.184 99.7739 114.816C100.075 114.748 100.634 115.338 100.302 115.7C100.098 115.952 99.8441 116.16 99.5569 116.311C99.2698 116.462 98.9549 116.553 98.6315 116.579C98.6315 117.248 97.8084 118.993 95.5174 118.79C94.9843 118.312 94.6619 117.643 94.6206 116.929Z" fill="#FFC3BD"/>
<path d="M78.2886 98.9878L79.1607 100.732L80.1005 102.532C80.7147 103.73 81.3658 104.921 82.0291 106.094C82.6925 107.267 83.3743 108.404 84.0622 109.528C84.4062 110.093 84.7624 110.633 85.1125 111.174C85.2906 111.45 85.4688 111.708 85.653 111.972L85.9172 112.365L86.0523 112.562L86.0953 112.63C86.3001 112.994 86.6048 113.292 86.9736 113.489C87.4031 113.65 87.8475 113.767 88.3003 113.84C88.9145 113.956 89.5287 114.055 90.143 114.141C91.4083 114.325 92.735 114.448 94.074 114.552C94.7435 114.595 95.4191 114.65 96.0947 114.687L98.0787 114.779L98.9202 122.433C98.0971 122.617 97.3907 122.752 96.623 122.881C95.8552 123.01 95.1181 123.133 94.3565 123.225C92.8394 123.421 91.2854 123.55 89.7007 123.6C88.9084 123.6 88.0976 123.6 87.2439 123.6C86.8323 123.6 86.4024 123.557 85.9724 123.52C85.4225 123.479 84.8763 123.397 84.3386 123.274C81.9212 122.725 79.7265 121.457 78.0429 119.638L77.5392 119.067L77.1522 118.618C76.8881 118.317 76.624 118.004 76.3783 117.709C75.8685 117.095 75.3956 116.481 74.9226 115.867C73.9829 114.638 73.08 113.41 72.2631 112.114C71.4462 110.818 70.6047 109.571 69.8062 108.269C69.4315 107.618 69.0507 106.96 68.6822 106.303C68.3136 105.646 67.9758 104.995 67.5889 104.227L78.2886 98.9878Z" fill="#407BFF"/>
<g opacity="0.3">
<path d="M78.2886 98.9878L79.1607 100.732L80.1005 102.532C80.7147 103.73 81.3658 104.921 82.0291 106.094C82.6925 107.267 83.3743 108.404 84.0622 109.528C84.4062 110.093 84.7624 110.633 85.1125 111.174C85.2906 111.45 85.4688 111.708 85.653 111.972L85.9172 112.365L86.0523 112.562L86.0953 112.63C86.3001 112.994 86.6048 113.292 86.9736 113.489C87.4031 113.65 87.8475 113.767 88.3003 113.84C88.9145 113.956 89.5287 114.055 90.143 114.141C91.4083 114.325 92.735 114.448 94.074 114.552C94.7435 114.595 95.4191 114.65 96.0947 114.687L98.0787 114.779L98.9202 122.433C98.0971 122.617 97.3907 122.752 96.623 122.881C95.8552 123.01 95.1181 123.133 94.3565 123.225C92.8394 123.421 91.2854 123.55 89.7007 123.6C88.9084 123.6 88.0976 123.6 87.2439 123.6C86.8323 123.6 86.4024 123.557 85.9724 123.52C85.4225 123.479 84.8763 123.397 84.3386 123.274C81.9212 122.725 79.7265 121.457 78.0429 119.638L77.5392 119.067L77.1522 118.618C76.8881 118.317 76.624 118.004 76.3783 117.709C75.8685 117.095 75.3956 116.481 74.9226 115.867C73.9829 114.638 73.08 113.41 72.2631 112.114C71.4462 110.818 70.6047 109.571 69.8062 108.269C69.4315 107.618 69.0507 106.96 68.6822 106.303C68.3136 105.646 67.9758 104.995 67.5889 104.227L78.2886 98.9878Z" fill="white"/>
</g>
<path opacity="0.5" d="M62.2699 126.781C62.2699 126.781 53.7629 126.204 51.2815 125.006C54.2727 126.996 58.3512 127.242 62.2699 126.781Z" fill="#407BFF"/>
<path opacity="0.5" d="M61.3115 127.586C61.3115 127.586 55.0465 127.905 53.0872 127.248C55.5195 128.433 58.5414 128.274 61.3115 127.586Z" fill="#407BFF"/>
<path d="M62.6505 70.4636C52.8906 66.2316 44.224 70.0275 47.4302 77.0357C50.6364 84.0439 43.2658 85.3952 41.9022 93.3248C40.5387 101.254 43.6343 107.04 51.7297 109.565C62.1285 112.808 71.698 111.34 71.1083 101.58C70.5187 91.82 64.7819 85.211 66.4096 80.4999C68.0372 75.7888 69.3148 68.8912 62.6505 70.4636Z" fill="#263238"/>
<path d="M65.3408 80.6654H65.2917C65.2534 80.6516 65.2222 80.6231 65.2049 80.5862C65.1877 80.5494 65.1857 80.5072 65.1996 80.4689C65.5374 79.5414 69.9229 78.1656 70.4204 78.012C70.4595 78.0006 70.5015 78.0052 70.5373 78.0248C70.573 78.0444 70.5994 78.0773 70.6108 78.1164C70.6225 78.1547 70.6188 78.196 70.6004 78.2316C70.582 78.2672 70.5505 78.2942 70.5126 78.3068C68.6699 78.8719 65.7032 79.9898 65.4882 80.5794C65.4738 80.6058 65.4524 80.6277 65.4265 80.6428C65.4005 80.658 65.3709 80.6658 65.3408 80.6654Z" fill="#263238"/>
<path d="M64.3703 82.8643C64.5306 83.3213 64.7899 83.7372 65.1297 84.0823C65.4695 84.4274 65.8814 84.6932 66.3358 84.8605C67.4537 85.186 68.0127 83.7672 67.6994 82.3545C67.4169 81.083 66.471 79.3755 65.3715 79.6888C64.2721 80.002 63.879 81.6236 64.3703 82.8643Z" fill="#FFC3BD"/>
<path opacity="0.1" d="M216.205 218.625C217.315 217.869 218.344 217 219.276 216.033H185.021L183.363 184.978H224.601V182.386H183.221L181.557 151.319H224.601V148.739H181.422L179.757 117.672H224.595V115.08H179.622L177.957 84.013H203.441V81.421H177.816L176.422 55.3044H172.325L181.244 221.997H185.34L185.162 218.65L216.205 218.625Z" fill="#263238"/>
<path d="M224.337 39.6912L225.393 45.8334H177.509L176.453 39.6912H172.356L203.736 222.863H207.833L206.777 216.721H254.686L255.742 222.863H259.814L228.434 39.6912H224.337ZM225.836 48.4253L231.161 79.4925H183.252L177.927 48.4253H225.836ZM194.793 146.811L189.468 115.744H237.377L242.702 146.811H194.793ZM243.144 149.403L248.47 180.47H200.561L195.235 149.403H243.144ZM189.019 113.164L183.694 82.0968H231.603L236.929 113.164H189.019ZM206.334 214.142L201.009 183.074H248.918L254.243 214.142H206.334Z" fill="#263238"/>
<path d="M222.065 40.6985C222.479 39.6765 223.229 38.8255 224.19 38.2847C224.486 37.2695 224.416 36.1826 223.993 35.2136L235.049 30.5701C234.472 34.4089 234.023 37.4432 235.584 39.1691C233.471 40.7354 229.601 43.5485 225.142 43.8249C220.683 44.1013 221.481 42.3385 222.065 40.6985Z" fill="#B55B52"/>
<path d="M221.524 25.2812L221.591 29.0157C221.591 29.0157 220.173 29.3658 219.319 28.7393C219.731 27.4102 220.493 26.216 221.524 25.2812Z" fill="#A02724"/>
<path d="M221.585 24.7657C221.542 25.2079 221.272 25.5396 220.971 25.5089C220.67 25.4781 220.486 25.0973 220.523 24.6551C220.56 24.2129 220.836 23.875 221.137 23.9057C221.438 23.9365 221.628 24.3234 221.585 24.7657Z" fill="#263238"/>
<path d="M221.119 21.2826C221.126 21.3248 221.144 21.3644 221.171 21.3977C221.198 21.431 221.233 21.457 221.272 21.473C221.58 21.5837 221.856 21.7672 222.078 22.0079C222.299 22.2485 222.459 22.5392 222.544 22.855C222.55 22.8886 222.563 22.9206 222.582 22.949C222.602 22.9775 222.626 23.0019 222.655 23.0207C222.683 23.0396 222.715 23.0526 222.749 23.0589C222.783 23.0653 222.817 23.0649 222.851 23.0577C222.884 23.0511 222.916 23.0379 222.945 23.0188C222.973 22.9998 222.998 22.9752 223.016 22.9466C223.035 22.9181 223.048 22.886 223.055 22.8523C223.061 22.8187 223.061 22.7841 223.053 22.7506C222.952 22.3479 222.753 21.9763 222.474 21.668C222.196 21.3597 221.847 21.1241 221.456 20.9816C221.412 20.9654 221.365 20.9612 221.318 20.9695C221.272 20.9779 221.229 20.9985 221.193 21.0292C221.157 21.0599 221.13 21.0995 221.115 21.1441C221.1 21.1887 221.097 21.2365 221.106 21.2826H221.119Z" fill="#263238"/>
<path d="M236.714 24.6181C235.866 30.0171 235.172 33.6655 231.8 35.674C225.105 39.6419 221.622 36.3251 220.836 30.7603C220.13 25.7544 221.635 17.7634 227.163 16.1542C228.386 15.7962 229.681 15.7546 230.925 16.0332C232.169 16.3118 233.323 16.9015 234.277 17.7471C235.231 18.5927 235.955 19.6667 236.381 20.8683C236.808 22.07 236.922 23.3602 236.714 24.6181Z" fill="#B55B52"/>
<path d="M225.203 27.069C222.746 26.5285 222.003 23.8444 223.52 22.8309C222.513 20.6443 221.063 20.2573 221.1 17.6715C221.137 15.0856 223.821 11.99 229.392 12.4813C228.624 12.9113 227.832 13.2982 227.832 13.2982C227.832 13.2982 232.132 12.5796 235.62 14.6127C239.109 16.6457 241.069 15.3989 241.069 15.3989C241.045 15.7604 240.923 16.1086 240.716 16.4061C240.51 16.7037 240.226 16.9394 239.895 17.088C240.786 17.5486 242.911 21.7929 239.637 25.4291C236.364 29.0652 235.246 31.4791 236.388 32.9348C234.748 34.6669 230.86 34.5625 228.317 33.1743C225.775 31.7862 225.203 27.069 225.203 27.069Z" fill="#263238"/>
<path d="M228.213 26.4485C228.032 27.0116 227.741 27.5331 227.357 27.9833C226.973 28.4334 226.504 28.8032 225.977 29.0712C224.564 29.7837 223.52 28.586 223.668 27.0935C223.791 25.7545 224.669 23.7644 226.217 23.6784C226.555 23.6629 226.892 23.732 227.198 23.8795C227.503 24.0271 227.766 24.2483 227.964 24.5233C228.163 24.7983 228.289 25.1183 228.332 25.4544C228.376 25.7906 228.335 26.1323 228.213 26.4485Z" fill="#B55B52"/>
<path d="M220.431 167.522L228.759 167.602L228.446 177.424L221.487 177.368L220.431 167.522Z" fill="#B55B52"/>
<path opacity="0.2" d="M220.437 167.522L228.759 167.602L228.581 173.106L221.026 173.038L220.437 167.522Z" fill="black"/>
<path d="M229.269 128.397C232.175 115.498 236.984 101.825 231.917 90.229L208.785 92.2314C208.785 92.2314 211.076 119.736 211.697 131.363C212.311 143.445 220.179 171.33 220.179 171.33H229.705C229.705 171.33 231.186 141.774 229.269 128.397Z" fill="#407BFF"/>
<path d="M229.773 180.464H227.58L227.046 179.727L226.137 180.47H213.853C213.736 179.622 213.851 178.759 214.184 177.97C214.184 177.97 218.441 177.276 220.093 176.128C220.232 176.029 220.391 175.961 220.558 175.927C220.725 175.893 220.897 175.895 221.064 175.931C222.55 176.214 226.481 176.852 228.606 176.023C228.659 176.009 228.714 176.006 228.768 176.015C228.822 176.024 228.873 176.045 228.919 176.076C228.964 176.107 229.001 176.147 229.029 176.194C229.057 176.242 229.074 176.294 229.079 176.349C229.203 177.736 229.435 179.112 229.773 180.464Z" fill="#263238"/>
<path d="M256.086 157.019L263.801 153.874L267.928 162.799L261.485 165.434L256.086 157.019Z" fill="#B55B52"/>
<path opacity="0.2" d="M256.086 157.019L263.807 153.88L266.116 158.874L259.114 161.73L256.086 157.019Z" fill="black"/>
<path d="M255.288 126.044C254.821 113.428 254.059 94.5589 249.305 89.1907L223.416 90.9535C223.416 90.9535 233.09 117.789 236.818 129.133C240.694 140.92 257.603 160.557 257.603 160.557L265.92 157.105C265.92 157.105 259.956 140.066 255.288 126.044Z" fill="#407BFF"/>
<path d="M218.318 39.6971C225.923 38.2707 233.662 37.6939 241.394 37.9773C242.455 38.0374 243.491 38.3133 244.442 38.788C245.392 39.2627 246.235 39.9263 246.92 40.7381C247.605 41.55 248.116 42.493 248.424 43.5096C248.732 44.5261 248.829 45.5947 248.709 46.6501C246.756 65.0214 250.491 86.6173 250.448 90.2166C250.448 90.2166 216.709 104.104 207.686 93.5825C203.325 71.6918 209.596 52.6203 212.526 44.6477C212.985 43.3946 213.759 42.2808 214.773 41.4137C215.788 40.5466 217.009 39.9554 218.318 39.6971Z" fill="#407BFF"/>
<path opacity="0.1" d="M229.269 128.397C229.515 130.08 229.699 132.021 229.841 134.128C223.983 135.127 218.05 135.612 212.108 135.577C211.906 134.042 211.764 132.629 211.697 131.382C211.605 129.65 211.476 127.568 211.322 125.277C217.56 125.587 223.812 125.53 230.043 125.105C229.773 126.206 229.515 127.304 229.269 128.397Z" fill="#263238"/>
<path opacity="0.1" d="M255.515 126.708C251.246 128.747 245.11 130.829 238.163 132.463C237.652 131.371 237.203 130.252 236.818 129.109C236.394 127.82 235.891 126.321 235.338 124.693C241.978 124.094 248.582 123.143 255.122 121.843C255.183 123.299 255.239 124.706 255.288 126.045L255.515 126.708Z" fill="#263238"/>
<path d="M257.069 122.119C252.155 127.033 231.745 133.114 215.787 130.644C214.85 128.592 214.103 126.458 213.558 124.269C213.179 126.196 213.014 128.159 213.066 130.122C211.433 129.758 209.831 129.265 208.276 128.648C207.188 120.307 204.375 87.7474 205.647 70.3343C206.918 52.9212 212.673 41.9513 213.853 41.1344C215.032 40.3175 222.9 38.0633 231.941 37.4061C240.203 36.7918 247.567 38.8126 248.998 41.2695C251.351 44.9548 249.539 72.1524 250.448 80.5795C251.357 89.0066 256.344 108.883 257.069 122.119Z" fill="#407BFF"/>
<path opacity="0.3" d="M257.069 122.119C252.155 127.033 231.745 133.114 215.787 130.644C214.85 128.592 214.103 126.458 213.558 124.269C213.179 126.196 213.014 128.159 213.066 130.122C211.433 129.758 209.831 129.265 208.276 128.648C207.188 120.307 204.375 87.7474 205.647 70.3343C206.918 52.9212 212.673 41.9513 213.853 41.1344C215.032 40.3175 222.9 38.0633 231.941 37.4061C240.203 36.7918 247.567 38.8126 248.998 41.2695C251.351 44.9548 249.539 72.1524 250.448 80.5795C251.357 89.0066 256.344 108.883 257.069 122.119Z" fill="white"/>
<path d="M270.582 163.278L269.212 164.463L268.358 164.224L268.125 165.409L259.863 172.553C259.25 171.948 258.809 171.191 258.586 170.36C258.586 170.36 260.858 167.995 260.748 165.944C260.74 165.867 260.754 165.79 260.789 165.721C260.824 165.652 260.878 165.595 260.944 165.557C261.915 165.016 265.723 162.805 266.964 160.606C266.993 160.554 267.035 160.509 267.084 160.475C267.134 160.442 267.191 160.42 267.251 160.412C267.311 160.405 267.371 160.411 267.428 160.431C267.485 160.45 267.536 160.483 267.578 160.526C268.507 161.519 269.512 162.439 270.582 163.278Z" fill="#263238"/>
<path d="M183.535 64.7758L183.682 68.283C182.527 71.7779 178.289 69.5114 178.289 69.5114L175.832 69.2412C175.397 69.1692 175.003 68.9438 174.72 68.6057C174.437 68.2676 174.285 67.8393 174.291 67.3985L174.168 64.9417C174.11 64.4393 174.251 63.9344 174.561 63.5349C174.871 63.1354 175.325 62.8731 175.826 62.8042L177.994 62.6813C178.628 62.6444 179.261 62.7647 179.837 63.0314L183.535 64.7758Z" fill="#B55B52"/>
<path d="M184.266 65.3042C183.234 62.4726 180.537 62.1901 178.529 61.3118C178.185 61.1644 177.491 61.8707 177.847 62.4481C178.032 62.8203 178.291 63.151 178.608 63.4202C178.924 63.6894 179.293 63.8916 179.69 64.0143C179.634 64.9541 180.421 67.5645 183.074 67.7303C183.755 67.0949 184.179 66.2316 184.266 65.3042Z" fill="#B55B52"/>
<path opacity="0.5" d="M207.606 57.055C206.602 61.4235 205.939 65.8633 205.622 70.3344C205.581 70.9118 205.544 71.5076 205.511 72.1218C209.848 68.1662 212.71 62.0548 212.716 58.2405C212.741 56.3855 210.241 55.845 207.606 57.055Z" fill="#407BFF"/>
<path opacity="0.5" d="M233.262 80.561C233.262 80.561 243.464 79.7257 246.437 77.969C242.85 80.8865 237.936 81.2735 233.262 80.561Z" fill="#407BFF"/>
<path opacity="0.5" d="M234.417 81.7529C234.417 81.7529 241.929 82.2197 244.275 81.2554C241.388 83.0182 237.74 82.7602 234.417 81.7529Z" fill="#407BFF"/>
<path d="M223.606 50.612C222.212 52.1107 220.799 53.5357 219.387 54.9914C217.974 56.4471 216.518 57.8475 215.087 59.2909C212.206 62.1409 209.252 64.9233 206.181 67.6934L204.916 68.8297L203.798 69.143C201.882 69.641 199.932 69.9901 197.963 70.1871C196.12 70.4021 194.369 70.525 192.613 70.6171C190.856 70.7092 189.106 70.7584 187.361 70.7645C185.617 70.7706 183.897 70.7645 182.11 70.6601L181.495 61.8522L186.409 60.8572C188.037 60.5316 189.664 60.1999 191.268 59.856C192.871 59.512 194.455 59.1496 195.979 58.775C197.363 58.4527 198.725 58.0424 200.057 57.5465L197.668 58.9961L205.653 50.2005L209.663 45.7597C211.015 44.2917 212.36 42.7991 213.711 41.3557L223.606 50.612Z" fill="#407BFF"/>
<g opacity="0.3">
<path d="M223.606 50.612C222.212 52.1107 220.799 53.5357 219.387 54.9914C217.974 56.4471 216.518 57.8475 215.087 59.2909C212.206 62.1409 209.252 64.9233 206.181 67.6934L204.916 68.8297L203.798 69.143C201.882 69.641 199.932 69.9901 197.963 70.1871C196.12 70.4021 194.369 70.525 192.613 70.6171C190.856 70.7092 189.106 70.7584 187.361 70.7645C185.617 70.7706 183.897 70.7645 182.11 70.6601L181.495 61.8522L186.409 60.8572C188.037 60.5316 189.664 60.1999 191.268 59.856C192.871 59.512 194.455 59.1496 195.979 58.775C197.363 58.4527 198.725 58.0424 200.057 57.5465L197.668 58.9961L205.653 50.2005L209.663 45.7597C211.015 44.2917 212.36 42.7991 213.711 41.3557L223.606 50.612Z" fill="white"/>
</g>
</svg>
