<svg width="59" height="58" viewBox="0 0 59 58" fill="none" xmlns="http://www.w3.org/2000/svg">
<path d="M54.875 29C54.875 43.0142 43.5142 54.375 29.5 54.375C15.4858 54.375 4.125 43.0142 4.125 29C4.125 14.9858 15.4858 3.625 29.5 3.625C43.5142 3.625 54.875 14.9858 54.875 29Z" fill="#79A2FF"/>
<path d="M32.1392 29.225L24.9053 21.7607C24.6592 21.5068 24.5428 21.2133 24.556 20.8801C24.5693 20.547 24.7031 20.2574 24.9577 20.0113C25.2122 19.7653 25.5058 19.6449 25.8385 19.6501C26.1711 19.6553 26.4608 19.7848 26.7075 20.0387L34.2863 27.8334C34.4831 28.0366 34.6296 28.2639 34.7256 28.5154C34.8217 28.767 34.8678 29.0177 34.8639 29.2677C34.86 29.5176 34.806 29.7668 34.7021 30.0152C34.5982 30.2636 34.4447 30.4863 34.2416 30.6831L26.4219 38.2615C26.168 38.5076 25.8702 38.6239 25.5283 38.6105C25.1865 38.5972 24.8929 38.4632 24.6475 38.2087C24.4022 37.9542 24.2817 37.6606 24.2863 37.3279C24.2908 36.9953 24.4204 36.7056 24.675 36.4589L32.1392 29.225Z" fill="white"/>
<circle cx="29.5" cy="29" r="28.5" stroke="#93C3FF"/>
</svg>
