<svg width="304" height="298" viewBox="0 0 304 298" fill="none" xmlns="http://www.w3.org/2000/svg">
<path d="M44.39 270.424C103.594 307.048 199.539 307.048 258.729 270.424C317.92 233.8 317.934 174.442 258.729 137.817C199.525 101.193 103.58 101.201 44.39 137.817C-14.8001 174.433 -14.7932 233.808 44.39 270.424Z" fill="#F5F5F5"/>
<path d="M26.8307 212.039H29.3242C30.4671 207.519 31.2163 202.873 31.56 198.173C32.1033 189.47 28.5441 176.149 22.0247 171.686C15.5053 167.223 11.9739 172.742 14.161 177.46C16.3481 182.178 23.7242 195.599 23.8217 207.147L26.8307 212.039Z" fill="#3638DA"/>
<path d="M26.2317 212.039H26.9282C27.6087 206.34 27.6087 200.556 26.9282 194.857C25.7999 183.564 22.6655 178.318 19.7541 174.672C19.6903 174.592 19.6024 174.546 19.5097 174.543C19.417 174.54 19.327 174.58 19.2595 174.656C19.1921 174.731 19.1528 174.835 19.1502 174.945C19.1476 175.055 19.1819 175.161 19.2456 175.241C22.0804 178.78 25.1312 183.894 26.2108 194.948C26.9008 200.615 26.9078 206.369 26.2317 212.039Z" fill="white"/>
<path d="M27.0327 212.04C25.7511 204.88 19.9282 196.367 14.4326 194.899C8.05951 193.249 4.96 197.233 5.87244 200.673C6.78488 204.113 11.8207 205.713 16.7103 208.41C18.3567 209.313 19.8617 210.54 21.161 212.04H27.0327Z" fill="#3638DA"/>
<path d="M24.7133 212.039H25.4585C22.763 204.013 16.6337 198.288 11.6187 197.761C11.5733 197.755 11.5274 197.76 11.4838 197.776C11.4401 197.791 11.3995 197.817 11.3644 197.852C11.3294 197.887 11.3005 197.929 11.2796 197.977C11.2587 198.025 11.2461 198.078 11.2426 198.132C11.2368 198.186 11.2404 198.24 11.2533 198.293C11.2662 198.345 11.288 198.393 11.3174 198.435C11.3468 198.477 11.3832 198.511 11.4243 198.536C11.4653 198.56 11.5102 198.574 11.556 198.577C16.2924 199.08 22.0804 204.459 24.7133 212.039Z" fill="white"/>
<path d="M251.876 136.571L257.093 139.813L257.531 135.945C254.947 127.316 257.072 117.533 259.865 113.459C262.658 109.384 262.121 106.389 261.111 105.053C260.101 103.717 256.271 102.702 252.482 107.948C248.693 113.195 247.822 119.563 248.456 125.988C248.86 130.005 250.643 134.13 251.876 136.571Z" fill="#3638DA"/>
<path d="M254.028 137.908L255.059 138.551C255.049 138.528 255.037 138.506 255.024 138.485C253.547 136.406 251.639 126.227 252.44 120.264C253.429 112.897 256.619 108.088 259.349 106.051C259.383 106.027 259.412 105.995 259.435 105.957C259.457 105.919 259.473 105.876 259.482 105.83C259.49 105.785 259.491 105.738 259.484 105.692C259.477 105.647 259.462 105.603 259.44 105.564C259.396 105.485 259.327 105.43 259.249 105.41C259.171 105.39 259.09 105.407 259.022 105.457C256.236 107.577 252.865 112.551 251.841 120.156C251.103 125.708 252.579 134.501 254.028 137.908Z" fill="white"/>
<path d="M257.197 121.847C258.723 126.277 258.716 128.446 256.229 128.9C253.986 129.296 251.263 132.521 253.791 137.759L268.585 146.948C268.622 145.969 268.827 145.009 269.186 144.125C269.545 143.242 270.052 142.454 270.675 141.809C273.106 138.93 275.348 136.761 275 133.56C274.652 130.36 272.305 127.275 271.915 124.487C271.525 121.699 272.723 120.107 275.279 116.98C277.835 113.854 280.154 109.004 276.741 106.793C273.329 104.583 269.421 108.369 267.791 110.918C266.161 113.467 264.671 114.588 261.46 114.374C258.249 114.159 255.672 117.418 257.197 121.847Z" fill="#3638DA"/>
<path d="M261.383 142.477C261.313 128.883 269.539 112.963 274.115 109.746C274.183 109.695 274.231 109.615 274.251 109.523C274.27 109.431 274.259 109.334 274.22 109.251C274.178 109.172 274.112 109.115 274.035 109.092C273.959 109.069 273.878 109.082 273.809 109.128C269.17 112.427 260.875 128.355 260.784 142.123L261.383 142.477Z" fill="white"/>
<path d="M263.584 128.347C263.521 128.364 263.455 128.356 263.397 128.323C263.339 128.29 263.292 128.234 263.264 128.166C261.935 125.23 260.817 122.167 259.921 119.01C259.909 118.965 259.904 118.918 259.908 118.872C259.911 118.826 259.922 118.78 259.94 118.739C259.958 118.698 259.983 118.661 260.013 118.631C260.043 118.601 260.078 118.578 260.116 118.564C260.153 118.55 260.193 118.545 260.232 118.549C260.271 118.553 260.309 118.566 260.344 118.587C260.379 118.609 260.41 118.638 260.435 118.674C260.461 118.71 260.48 118.751 260.492 118.795C261.379 121.909 262.484 124.93 263.793 127.828C263.83 127.912 263.838 128.01 263.815 128.101C263.791 128.192 263.738 128.269 263.668 128.314L263.584 128.347Z" fill="white"/>
<path d="M261.606 136.678C261.549 136.691 261.49 136.684 261.436 136.66C261.382 136.635 261.335 136.593 261.299 136.538C261.254 136.459 261.236 136.362 261.25 136.268C261.265 136.174 261.31 136.09 261.376 136.035C264.375 133.548 268.015 132.381 271.664 132.735C271.743 132.747 271.815 132.796 271.864 132.871C271.913 132.946 271.935 133.041 271.925 133.135C271.915 133.229 271.873 133.315 271.81 133.373C271.747 133.431 271.666 133.457 271.587 133.445C268.093 133.13 264.613 134.239 261.724 136.588C261.69 136.627 261.65 136.658 261.606 136.678Z" fill="white"/>
<path d="M174.193 53.6389L157.219 42.033L140.252 53.6389L157.219 65.2449L174.193 53.6389Z" fill="#F5F5F5"/>
<path d="M157.219 88.4653L174.193 76.8594V53.6392L157.219 65.2451V88.4653Z" fill="#EBEBEB"/>
<path d="M160.493 80.761C160.403 80.7629 160.314 80.7373 160.235 80.6867C160.127 80.593 160.04 80.468 159.984 80.3236C159.928 80.1792 159.904 80.0203 159.914 79.8619V77.3872V77.2058H160.019L161.649 76.0757V78.8225C161.647 79.1763 161.573 79.5242 161.433 79.8371C161.294 80.1501 161.093 80.4188 160.848 80.6207C160.742 80.705 160.62 80.7535 160.493 80.761ZM160.179 77.5687V79.8454C160.168 79.9513 160.179 80.059 160.212 80.1585C160.244 80.258 160.298 80.346 160.367 80.4145C160.424 80.4444 160.486 80.4555 160.547 80.4468C160.608 80.4381 160.667 80.4098 160.715 80.365C160.924 80.1927 161.096 79.9649 161.217 79.6999C161.338 79.4349 161.404 79.1401 161.412 78.839V78.641H160.806L160.688 77.6759L160.179 77.5687ZM161.015 78.3276H161.391V76.6366L160.416 77.3048L160.897 77.412L161.015 78.3276Z" fill="white"/>
<path d="M160.786 82.7233C160.75 82.7233 160.717 82.7068 160.692 82.6774C160.667 82.648 160.653 82.6081 160.653 82.5666V80.5044C160.652 80.4835 160.654 80.4626 160.661 80.443C160.667 80.4235 160.677 80.4057 160.689 80.3909C160.702 80.3761 160.717 80.3646 160.734 80.3571C160.75 80.3497 160.768 80.3465 160.786 80.3477C160.821 80.3477 160.855 80.3642 160.88 80.3936C160.905 80.423 160.919 80.4628 160.919 80.5044V82.5336C160.922 82.5565 160.921 82.58 160.915 82.6024C160.91 82.6248 160.901 82.6456 160.888 82.6635C160.876 82.6814 160.86 82.696 160.842 82.7063C160.825 82.7166 160.805 82.7224 160.786 82.7233Z" fill="white"/>
<path d="M160.026 83.2439C160.003 83.2437 159.98 83.2359 159.96 83.2213C159.941 83.2068 159.925 83.186 159.914 83.1614C159.905 83.1445 159.898 83.1254 159.896 83.1052C159.893 83.0851 159.894 83.0645 159.898 83.0449C159.903 83.0253 159.911 83.0071 159.922 82.9916C159.934 82.9761 159.948 82.9637 159.963 82.9552L161.475 81.9158C161.49 81.9055 161.506 81.8988 161.524 81.8961C161.541 81.8934 161.558 81.8948 161.575 81.9002C161.592 81.9055 161.608 81.9148 161.622 81.9274C161.636 81.94 161.647 81.9557 161.656 81.9736C161.672 82.0101 161.675 82.0523 161.666 82.092C161.657 82.1317 161.636 82.1659 161.607 82.188L160.089 83.2191L160.026 83.2439Z" fill="white"/>
<path d="M165.431 79.6802C165.383 79.6975 165.332 79.6975 165.285 79.6802C165.234 79.6398 165.193 79.5842 165.166 79.519C165.139 79.4538 165.127 79.3814 165.132 79.3091V78.8884C165.131 78.8682 165.133 78.848 165.139 78.829C165.145 78.81 165.154 78.7927 165.166 78.778C165.177 78.7633 165.192 78.7516 165.207 78.7437C165.223 78.7357 165.24 78.7316 165.257 78.7316C165.275 78.7304 165.292 78.7337 165.309 78.7411C165.325 78.7486 165.34 78.7601 165.353 78.7749C165.365 78.7897 165.375 78.8075 165.381 78.827C165.388 78.8466 165.39 78.8675 165.389 78.8884V79.2348C165.389 79.3008 165.389 79.3338 165.389 79.3338C165.389 79.3338 165.431 79.3338 165.473 79.3338C165.554 79.2466 165.618 79.1393 165.66 79.0196C165.702 78.8998 165.721 78.7705 165.717 78.6409V75.9353C165.717 75.9151 165.72 75.8951 165.727 75.8765C165.733 75.858 165.743 75.8412 165.756 75.8273C165.768 75.8134 165.783 75.8026 165.799 75.7957C165.815 75.7887 165.832 75.7857 165.849 75.7869C165.882 75.7869 165.914 75.8025 165.938 75.8303C165.961 75.8582 165.974 75.8959 165.974 75.9353V78.6904C165.98 78.874 165.949 79.0566 165.885 79.224C165.821 79.3914 165.725 79.539 165.605 79.6555C165.549 79.6767 165.49 79.6851 165.431 79.6802Z" fill="white"/>
<path d="M164.052 77.2798V77.0158C164.084 76.3288 164.252 75.6605 164.543 75.0645C164.833 74.4685 165.237 73.9615 165.723 73.5843C165.897 73.4111 166.112 73.3054 166.338 73.2815C166.565 73.2577 166.792 73.3169 166.989 73.4511C167.186 73.5853 167.343 73.788 167.439 74.0317C167.536 74.2754 167.566 74.5483 167.527 74.8134V74.9041L164.052 77.2798ZM166.503 73.6173C166.273 73.6259 166.049 73.7086 165.856 73.8566C165.442 74.1797 165.091 74.6036 164.827 75.1001C164.563 75.5965 164.391 76.154 164.323 76.7354L167.263 74.7309C167.274 74.5362 167.242 74.3414 167.172 74.1652C167.101 73.989 166.993 73.8373 166.859 73.7246C166.75 73.6519 166.628 73.6149 166.503 73.6173Z" fill="white"/>
<path d="M170.091 76.5127C170.057 76.5128 170.024 76.4974 170 76.4698C169.975 76.4421 169.96 76.4044 169.958 76.3643V71.1016C169.958 71.06 169.972 71.0201 169.997 70.9907C170.022 70.9613 170.056 70.9448 170.091 70.9448C170.127 70.9448 170.16 70.9613 170.185 70.9907C170.21 71.0201 170.224 71.06 170.224 71.1016V76.3643C170.223 76.4044 170.208 76.4421 170.183 76.4698C170.158 76.4974 170.125 76.5128 170.091 76.5127Z" fill="white"/>
<path d="M169.735 72.2978H169.687C169.671 72.2897 169.656 72.278 169.644 72.2632C169.632 72.2485 169.622 72.231 169.616 72.2118C169.609 72.1927 169.606 72.1722 169.606 72.1516C169.606 72.1309 169.61 72.1105 169.617 72.0916L170.084 70.8213L170.599 71.5307C170.61 71.5458 170.618 71.5634 170.624 71.5824C170.629 71.6014 170.631 71.6214 170.63 71.6413C170.628 71.6612 170.624 71.6807 170.616 71.6985C170.608 71.7163 170.598 71.7321 170.585 71.7451C170.572 71.7581 170.557 71.768 170.541 71.7742C170.525 71.7804 170.508 71.7828 170.492 71.7813C170.475 71.7798 170.458 71.7743 170.443 71.7653C170.428 71.7563 170.415 71.7438 170.404 71.7286L170.153 71.3987L169.854 72.2236C169.842 72.2479 169.825 72.2679 169.804 72.281C169.783 72.2941 169.759 72.3 169.735 72.2978Z" fill="white"/>
<path d="M171.324 75.7041C171.29 75.702 171.258 75.6846 171.235 75.6554C171.211 75.6263 171.198 75.5876 171.198 75.5474V70.2847C171.194 70.2617 171.193 70.2378 171.198 70.2148C171.202 70.1917 171.211 70.1701 171.223 70.1516C171.236 70.1331 171.252 70.1182 171.27 70.1079C171.288 70.0976 171.308 70.0923 171.328 70.0923C171.348 70.0923 171.367 70.0976 171.386 70.1079C171.404 70.1182 171.419 70.1331 171.432 70.1516C171.444 70.1701 171.453 70.1917 171.457 70.2148C171.462 70.2378 171.462 70.2617 171.457 70.2847V75.5474C171.457 75.589 171.443 75.6289 171.418 75.6582C171.393 75.6876 171.359 75.7041 171.324 75.7041Z" fill="white"/>
<path d="M170.94 71.4807H170.892C170.876 71.4726 170.861 71.4608 170.849 71.4461C170.837 71.4313 170.827 71.4139 170.821 71.3947C170.814 71.3755 170.811 71.3551 170.811 71.3344C170.811 71.3138 170.815 71.2934 170.822 71.2745L171.289 70.0042L171.804 70.7135C171.827 70.7426 171.84 70.7809 171.84 70.8208C171.84 70.8606 171.827 70.899 171.804 70.928C171.778 70.9558 171.745 70.9713 171.71 70.9713C171.675 70.9713 171.642 70.9558 171.616 70.928L171.372 70.5898L171.073 71.4147C171.058 71.4396 171.038 71.4591 171.015 71.4708C170.991 71.4825 170.965 71.4859 170.94 71.4807Z" fill="white"/>
<path d="M157.219 88.4653L140.245 76.8594L140.252 53.6392L157.219 65.2451V88.4653Z" fill="#E0E0E0"/>
<path d="M149.655 60.0728L166.615 48.4585L164.699 47.147L147.732 58.7612L149.655 60.0728Z" fill="white"/>
<path d="M142.822 66.9527L148.902 71.077C149.252 71.3499 149.543 71.7157 149.752 72.1453C149.962 72.575 150.083 73.0565 150.107 73.5517V77.9895C150.107 78.9051 149.564 79.2763 148.902 78.8144L142.822 74.69C142.472 74.4176 142.18 74.0519 141.971 73.6222C141.762 73.1925 141.641 72.7107 141.617 72.2154V67.7776C141.617 66.8619 142.16 66.499 142.822 66.9527Z" fill="#BA68C8"/>
<path d="M142.355 68.0579L142.586 68.2228V73.1473L142.355 72.9906V68.0579Z" fill="#BA68C8"/>
<path d="M143.296 68.7012L143.693 68.9816V73.9061L143.296 73.6339V68.7012Z" fill="#BA68C8"/>
<path d="M144.236 69.3442L144.467 69.501V74.4337L144.236 74.277V69.3442Z" fill="#BA68C8"/>
<path d="M144.939 69.823L145.406 70.1447V75.0775L144.939 74.7475V69.823Z" fill="#BA68C8"/>
<path d="M146.11 70.6311L146.348 70.7878V75.7206L146.11 75.5556V70.6311Z" fill="#BA68C8"/>
<path d="M146.792 71.085L147.28 71.4314V76.3559L146.785 76.0095L146.792 71.085Z" fill="#BA68C8"/>
<path d="M147.99 71.918L148.221 72.0747V76.9992L147.99 76.8425V71.918Z" fill="#BA68C8"/>
<path d="M148.526 72.2722L148.645 72.3547V77.2792L148.526 77.205V72.2722Z" fill="#BA68C8"/>
<path d="M147.565 71.6458L147.677 71.7282V76.6527L147.565 76.5785V71.6458Z" fill="#BA68C8"/>
<path d="M145.671 70.334L145.783 70.4082V75.341L145.671 75.2585V70.334Z" fill="#BA68C8"/>
<path d="M144.633 69.625L144.752 69.7075V74.6402L144.633 74.5577V69.625Z" fill="#BA68C8"/>
<path d="M143.888 69.1384L144.007 69.2209V74.1537L143.888 74.0712V69.1384Z" fill="#BA68C8"/>
<path d="M142.878 68.4124L142.997 68.4948V73.4276L142.878 73.3451V68.4124Z" fill="#BA68C8"/>
<path d="M148.93 72.5537L149.161 72.7104V77.6432L148.93 77.4865V72.5537Z" fill="#BA68C8"/>
<path d="M151.563 49.7703L131.754 36.2341L111.952 49.7703L131.754 63.3147L151.563 49.7703Z" fill="#F5F5F5"/>
<path d="M123.264 57.5076L143.073 43.9715L141.15 42.6599L121.348 56.1961L123.264 57.5076Z" fill="white"/>
<path d="M131.754 105.87L151.563 92.3338V49.7703L131.754 63.3147V105.87Z" fill="#EBEBEB"/>
<path d="M135.028 98.207C134.937 98.2088 134.848 98.1802 134.77 98.1245C134.66 98.0324 134.573 97.9077 134.517 97.7629C134.46 97.6181 134.437 97.4583 134.45 97.2996V94.825V94.6435H134.561L136.184 93.5134V96.2603C136.181 96.6138 136.106 96.9612 135.967 97.2739C135.828 97.5866 135.628 97.8556 135.383 98.0585C135.278 98.1457 135.156 98.197 135.028 98.207ZM134.714 95.0147V97.2914C134.703 97.3973 134.714 97.505 134.747 97.6045C134.78 97.704 134.833 97.792 134.903 97.8605C134.959 97.8904 135.021 97.9015 135.082 97.8928C135.144 97.8841 135.202 97.8558 135.251 97.811C135.459 97.6387 135.631 97.4109 135.752 97.1459C135.873 96.8809 135.94 96.5861 135.947 96.285V96.087H135.341L135.223 95.1219L134.714 95.0147ZM135.55 95.7736H135.961V94.0826L134.986 94.759L135.467 94.858L135.55 95.7736Z" fill="white"/>
<path d="M135.321 100.137C135.286 100.137 135.252 100.12 135.227 100.091C135.202 100.062 135.188 100.022 135.188 99.9801V97.9097C135.188 97.8895 135.191 97.8695 135.198 97.8509C135.205 97.8323 135.215 97.8156 135.227 97.8017C135.24 97.7878 135.254 97.777 135.271 97.7701C135.287 97.7631 135.304 97.7601 135.321 97.7612C135.355 97.7612 135.388 97.7765 135.413 97.8042C135.437 97.8318 135.452 97.8696 135.454 97.9097V99.9801C135.452 100.021 135.438 100.06 135.413 100.089C135.389 100.118 135.356 100.135 135.321 100.137Z" fill="white"/>
<path d="M134.568 100.682C134.546 100.682 134.523 100.676 134.504 100.663C134.484 100.65 134.468 100.631 134.457 100.607C134.441 100.571 134.437 100.529 134.446 100.489C134.455 100.449 134.476 100.415 134.505 100.393L136.017 99.3619C136.032 99.3515 136.049 99.3448 136.066 99.3422C136.083 99.3395 136.101 99.3408 136.118 99.3462C136.134 99.3516 136.15 99.3608 136.164 99.3734C136.178 99.386 136.189 99.4017 136.198 99.4196C136.207 99.4369 136.212 99.456 136.214 99.4758C136.217 99.4956 136.215 99.5158 136.211 99.535C136.206 99.5543 136.198 99.5723 136.188 99.5879C136.177 99.6035 136.164 99.6164 136.149 99.6258L134.631 100.665C134.612 100.678 134.59 100.684 134.568 100.682Z" fill="white"/>
<path d="M139.966 97.0934C139.915 97.0936 139.865 97.0795 139.82 97.0522C139.769 97.0118 139.728 96.9561 139.701 96.891C139.674 96.8258 139.662 96.7534 139.667 96.681V96.2521C139.667 96.2319 139.67 96.2119 139.677 96.1933C139.684 96.1747 139.693 96.158 139.706 96.1441C139.718 96.1302 139.733 96.1194 139.749 96.1124C139.765 96.1055 139.782 96.1025 139.799 96.1036C139.815 96.1036 139.832 96.1074 139.847 96.1149C139.862 96.1224 139.876 96.1333 139.888 96.1471C139.899 96.1609 139.909 96.1772 139.915 96.1953C139.921 96.2133 139.924 96.2326 139.924 96.2521V96.681C139.924 96.7387 139.924 96.7718 139.924 96.78C139.924 96.7882 139.966 96.78 140.008 96.78C140.089 96.6912 140.153 96.5825 140.195 96.4613C140.237 96.3402 140.257 96.2097 140.252 96.0789V93.332C140.252 93.2905 140.266 93.2506 140.291 93.2212C140.315 93.1918 140.349 93.1753 140.384 93.1753C140.419 93.1773 140.451 93.1945 140.476 93.2234C140.5 93.2524 140.515 93.2911 140.516 93.332V96.0789C140.523 96.2635 140.492 96.4474 140.427 96.6153C140.361 96.7831 140.263 96.9301 140.14 97.044C140.086 97.0759 140.027 97.0929 139.966 97.0934Z" fill="white"/>
<path d="M138.587 94.6929V94.4207C138.62 93.735 138.788 93.068 139.079 92.4734C139.369 91.8789 139.773 91.3733 140.259 90.9974C140.433 90.8242 140.647 90.7185 140.874 90.6946C141.1 90.6708 141.327 90.73 141.524 90.8642C141.721 90.9983 141.878 91.201 141.975 91.4448C142.071 91.6885 142.102 91.9614 142.063 92.2265V92.3172L138.587 94.6929ZM141.039 91.0222C140.809 91.0346 140.586 91.117 140.391 91.2614C139.977 91.5854 139.625 92.0106 139.361 92.5086C139.097 93.0065 138.926 93.5657 138.859 94.1485L141.798 92.144C141.808 91.9483 141.777 91.7526 141.706 91.5752C141.635 91.3978 141.528 91.2445 141.394 91.1294C141.285 91.0592 141.163 91.0223 141.039 91.0222Z" fill="white"/>
<path d="M144.654 93.9258C144.619 93.9258 144.585 93.9092 144.56 93.8798C144.535 93.8505 144.521 93.8106 144.521 93.769V88.5063C144.521 88.4648 144.535 88.4249 144.56 88.3955C144.585 88.3661 144.619 88.3496 144.654 88.3496C144.69 88.3496 144.724 88.3661 144.749 88.3955C144.774 88.4249 144.788 88.4648 144.788 88.5063V93.769C144.788 93.8106 144.774 93.8505 144.749 93.8798C144.724 93.9092 144.69 93.9258 144.654 93.9258Z" fill="white"/>
<path d="M144.271 89.71H144.222C144.206 89.7027 144.192 89.6918 144.179 89.6778C144.167 89.6638 144.158 89.6471 144.151 89.6286C144.145 89.6101 144.141 89.5902 144.142 89.5702C144.142 89.5502 144.145 89.5304 144.152 89.512L144.619 88.2417L145.134 88.9511C145.156 88.9817 145.167 89.0215 145.165 89.0617C145.162 89.102 145.146 89.1393 145.12 89.1656C145.094 89.1918 145.061 89.2048 145.027 89.2017C144.993 89.1986 144.961 89.1797 144.939 89.1491L144.688 88.8109L144.389 89.6357C144.377 89.6601 144.36 89.68 144.339 89.6932C144.318 89.7063 144.294 89.7121 144.271 89.71Z" fill="white"/>
<path d="M145.859 93.1096C145.826 93.1096 145.794 93.094 145.77 93.0661C145.747 93.0383 145.733 93.0005 145.733 92.9612V87.6985C145.732 87.6783 145.735 87.6581 145.741 87.6391C145.747 87.6201 145.756 87.6028 145.768 87.5881C145.78 87.5734 145.794 87.5618 145.809 87.5538C145.825 87.5458 145.842 87.5417 145.859 87.5417C145.877 87.5406 145.895 87.5438 145.911 87.5512C145.928 87.5587 145.943 87.5702 145.956 87.585C145.968 87.5998 145.978 87.6175 145.984 87.6371C145.991 87.6567 145.993 87.6776 145.992 87.6985V92.9612C145.992 92.9814 145.989 93.0014 145.982 93.02C145.975 93.0385 145.966 93.0553 145.953 93.0692C145.941 93.0831 145.926 93.0938 145.91 93.1008C145.894 93.1078 145.877 93.1108 145.859 93.1096Z" fill="white"/>
<path d="M145.483 88.894H145.427C145.396 88.8761 145.371 88.845 145.358 88.8069C145.346 88.7687 145.345 88.7263 145.357 88.6878L145.824 87.4175L146.346 88.1269C146.368 88.1568 146.38 88.1948 146.38 88.2341C146.38 88.2734 146.368 88.3115 146.346 88.3413C146.334 88.356 146.319 88.3677 146.303 88.3757C146.287 88.3837 146.27 88.3878 146.252 88.3878C146.235 88.3878 146.217 88.3837 146.201 88.3757C146.185 88.3677 146.171 88.356 146.158 88.3413L145.914 88.0031L145.615 88.828C145.601 88.8537 145.581 88.8739 145.558 88.8857C145.534 88.8975 145.508 88.9004 145.483 88.894Z" fill="white"/>
<path d="M131.754 105.87L111.952 92.3338V49.7703L131.754 63.3147V105.87Z" fill="#E0E0E0"/>
<path d="M115.978 83.4832L122.052 87.6076C122.403 87.879 122.696 88.2443 122.906 88.6741C123.117 89.1039 123.239 89.5862 123.264 90.0822V94.5283C123.264 95.4356 122.72 95.8068 122.052 95.3531L115.978 91.2288C115.627 90.9578 115.335 90.5925 115.125 90.1625C114.916 89.7324 114.795 89.2499 114.773 88.7541V84.3163C114.773 83.3595 115.316 83.0295 115.978 83.4832Z" fill="#F5F5F5"/>
<path d="M115.511 84.5884L115.742 84.7534V89.6778L115.511 89.5211V84.5884Z" fill="#E0E0E0"/>
<path d="M116.452 85.2314L116.849 85.5119V90.4446L116.452 90.1642V85.2314Z" fill="#E0E0E0"/>
<path d="M117.385 85.8748L117.623 86.0315L117.616 90.9642L117.385 90.8075V85.8748Z" fill="#E0E0E0"/>
<path d="M118.096 86.3535L118.555 86.6752V91.608L118.096 91.278V86.3535Z" fill="#E0E0E0"/>
<path d="M119.266 87.1616L119.497 87.3183V92.2511L119.266 92.0861V87.1616Z" fill="#E0E0E0"/>
<path d="M119.941 87.6155L120.436 87.9619V92.8864L119.941 92.54V87.6155Z" fill="#E0E0E0"/>
<path d="M121.146 88.4402L121.378 88.6052V93.5297L121.146 93.3729V88.4402Z" fill="#E0E0E0"/>
<path d="M121.682 88.8032L121.802 88.8857V93.8184L121.682 93.736V88.8032Z" fill="#E0E0E0"/>
<path d="M120.721 88.1763L120.833 88.2588V93.1833L120.721 93.109V88.1763Z" fill="#E0E0E0"/>
<path d="M118.827 86.865L118.939 86.9392V91.872L118.827 91.7895V86.865Z" fill="#E0E0E0"/>
<path d="M117.789 86.1555L117.901 86.238V91.1708L117.789 91.0883V86.1555Z" fill="#E0E0E0"/>
<path d="M117.044 85.6689L117.163 85.7514V90.6842L117.044 90.6017V85.6689Z" fill="#E0E0E0"/>
<path d="M116.034 84.9431L116.153 85.0256V89.9583L116.034 89.8759V84.9431Z" fill="#E0E0E0"/>
<path d="M122.086 89.0842L122.318 89.241V94.1737L122.086 94.017V89.0842Z" fill="#E0E0E0"/>
<path d="M121.348 61.6897L123.264 63.0013V57.5076L121.348 56.196V61.6897Z" fill="#F0F0F0"/>
<path d="M92.1432 94.2642L77.997 84.5967L58.1949 98.1329L72.3412 107.809L92.1432 94.2642Z" fill="#F5F5F5"/>
<path d="M72.3414 146.495L92.1434 132.959V94.2639L72.3414 107.808V146.495Z" fill="#EBEBEB"/>
<path d="M75.6079 138.799C75.5193 138.801 75.4321 138.772 75.3571 138.716C75.2478 138.624 75.1607 138.499 75.1045 138.354C75.0483 138.21 75.025 138.05 75.0367 137.891V135.417V135.235H75.1412L76.7711 134.105V136.852C76.7676 137.206 76.6932 137.553 76.5539 137.866C76.4146 138.178 76.2145 138.447 75.9701 138.65C75.8625 138.737 75.7375 138.788 75.6079 138.799ZM75.3014 135.606V137.883C75.2884 137.989 75.299 138.097 75.3319 138.197C75.3649 138.297 75.4192 138.385 75.4895 138.452C75.5464 138.479 75.6081 138.488 75.6689 138.48C75.7297 138.471 75.7877 138.445 75.8377 138.403C76.0463 138.23 76.2179 138.003 76.3389 137.738C76.4598 137.473 76.5267 137.178 76.5342 136.877V136.679H75.9283L75.8099 135.714L75.3014 135.606ZM76.1372 136.365H76.5133V134.666L75.5382 135.343L76.0188 135.442L76.1372 136.365Z" fill="white"/>
<path d="M75.9081 140.762C75.8728 140.762 75.8389 140.746 75.814 140.716C75.789 140.687 75.775 140.647 75.775 140.605V138.535C75.775 138.515 75.7785 138.495 75.7853 138.476C75.792 138.458 75.8019 138.441 75.8144 138.427C75.8268 138.413 75.8416 138.402 75.8577 138.395C75.8738 138.388 75.8909 138.385 75.9081 138.386C75.9415 138.386 75.9736 138.402 75.9972 138.43C76.0208 138.458 76.0341 138.496 76.0341 138.535V140.605C76.0342 140.646 76.0211 140.684 75.9977 140.713C75.9742 140.743 75.9421 140.76 75.9081 140.762Z" fill="white"/>
<path d="M75.1483 141.273C75.1257 141.275 75.1032 141.269 75.0834 141.255C75.0637 141.242 75.0475 141.223 75.0369 141.199C75.0269 141.182 75.02 141.163 75.0167 141.142C75.0134 141.122 75.0137 141.101 75.0176 141.081C75.0216 141.061 75.029 141.042 75.0395 141.025C75.05 141.008 75.0634 140.995 75.0787 140.985L76.5971 139.953C76.6122 139.943 76.6288 139.936 76.6461 139.934C76.6634 139.931 76.6809 139.932 76.6977 139.938C76.7146 139.943 76.7303 139.952 76.7441 139.965C76.7579 139.978 76.7695 139.993 76.7782 140.011C76.7867 140.028 76.7923 140.048 76.7945 140.067C76.7967 140.087 76.7954 140.107 76.7909 140.127C76.7863 140.146 76.7785 140.164 76.768 140.179C76.7574 140.195 76.7443 140.208 76.7294 140.217L75.211 141.257C75.1921 141.27 75.1702 141.276 75.1483 141.273Z" fill="white"/>
<path d="M80.553 137.719C80.5022 137.719 80.4521 137.705 80.4068 137.677C80.3559 137.637 80.315 137.581 80.2881 137.516C80.2612 137.451 80.2493 137.378 80.2535 137.306V136.877C80.2535 136.838 80.2667 136.8 80.2903 136.772C80.3138 136.744 80.3457 136.729 80.3789 136.729C80.3959 136.728 80.413 136.731 80.429 136.738C80.4451 136.744 80.4597 136.755 80.4721 136.769C80.4845 136.783 80.4944 136.8 80.5011 136.818C80.5078 136.837 80.5113 136.857 80.5112 136.877V137.306C80.5112 137.364 80.5112 137.397 80.5112 137.405C80.5112 137.413 80.553 137.405 80.5948 137.405C80.6747 137.315 80.7376 137.206 80.7796 137.085C80.8216 136.964 80.8417 136.834 80.8386 136.704V133.957C80.8341 133.934 80.834 133.91 80.8383 133.887C80.8427 133.864 80.8514 133.843 80.8638 133.824C80.8762 133.805 80.8919 133.791 80.9099 133.78C80.9278 133.77 80.9475 133.765 80.9675 133.765C80.9874 133.765 81.0071 133.77 81.025 133.78C81.043 133.791 81.0588 133.805 81.0712 133.824C81.0836 133.843 81.0922 133.864 81.0966 133.887C81.101 133.91 81.1009 133.934 81.0963 133.957V136.704C81.1021 136.888 81.0717 137.07 81.0076 137.238C80.9436 137.405 80.8476 137.553 80.7272 137.669C80.6731 137.701 80.6135 137.718 80.553 137.719Z" fill="white"/>
<path d="M79.1741 135.326V135.054C79.2071 134.368 79.3755 133.701 79.6659 133.106C79.9562 132.512 80.3603 132.006 80.8457 131.631C81.0187 131.455 81.2333 131.348 81.4599 131.323C81.6866 131.299 81.9141 131.358 82.1112 131.493C82.3083 131.627 82.4652 131.831 82.5604 132.076C82.6556 132.321 82.6844 132.595 82.6427 132.86V132.95L79.1741 135.326ZM81.6258 131.655C81.3961 131.668 81.173 131.75 80.9781 131.894C80.5636 132.218 80.2124 132.644 79.9481 133.142C79.6839 133.64 79.5125 134.199 79.4457 134.782L82.385 132.769C82.3948 132.574 82.3629 132.38 82.2923 132.204C82.2217 132.028 82.1146 131.876 81.981 131.762C81.8747 131.691 81.7551 131.651 81.6328 131.647L81.6258 131.655Z" fill="white"/>
<path d="M85.2415 134.551C85.2062 134.551 85.1724 134.534 85.1474 134.505C85.1225 134.475 85.1085 134.436 85.1085 134.394V129.131C85.1085 129.09 85.1225 129.05 85.1474 129.021C85.1724 128.991 85.2062 128.975 85.2415 128.975C85.2768 128.975 85.3106 128.991 85.3356 129.021C85.3605 129.05 85.3745 129.09 85.3745 129.131V134.394C85.3745 134.436 85.3605 134.475 85.3356 134.505C85.3106 134.534 85.2768 134.551 85.2415 134.551Z" fill="white"/>
<path d="M84.8575 130.377H84.8088C84.793 130.37 84.7786 130.359 84.7665 130.345C84.7544 130.331 84.7448 130.314 84.7383 130.296C84.7318 130.277 84.7285 130.257 84.7286 130.237C84.7288 130.217 84.7324 130.197 84.7391 130.179L85.2058 128.909L85.7212 129.618C85.7434 129.649 85.7544 129.689 85.7518 129.729C85.7492 129.769 85.7332 129.806 85.7073 129.833C85.6945 129.846 85.6797 129.855 85.6636 129.862C85.6476 129.868 85.6307 129.87 85.6139 129.869C85.5799 129.866 85.5484 129.847 85.5262 129.816L85.2755 129.478L84.976 130.303C84.9642 130.327 84.9468 130.347 84.9258 130.36C84.9049 130.373 84.8812 130.379 84.8575 130.377Z" fill="white"/>
<path d="M86.4463 133.734C86.4122 133.734 86.3794 133.719 86.3546 133.691C86.3298 133.663 86.315 133.626 86.3132 133.585V128.323C86.3132 128.281 86.3272 128.241 86.3522 128.212C86.3772 128.183 86.411 128.166 86.4463 128.166C86.464 128.165 86.4818 128.168 86.4984 128.175C86.515 128.183 86.5301 128.194 86.5426 128.209C86.5552 128.224 86.5649 128.242 86.5713 128.261C86.5776 128.281 86.5803 128.302 86.5793 128.323V133.585C86.5794 133.606 86.5759 133.626 86.5691 133.644C86.5623 133.663 86.5524 133.68 86.54 133.693C86.5275 133.707 86.5128 133.718 86.4967 133.725C86.4806 133.732 86.4634 133.735 86.4463 133.734Z" fill="white"/>
<path d="M86.0626 129.552C86.0468 129.559 86.0295 129.559 86.0138 129.552C85.998 129.545 85.9836 129.534 85.9715 129.52C85.9594 129.506 85.9498 129.489 85.9433 129.471C85.9368 129.452 85.9335 129.432 85.9337 129.412C85.9338 129.392 85.9374 129.372 85.9442 129.354L86.4108 128.084L86.9263 128.793C86.9493 128.822 86.9621 128.861 86.9621 128.9C86.9621 128.94 86.9493 128.979 86.9263 129.008C86.9139 129.022 86.8993 129.034 86.8832 129.042C86.867 129.05 86.8497 129.054 86.8322 129.054C86.8147 129.054 86.7974 129.05 86.7813 129.042C86.7651 129.034 86.7505 129.022 86.7382 129.008L86.4944 128.669L86.1949 129.494C86.1797 129.518 86.1592 129.536 86.1358 129.546C86.1124 129.556 86.087 129.558 86.0626 129.552Z" fill="white"/>
<path d="M72.3412 146.495L58.1949 136.827V98.1326L72.3412 107.808V146.495Z" fill="#E0E0E0"/>
<path d="M64.7631 108.122L66.6785 109.434V103.94L64.7631 102.629V108.122Z" fill="#F5F5F5"/>
<path d="M66.6785 103.94L86.4875 90.3958L84.5651 89.0842L64.7631 102.629L66.6785 103.94Z" fill="white"/>
<path d="M66.6784 127.152L41.2207 109.747L15.756 127.152L41.2207 144.565L66.6784 127.152Z" fill="#F5F5F5"/>
<path d="M41.2208 167.777L66.6786 150.372V127.152L41.2208 144.565V167.777Z" fill="#EBEBEB"/>
<path d="M44.4875 160.072C44.3994 160.07 44.3131 160.042 44.2368 159.99C44.1279 159.897 44.0412 159.772 43.9851 159.627C43.929 159.483 43.9053 159.324 43.9164 159.165V156.69V156.509H44.0208L45.6507 155.371V158.126C45.6462 158.478 45.5712 158.824 45.432 159.135C45.2927 159.446 45.0932 159.714 44.8497 159.916C44.7425 160.004 44.6177 160.058 44.4875 160.072ZM44.1741 156.88V159.157C44.1617 159.262 44.1725 159.368 44.2055 159.467C44.2384 159.565 44.2924 159.652 44.3621 159.718C44.4191 159.749 44.482 159.761 44.5444 159.754C44.6068 159.746 44.6665 159.72 44.7173 159.676C44.9252 159.503 45.0962 159.275 45.2171 159.01C45.3379 158.746 45.4053 158.451 45.4139 158.15V157.944H44.787L44.6686 156.979L44.1741 156.88ZM45.0099 157.639H45.4139V155.948L44.4457 156.624L44.9263 156.723L45.0099 157.639Z" fill="white"/>
<path d="M44.7807 162.036C44.7641 162.036 44.7477 162.032 44.7324 162.025C44.7171 162.017 44.7032 162.006 44.6915 161.992C44.6798 161.979 44.6705 161.962 44.6642 161.944C44.6579 161.926 44.6546 161.907 44.6546 161.887V159.817C44.6501 159.794 44.65 159.77 44.6543 159.747C44.6587 159.724 44.6675 159.702 44.6799 159.684C44.6924 159.665 44.7082 159.65 44.7263 159.64C44.7443 159.63 44.7641 159.625 44.7842 159.625C44.8042 159.625 44.824 159.63 44.8421 159.64C44.8601 159.65 44.876 159.665 44.8884 159.684C44.9009 159.702 44.9096 159.724 44.914 159.747C44.9184 159.77 44.9183 159.794 44.9137 159.817V161.887C44.9137 161.908 44.9103 161.928 44.9035 161.946C44.8967 161.965 44.8868 161.982 44.8744 161.995C44.8619 162.009 44.8472 162.02 44.8311 162.027C44.8149 162.034 44.7978 162.037 44.7807 162.036Z" fill="white"/>
<path d="M44.0207 162.546C43.9928 162.544 43.9662 162.532 43.9447 162.511C43.9231 162.49 43.9078 162.461 43.9008 162.429C43.8939 162.397 43.8957 162.363 43.9059 162.332C43.9162 162.302 43.9345 162.276 43.958 162.258L45.4764 161.227C45.4903 161.215 45.506 161.207 45.5227 161.203C45.5394 161.199 45.5565 161.2 45.5731 161.204C45.5896 161.209 45.6051 161.218 45.6184 161.23C45.6318 161.243 45.6428 161.258 45.6506 161.276C45.6606 161.293 45.6675 161.313 45.6708 161.333C45.6741 161.353 45.6738 161.374 45.6698 161.394C45.6659 161.415 45.6584 161.434 45.6479 161.45C45.6374 161.467 45.6241 161.481 45.6088 161.491L44.0904 162.546H44.0207Z" fill="white"/>
<path d="M49.4257 159C49.3798 159.012 49.3323 159.012 49.2864 159C49.2332 158.96 49.1902 158.903 49.162 158.836C49.1337 158.769 49.1214 158.695 49.1262 158.62V158.2C49.1262 158.158 49.1401 158.118 49.165 158.089C49.1898 158.059 49.2234 158.043 49.2585 158.043C49.2936 158.043 49.3273 158.059 49.3521 158.089C49.3769 158.118 49.3909 158.158 49.3909 158.2V158.62C49.3813 158.655 49.3813 158.693 49.3909 158.727C49.3909 158.727 49.4327 158.727 49.4814 158.727C49.56 158.637 49.6217 158.527 49.6625 158.407C49.7033 158.286 49.7223 158.156 49.7182 158.026V155.28C49.7199 155.239 49.7344 155.2 49.7589 155.171C49.7833 155.142 49.816 155.125 49.8506 155.123C49.8857 155.123 49.9193 155.139 49.9442 155.169C49.969 155.198 49.9829 155.238 49.9829 155.28V158.026C49.9887 158.21 49.9583 158.393 49.8942 158.56C49.8302 158.728 49.7342 158.875 49.6138 158.991C49.5525 159.012 49.4881 159.015 49.4257 159Z" fill="white"/>
<path d="M48.0536 156.6V156.328C48.0839 155.641 48.2512 154.973 48.5418 154.378C48.8324 153.783 49.238 153.278 49.7253 152.905C49.8983 152.73 50.1129 152.622 50.3395 152.598C50.5661 152.573 50.7937 152.632 50.9907 152.767C51.1878 152.902 51.3448 153.105 51.44 153.35C51.5352 153.595 51.5639 153.869 51.5223 154.134V154.224L48.0536 156.6ZM50.5054 152.929C50.2737 152.943 50.0487 153.026 49.8507 153.169C49.4375 153.493 49.0877 153.919 48.8246 154.417C48.5615 154.915 48.3913 155.474 48.3253 156.056L51.2576 154.043C51.2689 153.849 51.2383 153.655 51.1689 153.479C51.0994 153.303 50.9934 153.151 50.8606 153.037C50.7524 152.964 50.6298 152.927 50.5054 152.929Z" fill="white"/>
<path d="M54.1212 155.832C54.1034 155.834 54.0857 155.83 54.0691 155.823C54.0525 155.815 54.0374 155.804 54.0248 155.789C54.0123 155.774 54.0025 155.757 53.9962 155.737C53.9898 155.717 53.9871 155.696 53.9881 155.676V150.413C53.9835 150.39 53.9835 150.366 53.9878 150.343C53.9922 150.32 54.001 150.298 54.0134 150.28C54.0259 150.261 54.0417 150.246 54.0598 150.236C54.0778 150.226 54.0976 150.22 54.1177 150.22C54.1377 150.22 54.1575 150.226 54.1756 150.236C54.1936 150.246 54.2095 150.261 54.2219 150.28C54.2344 150.298 54.2431 150.32 54.2475 150.343C54.2519 150.366 54.2518 150.39 54.2472 150.413V155.676C54.2482 155.696 54.2456 155.716 54.2397 155.735C54.2338 155.754 54.2247 155.771 54.2129 155.786C54.2011 155.801 54.1868 155.812 54.1711 155.82C54.1553 155.828 54.1383 155.832 54.1212 155.832Z" fill="white"/>
<path d="M53.7719 151.618H53.7162C53.7002 151.61 53.6857 151.598 53.6737 151.583C53.6616 151.568 53.6524 151.55 53.6465 151.531C53.6406 151.511 53.6382 151.491 53.6394 151.47C53.6406 151.45 53.6454 151.43 53.6535 151.411L54.1132 150.141L54.6356 150.851C54.6587 150.882 54.6702 150.924 54.6676 150.965C54.665 151.007 54.6485 151.046 54.6217 151.073C54.5949 151.101 54.56 151.114 54.5248 151.111C54.4895 151.108 54.4567 151.088 54.4336 151.057L54.1899 150.719L53.8904 151.543C53.878 151.567 53.8605 151.587 53.8397 151.6C53.8189 151.613 53.7955 151.619 53.7719 151.618Z" fill="white"/>
<path d="M55.326 155.016C55.2908 155.016 55.2569 154.999 55.232 154.97C55.207 154.941 55.193 154.901 55.193 154.859V149.596C55.193 149.555 55.207 149.515 55.232 149.486C55.2569 149.456 55.2908 149.44 55.326 149.44C55.3613 149.44 55.3952 149.456 55.4201 149.486C55.4451 149.515 55.4591 149.555 55.4591 149.596V154.859C55.4591 154.901 55.4451 154.941 55.4201 154.97C55.3952 154.999 55.3613 155.016 55.326 155.016Z" fill="white"/>
<path d="M54.9421 150.801H54.8933C54.8775 150.794 54.8632 150.783 54.851 150.769C54.8389 150.755 54.8293 150.738 54.8228 150.719C54.8163 150.701 54.813 150.681 54.8132 150.661C54.8133 150.641 54.8169 150.621 54.8237 150.603L55.2903 149.324L55.8058 150.034C55.8182 150.048 55.8281 150.066 55.8348 150.085C55.8415 150.104 55.845 150.124 55.845 150.145C55.845 150.166 55.8415 150.186 55.8348 150.205C55.8281 150.224 55.8182 150.242 55.8058 150.256C55.7941 150.271 55.78 150.282 55.7644 150.29C55.7489 150.298 55.7321 150.302 55.7152 150.302C55.6983 150.302 55.6816 150.298 55.666 150.29C55.6504 150.282 55.6364 150.271 55.6247 150.256L55.3739 149.918L55.0744 150.743C55.0598 150.767 55.0394 150.786 55.0158 150.796C54.9922 150.806 54.9665 150.808 54.9421 150.801Z" fill="white"/>
<path d="M41.2207 167.777L15.756 150.372V127.152L41.2207 144.565V167.777Z" fill="#E0E0E0"/>
<path d="M27.5273 140.696L29.4428 142.008V136.514L27.5273 135.202V140.696Z" fill="#F5F5F5"/>
<path d="M29.4428 136.514L54.9075 119.109L52.992 117.789L27.5273 135.202L29.4428 136.514Z" fill="white"/>
<path d="M19.7889 141.521L25.8625 145.645C26.2139 145.916 26.5066 146.282 26.7171 146.711C26.9276 147.141 27.05 147.624 27.0745 148.12V152.566C27.0745 153.473 26.5312 153.844 25.8625 153.39L19.7889 149.266C19.4377 148.995 19.1454 148.63 18.936 148.2C18.7266 147.77 18.606 147.287 18.5839 146.791V142.354C18.5839 141.43 19.1272 141.1 19.7889 141.521Z" fill="#F5F5F5"/>
<path d="M19.3223 142.626L19.5534 142.783V147.716L19.3223 147.559V142.626Z" fill="#E0E0E0"/>
<path d="M20.2557 143.27L20.6597 143.55V148.475L20.2557 148.203V143.27Z" fill="#E0E0E0"/>
<path d="M21.1959 143.913L21.434 144.07L21.427 149.003L21.1959 148.846V143.913Z" fill="#E0E0E0"/>
<path d="M21.9064 144.392L22.3731 144.713L22.3661 149.646L21.9064 149.316V144.392Z" fill="#E0E0E0"/>
<path d="M23.0764 145.2L23.3075 145.357V150.289L23.0764 150.124V145.2Z" fill="#E0E0E0"/>
<path d="M23.7521 145.654L24.2466 146V150.925L23.7521 150.578V145.654Z" fill="#E0E0E0"/>
<path d="M24.9571 146.487L25.1882 146.644V151.568L24.9571 151.411V146.487Z" fill="#E0E0E0"/>
<path d="M25.4934 146.842L25.6124 146.924V151.849L25.4934 151.774V146.842Z" fill="#E0E0E0"/>
<path d="M24.5322 146.215L24.6443 146.289V151.222L24.5322 151.147V146.215Z" fill="#E0E0E0"/>
<path d="M22.6379 144.903L22.7499 144.978V149.91L22.6379 149.828V144.903Z" fill="#E0E0E0"/>
<path d="M21.5999 144.194L21.719 144.276V149.201L21.5999 149.127V144.194Z" fill="#E0E0E0"/>
<path d="M20.8546 143.707L20.9736 143.79V148.722L20.8546 148.64V143.707Z" fill="#E0E0E0"/>
<path d="M19.8445 142.981L19.9635 143.063V147.988L19.8445 147.913V142.981Z" fill="#E0E0E0"/>
<path d="M25.8973 147.122L26.1284 147.287V152.211L25.8973 152.055V147.122Z" fill="#E0E0E0"/>
<path d="M61.0227 80.7278L41.2207 67.1833L21.4117 80.7278L41.2207 94.264L61.0227 80.7278Z" fill="#F5F5F5"/>
<path d="M41.2208 140.696L61.0228 127.152V80.728L41.2208 94.2642V140.696Z" fill="#EBEBEB"/>
<path d="M44.4875 132.992C44.3999 132.993 44.3137 132.967 44.2368 132.918C44.1279 132.825 44.0412 132.7 43.9851 132.555C43.929 132.411 43.9053 132.252 43.9164 132.093V129.618V129.437H44.0208L45.6507 128.307V131.054C45.6467 131.407 45.572 131.754 45.4328 132.067C45.2936 132.379 45.0937 132.649 44.8497 132.852C44.7414 132.935 44.6165 132.984 44.4875 132.992ZM44.1741 129.8V132.085C44.163 132.189 44.1745 132.296 44.2073 132.394C44.2402 132.492 44.2935 132.579 44.3621 132.646C44.4191 132.677 44.482 132.689 44.5444 132.682C44.6068 132.675 44.6665 132.648 44.7173 132.604C44.9253 132.429 45.0964 132.2 45.2172 131.934C45.338 131.668 45.4053 131.372 45.4139 131.07V130.872H44.787L44.6686 129.907L44.1741 129.8ZM45.0099 130.559H45.4139V128.868L44.4457 129.544L44.9263 129.643L45.0099 130.559Z" fill="white"/>
<path d="M44.7807 134.955C44.7635 134.955 44.7465 134.951 44.7307 134.943C44.715 134.935 44.7008 134.923 44.689 134.909C44.6772 134.894 44.668 134.877 44.6621 134.858C44.6562 134.839 44.6537 134.818 44.6546 134.798V132.736C44.6537 132.716 44.6562 132.696 44.6621 132.677C44.668 132.658 44.6772 132.64 44.689 132.626C44.7008 132.611 44.715 132.599 44.7307 132.591C44.7465 132.583 44.7635 132.579 44.7807 132.579C44.7984 132.578 44.8161 132.581 44.8327 132.589C44.8494 132.596 44.8644 132.608 44.877 132.623C44.8896 132.637 44.8993 132.655 44.9056 132.675C44.912 132.694 44.9147 132.715 44.9137 132.736V134.798C44.9147 134.819 44.912 134.84 44.9056 134.86C44.8993 134.879 44.8896 134.897 44.877 134.912C44.8644 134.927 44.8494 134.938 44.8327 134.945C44.8161 134.953 44.7984 134.956 44.7807 134.955Z" fill="white"/>
<path d="M44.0207 135.474C43.9928 135.472 43.9662 135.46 43.9447 135.439C43.9231 135.418 43.9078 135.389 43.9008 135.357C43.8939 135.325 43.8957 135.291 43.9059 135.26C43.9162 135.23 43.9345 135.204 43.958 135.186L45.4764 134.146C45.5069 134.126 45.5431 134.12 45.5771 134.131C45.6111 134.142 45.64 134.168 45.6575 134.204C45.6751 134.24 45.6798 134.283 45.6707 134.323C45.6615 134.364 45.6393 134.398 45.6088 134.419L44.0904 135.45C44.0699 135.466 44.0456 135.475 44.0207 135.474Z" fill="white"/>
<path d="M49.4257 131.92C49.3762 131.92 49.3277 131.903 49.2864 131.87C49.2332 131.832 49.1901 131.777 49.1618 131.712C49.1335 131.646 49.1212 131.572 49.1262 131.499V131.078C49.1262 131.037 49.1402 130.997 49.165 130.967C49.1898 130.938 49.2235 130.922 49.2586 130.922C49.2937 130.922 49.3273 130.938 49.3522 130.967C49.377 130.997 49.3909 131.037 49.3909 131.078V131.499C49.3813 131.534 49.3813 131.571 49.3909 131.606C49.4205 131.616 49.4519 131.616 49.4815 131.606C49.561 131.518 49.6233 131.41 49.6642 131.291C49.7051 131.171 49.7235 131.042 49.7183 130.913V128.166C49.7183 128.125 49.7322 128.085 49.757 128.056C49.7819 128.026 49.8155 128.01 49.8506 128.01C49.8683 128.009 49.8859 128.012 49.9024 128.019C49.9189 128.027 49.9339 128.038 49.9464 128.053C49.9589 128.068 49.9687 128.086 49.9749 128.105C49.9812 128.125 49.984 128.146 49.983 128.166V130.913C49.9887 131.097 49.9583 131.28 49.8943 131.447C49.8302 131.615 49.7342 131.762 49.6138 131.878C49.5548 131.91 49.4903 131.924 49.4257 131.92Z" fill="white"/>
<path d="M48.0536 129.552V129.288C48.085 128.601 48.2527 127.932 48.5432 127.336C48.8336 126.739 49.2386 126.233 49.7253 125.857C49.8998 125.685 50.1145 125.582 50.3403 125.56C50.5662 125.538 50.7923 125.598 50.9882 125.733C51.1841 125.868 51.3404 126.071 51.4359 126.314C51.5314 126.557 51.5615 126.83 51.5223 127.094V127.176L48.0536 129.552ZM50.5054 125.89C50.2737 125.903 50.0487 125.986 49.8507 126.129C49.4383 126.453 49.089 126.877 48.826 127.373C48.5629 127.87 48.3923 128.427 48.3253 129.008L51.2576 127.003C51.2702 126.809 51.2403 126.614 51.1707 126.438C51.1012 126.262 50.9944 126.11 50.8606 125.997C50.756 125.91 50.6331 125.858 50.5054 125.848V125.89Z" fill="white"/>
<path d="M54.1212 128.727C54.0859 128.727 54.052 128.711 54.0271 128.681C54.0021 128.652 53.9881 128.612 53.9881 128.571V123.308C53.9835 123.285 53.9835 123.261 53.9878 123.238C53.9922 123.215 54.001 123.193 54.0134 123.175C54.0259 123.156 54.0417 123.141 54.0598 123.131C54.0778 123.121 54.0976 123.115 54.1177 123.115C54.1377 123.115 54.1575 123.121 54.1756 123.131C54.1936 123.141 54.2095 123.156 54.2219 123.175C54.2344 123.193 54.2431 123.215 54.2475 123.238C54.2519 123.261 54.2518 123.285 54.2472 123.308V128.571C54.2473 128.611 54.2342 128.649 54.2108 128.679C54.1873 128.708 54.1552 128.725 54.1212 128.727Z" fill="white"/>
<path d="M53.7719 124.529H53.7162C53.7002 124.521 53.6857 124.509 53.6737 124.494C53.6616 124.479 53.6524 124.461 53.6465 124.442C53.6406 124.423 53.6382 124.402 53.6394 124.381C53.6406 124.361 53.6454 124.341 53.6535 124.323L54.1132 123.052L54.6356 123.762C54.6586 123.791 54.6715 123.829 54.6715 123.869C54.6715 123.909 54.6586 123.947 54.6356 123.976C54.6099 124.004 54.5764 124.019 54.5416 124.019C54.5068 124.019 54.4732 124.004 54.4476 123.976L54.2038 123.638L53.9043 124.463C53.8906 124.489 53.8706 124.509 53.8469 124.52C53.8232 124.532 53.7971 124.535 53.7719 124.529Z" fill="white"/>
<path d="M55.326 127.903C55.2913 127.901 55.2584 127.883 55.2338 127.854C55.2093 127.825 55.1947 127.787 55.193 127.746V122.483C55.193 122.442 55.207 122.402 55.232 122.372C55.2569 122.343 55.2908 122.326 55.326 122.326C55.3613 122.326 55.3952 122.343 55.4201 122.372C55.4451 122.402 55.4591 122.442 55.4591 122.483V127.746C55.4574 127.787 55.4428 127.825 55.4182 127.854C55.3936 127.883 55.3608 127.901 55.326 127.903Z" fill="white"/>
<path d="M54.9423 123.72H54.8935C54.8775 123.712 54.863 123.7 54.8508 123.685C54.8386 123.67 54.829 123.653 54.8225 123.634C54.816 123.615 54.8128 123.594 54.8131 123.573C54.8133 123.553 54.817 123.532 54.8239 123.513L55.2905 122.243L55.8059 122.953C55.8184 122.967 55.8282 122.984 55.835 123.004C55.8417 123.023 55.8452 123.043 55.8452 123.064C55.8452 123.085 55.8417 123.105 55.835 123.124C55.8282 123.143 55.8184 123.161 55.8059 123.175C55.7807 123.201 55.7486 123.215 55.7154 123.215C55.6822 123.215 55.6501 123.201 55.6249 123.175L55.3741 122.837L55.0746 123.662C55.0594 123.685 55.0389 123.703 55.0155 123.713C54.9921 123.724 54.9667 123.726 54.9423 123.72Z" fill="white"/>
<path d="M41.2207 140.696L21.4117 127.152V80.728L41.2207 94.2642V140.696Z" fill="#E0E0E0"/>
<path d="M30.8078 92.6387L32.7302 93.9502V88.4648L30.8078 87.145V92.6387Z" fill="#F5F5F5"/>
<path d="M32.7302 88.4654L52.5322 74.9209L50.6168 73.6094L30.8078 87.1456L32.7302 88.4654Z" fill="white"/>
<path d="M25.4448 118.301L31.5184 122.425C31.8701 122.696 32.1626 123.061 32.372 123.491C32.5815 123.921 32.7019 124.404 32.7234 124.9V129.338C32.7234 130.245 32.1871 130.616 31.5184 130.162L25.4448 126.038C25.0923 125.768 24.7987 125.403 24.588 124.973C24.3774 124.543 24.2557 124.06 24.2328 123.564V119.126C24.2398 118.218 24.7761 117.847 25.4448 118.301Z" fill="#F5F5F5"/>
<path d="M24.9711 119.414L25.2022 119.571V124.504L24.9711 124.339V119.414Z" fill="#E0E0E0"/>
<path d="M25.9112 120.058L26.3082 120.33V125.263L25.9112 124.982V120.058Z" fill="#E0E0E0"/>
<path d="M26.8518 120.693L27.0829 120.858V125.783L26.8518 125.626V120.693Z" fill="#E0E0E0"/>
<path d="M27.5621 121.171L28.0218 121.501V126.426L27.5621 126.104V121.171Z" fill="#E0E0E0"/>
<path d="M28.7322 121.98L28.9633 122.136V127.069L28.7322 126.912V121.98Z" fill="#E0E0E0"/>
<path d="M29.4077 122.433L29.9022 122.78V127.713L29.4077 127.366V122.433Z" fill="#E0E0E0"/>
<path d="M30.6129 123.266L30.8439 123.423V128.356L30.6129 128.191V123.266Z" fill="#E0E0E0"/>
<path d="M31.1492 123.63L31.2613 123.704V128.637L31.1492 128.554V123.63Z" fill="#E0E0E0"/>
<path d="M30.181 122.994L30.3001 123.077V128.009L30.181 127.927V122.994Z" fill="#E0E0E0"/>
<path d="M28.2866 121.682L28.4056 121.765V126.689L28.2866 126.615V121.682Z" fill="#E0E0E0"/>
<path d="M27.2487 120.981L27.3678 121.056V125.988L27.2487 125.906V120.981Z" fill="#E0E0E0"/>
<path d="M26.5103 120.495L26.6224 120.569V125.502L26.5103 125.419V120.495Z" fill="#E0E0E0"/>
<path d="M25.5005 119.769L25.6125 119.843V124.776L25.5005 124.694V119.769Z" fill="#E0E0E0"/>
<path d="M31.5462 123.91L31.7843 124.067V128.991L31.5462 128.835V123.91Z" fill="#E0E0E0"/>
<path d="M21.5999 208.534L97.6179 260.501C98.5525 261.062 99.5858 261.355 100.634 261.355C101.682 261.355 102.715 261.062 103.65 260.501L270.208 146.668C271.873 145.53 271.873 143.682 270.208 142.544L194.19 90.5766C193.256 90.0112 192.223 89.7163 191.174 89.7163C190.126 89.7163 189.092 90.0112 188.158 90.5766L21.5999 204.409C19.9352 205.548 19.9352 207.395 21.5999 208.534Z" fill="#455A64"/>
<path d="M62.6875 232.661C63.9835 233.435 65.4149 233.839 66.8666 233.839C68.3183 233.839 69.7497 233.435 71.0457 232.661C73.3651 231.077 73.3651 228.536 71.0457 226.928C69.7506 226.15 68.3188 225.744 66.8666 225.744C65.4143 225.744 63.9826 226.15 62.6875 226.928C60.3681 228.536 60.3681 231.094 62.6875 232.661Z" fill="#263238"/>
<path d="M99.0456 260.501L23.0276 208.534C21.5371 207.511 21.3839 205.927 22.561 204.789C21.8175 205.485 21.2062 206.359 20.767 207.354C20.3278 208.349 20.0704 209.442 20.0117 210.563V213.92C20.0689 215.159 20.3717 216.365 20.8957 217.44C21.4197 218.515 22.15 219.428 23.0276 220.106L99.0456 272.074C99.9751 272.649 101.013 272.932 102.062 272.898V261.358C101.011 261.382 99.9725 261.087 99.0456 260.501Z" fill="#37474F"/>
<path d="M270.201 158.233C271.081 157.556 271.813 156.643 272.338 155.568C272.864 154.493 273.167 153.286 273.224 152.046V148.689C273.168 147.567 272.91 146.472 272.47 145.477C272.029 144.481 271.415 143.608 270.668 142.915C271.852 144.053 271.699 145.637 270.208 146.651L103.65 260.501C102.72 261.073 101.682 261.357 100.634 261.325V272.931C101.682 272.963 102.72 272.679 103.65 272.107L270.201 158.233Z" fill="#263238"/>
<path d="M110.141 249.736L37.383 199.963C36.38 199.278 36.38 198.165 37.383 197.488L178.024 101.3C178.585 100.962 179.205 100.786 179.835 100.786C180.464 100.786 181.085 100.962 181.646 101.3L254.432 151.065C255.428 151.749 255.428 152.855 254.432 153.539L113.735 249.736C113.178 250.068 112.562 250.241 111.938 250.241C111.314 250.241 110.699 250.068 110.141 249.736Z" fill="white"/>
<path d="M80.8247 221.946L89.3153 216.139L86.4874 214.209L77.9969 220.008L80.8247 221.946Z" fill="#3638DA"/>
<path d="M182.684 152.302L191.174 146.495L188.339 144.565L179.856 150.372L182.684 152.302Z" fill="#3638DA"/>
<path d="M199.658 140.696L208.148 134.889L205.32 132.958L196.83 138.757L199.658 140.696Z" fill="#3638DA"/>
<path d="M226.906 120.363C227.235 120.558 227.599 120.66 227.968 120.66C228.336 120.66 228.7 120.558 229.03 120.363C229.158 120.311 229.269 120.213 229.347 120.083C229.426 119.953 229.468 119.797 229.468 119.637C229.468 119.477 229.426 119.321 229.347 119.191C229.269 119.061 229.158 118.963 229.03 118.911C228.701 118.712 228.337 118.608 227.968 118.608C227.598 118.608 227.234 118.712 226.906 118.911C226.778 118.963 226.667 119.061 226.588 119.191C226.51 119.321 226.467 119.477 226.467 119.637C226.467 119.797 226.51 119.953 226.588 120.083C226.667 120.213 226.778 120.311 226.906 120.363Z" fill="#263238"/>
<path d="M230.298 131.755C230.955 132.149 231.682 132.354 232.419 132.354C233.156 132.354 233.882 132.149 234.54 131.755C235.71 130.93 235.71 129.651 234.54 128.851C233.882 128.457 233.156 128.251 232.419 128.251C231.682 128.251 230.955 128.457 230.298 128.851C229.128 129.651 229.128 130.955 230.298 131.755Z" fill="#263238"/>
<path d="M227.303 126.706C228.083 126.17 228.041 125.279 227.212 124.71L213.282 115.166C212.833 114.881 212.334 114.727 211.826 114.716C211.317 114.704 210.813 114.836 210.356 115.1C209.576 115.636 209.618 116.527 210.447 117.096L224.419 126.64C224.862 126.916 225.354 127.066 225.854 127.077C226.355 127.089 226.851 126.961 227.303 126.706Z" fill="#263238"/>
<path d="M203.524 88.0031L203.997 87.6731C203.67 89.0808 203.511 90.5356 203.524 91.9955V94.0082C203.524 101.234 210.844 119.695 213.54 126.228C213.818 126.912 210.12 131.573 210.12 131.573L214.515 128.57C214.515 128.57 225.499 117.847 225.499 109.037V107.025C225.499 98.1738 220.581 87.6401 214.515 83.491C211.45 81.4041 208.685 81.3299 206.693 82.9136L202.514 85.7512L203.524 88.0031ZM209.019 94.7588C209.019 90.6344 211.478 88.9269 214.515 91.0056C214.264 93.67 218.373 101.968 220.003 102.273C220.003 106.398 217.545 108.105 214.515 106.027C212.92 104.789 211.594 103.124 210.644 101.167C209.694 99.2089 209.147 97.0136 209.047 94.7588H209.019Z" fill="#3638DA"/>
<path d="M199.003 97.2335C199.128 106.076 210.468 131.573 210.468 131.573C210.468 131.573 221.305 120.668 221.187 111.826V109.813C221.062 100.97 215.998 90.5273 209.869 86.5019C203.739 82.4765 198.878 86.37 199.003 95.2209V97.2335ZM204.505 97.8769C204.45 93.7526 206.888 91.9956 209.945 94.0083C211.561 95.2116 212.915 96.8493 213.897 98.7885C214.878 100.728 215.46 102.914 215.594 105.169C215.657 109.293 213.219 111.05 210.154 109.037C208.54 107.832 207.188 106.193 206.206 104.255C205.225 102.316 204.642 100.131 204.505 97.8769Z" fill="#3638DA"/>
<path opacity="0.1" d="M199.003 97.2335C199.128 106.076 210.468 131.573 210.468 131.573C210.468 131.573 221.305 120.668 221.187 111.826V109.813C221.062 100.97 215.998 90.5273 209.869 86.5019C203.739 82.4765 198.878 86.37 199.003 95.2209V97.2335ZM204.505 97.8769C204.45 93.7526 206.888 91.9956 209.945 94.0083C211.561 95.2116 212.915 96.8493 213.897 98.7885C214.878 100.728 215.46 102.914 215.594 105.169C215.657 109.293 213.219 111.05 210.154 109.037C208.54 107.832 207.188 106.193 206.206 104.255C205.225 102.316 204.642 100.131 204.505 97.8769Z" fill="black"/>
<path d="M92.7758 215.241C99.8176 220.042 116.325 216.552 129.65 207.438L166.252 182.419C179.576 173.304 184.66 162.037 177.605 157.244C170.549 152.452 154.028 155.957 140.689 165.064L104.157 190.049C90.8395 199.156 85.741 210.465 92.7758 215.241Z" fill="#F0F0F0"/>
<path d="M199.344 5.425H199.379L205.404 1.30063H205.453C209.249 -0.976024 214.319 -0.349114 219.78 3.85774C230.757 12.222 239.136 31.524 238.503 46.9574C238.182 54.6535 235.716 59.9327 231.907 62.2588H231.872L225.84 66.3832H225.798C222.002 68.6681 216.924 68.0329 211.457 63.8343C200.487 55.4618 192.107 36.168 192.741 20.7347C193.076 13.0303 195.576 7.75114 199.344 5.425Z" fill="#37474F"/>
<path d="M226.146 66.1688L231.893 62.2094H231.934C235.71 59.875 238.203 54.5958 238.523 46.908C238.802 40.0285 237.291 32.3819 234.56 25.2798L228.528 29.4042C231.266 36.5063 232.777 44.1529 232.492 51.0406C232.192 58.547 229.796 63.7684 226.146 66.1688Z" fill="#263238"/>
<path d="M211.485 63.8262C200.515 55.4537 192.135 36.1599 192.769 20.7265C193.403 5.29315 202.827 -0.439724 213.776 7.9245C224.726 16.2887 233.133 35.5908 232.499 51.0242C231.865 66.4575 222.455 72.1904 211.485 63.8262Z" fill="#455A64"/>
<path d="M220.679 62.7368C227.149 63.108 228.201 54.488 228.34 50.7761C228.898 37.1657 221.194 19.4309 211.52 12.0483C209.458 10.3382 207.059 9.28698 204.554 8.99624C198.091 8.62504 197.039 17.245 196.893 20.9569C196.335 34.5673 204.032 52.3021 213.714 59.726C215.775 61.436 218.174 62.4873 220.679 62.778V62.7368Z" fill="#FAFAFA"/>
<path d="M211.366 38.4285C211.442 38.4288 211.518 38.412 211.589 38.379C211.734 38.3231 211.86 38.212 211.947 38.0629C212.034 37.9138 212.077 37.735 212.07 37.5541V17.8974C212.07 17.6786 211.996 17.4688 211.866 17.3141C211.735 17.1594 211.558 17.0725 211.373 17.0725C211.188 17.0725 211.011 17.1594 210.881 17.3141C210.75 17.4688 210.677 17.6786 210.677 17.8974V35.162L202.924 23.3663C202.81 23.1913 202.641 23.0773 202.456 23.0495C202.27 23.0216 202.083 23.0822 201.935 23.2178C201.788 23.3535 201.691 23.5531 201.668 23.7727C201.644 23.9924 201.695 24.2141 201.81 24.3891L210.83 38.1068C210.893 38.2044 210.974 38.284 211.067 38.3397C211.16 38.3954 211.262 38.4257 211.366 38.4285Z" fill="#37474F"/>
<path d="M215.364 52.9707C215.396 52.9783 215.43 52.9783 215.462 52.9707C215.536 52.9439 215.598 52.8843 215.636 52.8043C215.673 52.7244 215.683 52.6303 215.664 52.5418L211.756 36.9599C211.734 36.8713 211.683 36.7968 211.615 36.7527C211.546 36.7086 211.465 36.6986 211.391 36.7248C211.316 36.7511 211.253 36.8114 211.216 36.8926C211.178 36.9739 211.17 37.0693 211.192 37.1579L215.093 52.7397C215.112 52.8065 215.149 52.8644 215.198 52.9057C215.246 52.947 215.304 52.9697 215.364 52.9707Z" fill="#3638DA"/>
<path d="M211.589 33.6523C210.294 32.6707 209.186 33.3471 209.116 35.1618C209.121 36.1516 209.322 37.1263 209.705 38.0064C210.087 38.8865 210.64 39.6472 211.317 40.2265C212.606 41.2164 213.713 40.54 213.79 38.7253C213.784 37.7346 213.582 36.7595 213.2 35.8784C212.817 34.9973 212.266 34.2348 211.589 33.6523Z" fill="#3638DA"/>
<path d="M97.806 210.341L106.29 204.534L103.462 202.604L94.9781 208.402L97.806 210.341Z" fill="#BA68C8"/>
<path d="M114.78 198.734L123.271 192.927L120.436 190.997L111.952 196.796L114.78 198.734Z" fill="#BA68C8"/>
<path d="M111.291 196.367C111.291 201.217 108.421 207.09 104.876 209.565C102.988 210.86 101.289 210.901 100.119 209.928C99.6468 209.489 99.2593 208.936 98.9819 208.306C98.7045 207.676 98.5435 206.983 98.5096 206.274C98.7478 206.142 98.9803 205.996 99.2061 205.836C102.751 203.419 105.621 197.522 105.621 192.638C105.624 192.277 105.606 191.916 105.565 191.558C106.097 191.225 106.681 191.027 107.28 190.975C107.88 190.924 108.482 191.021 109.048 191.261C110.441 191.954 111.291 193.744 111.291 196.367Z" fill="#263238"/>
<path d="M111.869 186.402L111.75 186.32C109.967 185.198 107.571 185.404 104.876 187.236C99.408 190.972 94.9712 200.062 94.9712 207.544C94.9712 211.305 96.0926 213.937 97.9035 215.158C99.7145 216.378 102.159 216.172 104.869 214.333C110.336 210.596 114.766 201.498 114.766 194.016C114.773 190.255 113.673 187.623 111.869 186.402ZM104.904 209.548C103.009 210.843 101.31 210.885 100.139 209.903C99.1085 209.078 98.4816 207.428 98.4816 205.16C98.4816 200.318 101.358 194.437 104.904 191.962C106.519 190.857 107.989 190.667 109.083 191.236C110.434 191.921 111.284 193.711 111.284 196.35C111.291 201.234 108.421 207.131 104.876 209.565L104.904 209.548Z" fill="#37474F"/>
<path d="M109.41 191.459L109.333 191.409C108.177 190.675 106.61 190.816 104.876 191.995C101.33 194.42 98.4537 200.318 98.4537 205.193C98.4537 207.668 99.1502 209.318 100.355 210.142C101.56 210.967 103.141 210.802 104.876 209.598C108.421 207.173 111.291 201.275 111.291 196.4C111.291 193.958 110.573 192.243 109.41 191.459ZM104.876 207.833C103.357 208.872 101.992 208.905 101.045 208.113C100.223 207.429 99.7144 206.117 99.7144 204.302C99.812 202.182 100.33 200.119 101.227 198.28C102.124 196.441 103.374 194.879 104.876 193.719C105.363 193.316 105.924 193.053 106.513 192.951C107.102 192.849 107.703 192.912 108.268 193.133C109.354 193.686 110.037 195.121 110.037 197.258C109.94 199.377 109.422 201.439 108.525 203.277C107.628 205.114 106.378 206.675 104.876 207.833Z" fill="#3638DA"/>
<path d="M131.754 187.121L140.245 181.322L137.417 179.383L128.926 185.19L131.754 187.121Z" fill="#BA68C8"/>
<path d="M148.735 175.514L157.219 169.715L154.391 167.777L145.901 173.584L148.735 175.514Z" fill="#BA68C8"/>
<path d="M165.709 163.908L174.193 158.11L171.365 156.171L162.875 161.978L165.709 163.908Z" fill="#BA68C8"/>
<path d="M123.466 109.937C123.554 109.797 123.679 109.693 123.82 109.642C123.962 109.591 124.114 109.595 124.253 109.653C124.393 109.711 124.514 109.82 124.597 109.964C124.681 110.109 124.724 110.281 124.719 110.457C124.774 110.926 124.733 111.404 124.601 111.852C124.469 112.299 124.25 112.703 123.96 113.03C123.403 113.599 122.839 113.368 122.706 112.511C122.653 112.041 122.693 111.563 122.825 111.116C122.957 110.668 123.177 110.265 123.466 109.937Z" fill="#3638DA"/>
<path d="M129.999 113.582L124.322 109.697L123.076 113.252L128.773 117.146L129.999 113.582Z" fill="#3638DA"/>
<path d="M129.128 113.806C129.686 113.245 130.243 113.476 130.382 114.334C130.433 114.802 130.391 115.279 130.258 115.725C130.125 116.17 129.905 116.573 129.616 116.899C129.059 117.468 128.494 117.237 128.362 116.379C128.311 115.909 128.354 115.432 128.487 114.985C128.62 114.538 128.84 114.134 129.128 113.806Z" fill="#BA68C8"/>
<path d="M172.758 146.338C172.758 146.503 172.758 146.652 172.758 146.817C172.758 147.147 172.758 147.485 172.758 147.823C171.63 147.254 170.16 147.444 168.544 148.549C164.999 150.974 162.122 156.872 162.122 161.747C162.122 164.007 162.749 165.64 163.78 166.49C163.491 166.734 163.191 166.96 162.882 167.166L162.554 167.364L161.572 171.744L155.889 167.991C154.092 166.762 152.984 164.139 152.984 160.394C152.984 152.913 157.414 143.822 162.882 140.078C165.584 138.23 168.029 138.04 169.847 139.253L175.419 142.948L175.537 143.031L172.758 146.338Z" fill="#455A64"/>
<path d="M175.531 142.957L175.412 142.874C173.629 141.752 171.233 141.959 168.537 143.79C163.07 147.526 158.633 156.617 158.633 164.098C158.633 167.86 159.754 170.491 161.565 171.712C163.376 172.933 165.821 172.726 168.531 170.887C173.998 167.15 178.428 158.052 178.428 150.57C178.449 146.809 177.328 144.177 175.531 142.957ZM168.565 166.103C166.671 167.398 164.971 167.439 163.801 166.457C162.77 165.632 162.143 163.983 162.143 161.714C162.143 156.872 165.02 150.991 168.565 148.516C170.181 147.411 171.651 147.221 172.779 147.79C174.131 148.475 174.98 150.265 174.98 152.905C174.966 157.788 172.083 163.686 168.537 166.103H168.565Z" fill="#37474F"/>
<path d="M174.966 152.938C174.966 157.788 172.097 163.661 168.551 166.136C166.664 167.431 164.964 167.472 163.794 166.499C163.322 166.06 162.935 165.507 162.657 164.877C162.38 164.246 162.219 163.554 162.185 162.844C162.423 162.713 162.656 162.567 162.882 162.407C166.427 159.99 169.297 154.092 169.297 149.209C169.3 148.848 169.281 148.487 169.241 148.129C169.772 147.796 170.356 147.597 170.956 147.546C171.555 147.495 172.157 147.592 172.724 147.832C174.103 148.525 174.966 150.298 174.966 152.938Z" fill="#263238"/>
<path d="M173.072 148.013L172.995 147.955C171.839 147.229 170.265 147.361 168.537 148.549C164.992 150.974 162.115 156.864 162.115 161.747C162.115 164.222 162.812 165.871 164.017 166.696C165.222 167.521 166.803 167.348 168.537 166.144C172.082 163.727 174.952 157.829 174.952 152.946C174.966 150.512 174.27 148.805 173.072 148.013ZM168.537 164.378C167.012 165.426 165.647 165.459 164.706 164.667C163.877 163.983 163.376 162.671 163.376 160.856C163.474 158.736 163.992 156.673 164.888 154.834C165.785 152.995 167.035 151.433 168.537 150.273C169.833 149.382 171.017 149.226 171.922 149.687C173.009 150.24 173.691 151.675 173.691 153.812C173.595 155.929 173.077 157.989 172.182 159.826C171.286 161.662 170.038 163.221 168.537 164.378Z" fill="#3638DA"/>
<path d="M163.099 156.167L179.119 145.212C180.979 143.934 174.94 136.469 170.447 135.966C167.974 135.612 165.465 135.893 163.092 136.791C163.092 136.791 166.512 141.979 165.927 144.924C165.342 147.869 163.099 156.167 163.099 156.167Z" fill="#3638DA"/>
<path d="M140.245 124.446C140.245 124.446 163.467 138.32 164.47 139.154C165.473 139.987 164.47 149.662 162.875 155.404C161.28 161.145 158.828 169.971 157.846 172.445C156.864 174.92 155.582 175.844 153.228 177.452L136.511 188.893L113.882 192.16L104.897 186.386L107.237 168.973C107.237 168.973 131.288 153.82 134.582 151.568C137.877 149.316 147.621 138.749 140.245 124.446Z" fill="#3638DA"/>
<path opacity="0.2" d="M140.522 124.385C140.522 124.385 163.744 138.26 164.747 139.093C165.75 139.926 164.747 149.602 163.152 155.343C161.557 161.084 159.106 169.91 158.124 172.385C157.141 174.859 155.86 175.783 153.506 177.392L136.789 188.833L114.159 192.099L105.174 186.325L107.514 168.912C107.514 168.912 131.565 153.759 134.86 151.507C138.154 149.255 147.899 138.689 140.522 124.385Z" fill="black"/>
<path d="M164.916 152.096C167.005 145.448 168.565 139.937 168.301 136.217C167.98 131.804 166.587 128.2 160.444 126.385C154.301 124.57 145.713 124.603 145.713 124.603L143.101 126.393C143.101 126.393 160.764 138.519 162.77 139.838C163.996 140.663 165.306 144.301 162.903 155.412L163.314 155.693C163.516 155.841 164.247 154.233 164.916 152.096Z" fill="#3638DA"/>
<path opacity="0.3" d="M176.839 138.229C178.929 131.58 180.489 126.07 180.224 122.35C179.904 117.937 178.511 114.332 172.367 112.518C166.224 110.703 157.636 110.736 157.636 110.736L155.024 112.526C155.024 112.526 172.688 124.652 174.694 125.971C175.92 126.796 177.229 130.434 174.826 141.545L175.237 141.825C175.439 141.974 176.17 140.365 176.839 138.229Z" fill="white"/>
<path d="M151.535 132.184L154.391 130.254C154.391 130.254 154.224 118.532 150.059 115.686C145.894 112.84 131.754 114.779 131.754 114.779L128.926 116.709L151.535 132.184Z" fill="#3638DA"/>
<path d="M142.272 118.367C140.913 119.299 140.913 120.8 142.272 121.724C143.033 122.183 143.876 122.423 144.73 122.423C145.585 122.423 146.428 122.183 147.189 121.724C148.54 120.8 148.54 119.291 147.189 118.367C146.427 117.911 145.584 117.674 144.73 117.674C143.876 117.674 143.034 117.911 142.272 118.367Z" fill="#F0F0F0"/>
<path d="M146.618 123.968C145.664 124.628 145.664 125.692 146.618 126.343C147.157 126.67 147.754 126.84 148.359 126.84C148.965 126.84 149.562 126.67 150.101 126.343C151.062 125.692 151.062 124.628 150.101 123.968C149.561 123.645 148.964 123.477 148.359 123.477C147.755 123.477 147.158 123.645 146.618 123.968Z" fill="#F0F0F0"/>
<path d="M135.676 116.874C134.714 117.526 134.714 118.59 135.676 119.25C136.216 119.573 136.812 119.741 137.417 119.741C138.022 119.741 138.618 119.573 139.158 119.25C140.119 118.59 140.119 117.526 139.158 116.874C138.619 116.548 138.022 116.377 137.417 116.377C136.811 116.377 136.215 116.548 135.676 116.874Z" fill="#F0F0F0"/>
<path d="M151.981 128.785C152.538 128.216 153.096 128.447 153.235 129.305C153.286 129.775 153.244 130.253 153.111 130.7C152.978 131.147 152.758 131.551 152.469 131.879C152.38 132.019 152.256 132.122 152.114 132.173C151.973 132.224 151.821 132.221 151.681 132.163C151.541 132.105 151.421 131.996 151.337 131.851C151.253 131.707 151.211 131.534 151.215 131.359C151.162 130.889 151.203 130.41 151.336 129.963C151.469 129.515 151.691 129.112 151.981 128.785Z" fill="#BA68C8"/>
<path d="M158.48 132.431L152.796 128.546L151.556 132.101L157.247 135.987L158.48 132.431Z" fill="#3638DA"/>
<path d="M157.602 132.654C157.691 132.513 157.815 132.41 157.957 132.359C158.098 132.308 158.25 132.312 158.39 132.37C158.529 132.427 158.65 132.537 158.734 132.681C158.818 132.826 158.86 132.998 158.856 133.173C158.909 133.644 158.867 134.122 158.734 134.569C158.601 135.017 158.38 135.42 158.09 135.747C157.532 136.316 156.975 136.077 156.836 135.227C156.784 134.757 156.826 134.279 156.959 133.832C157.093 133.385 157.313 132.981 157.602 132.654Z" fill="#BA68C8"/>
<path d="M157.602 132.654C157.691 132.513 157.815 132.41 157.957 132.359C158.098 132.308 158.25 132.312 158.39 132.37C158.529 132.427 158.65 132.537 158.734 132.681C158.818 132.826 158.86 132.998 158.856 133.173C158.909 133.644 158.867 134.122 158.734 134.569C158.601 135.017 158.38 135.42 158.09 135.747C157.532 136.316 156.975 136.077 156.836 135.227C156.784 134.757 156.826 134.279 156.959 133.832C157.093 133.385 157.313 132.981 157.602 132.654Z" fill="black"/>
<path d="M109.097 189.769C109.097 189.934 109.097 190.082 109.097 190.247C109.097 190.577 109.097 190.915 109.097 191.253C107.968 190.684 106.499 190.874 104.918 191.979C101.372 194.404 98.4956 200.302 98.4956 205.177C98.4956 207.437 99.1225 209.071 100.153 209.92C99.8639 210.164 99.564 210.39 99.2548 210.597L98.9275 210.795L97.9454 215.175L92.2618 211.421C90.4648 210.192 89.3573 207.569 89.3573 203.824C89.3573 196.343 93.7872 187.253 99.2548 183.508C101.957 181.66 104.402 181.47 106.22 182.683L111.792 186.378L111.911 186.461L109.097 189.769Z" fill="#455A64"/>
<path d="M92.1433 176.677L87.9016 194.091L96.3921 199.898L100.787 182.592L92.1433 176.677Z" fill="#3638DA"/>
<path opacity="0.2" d="M92.1271 176.596L87.8853 194.01L96.3759 199.817L100.771 182.511L92.1271 176.596Z" fill="black"/>
<path d="M94.3686 178.306C94.3686 178.306 99.1815 183.148 103.012 184.221C108.041 185.664 116.037 185.821 118.872 186.052C123.204 186.407 126.478 186.398 128.01 185.747C129.995 184.922 135.331 181.251 136.807 180.245C139.635 178.315 140.84 170.718 133.046 168.639C127.776 167.346 122.408 166.696 117.026 166.7L94.3686 178.306Z" fill="#3638DA"/>
<path d="M140.14 174.451C139.898 175.168 139.734 175.919 139.653 176.686C139.428 177.483 139.376 178.334 139.5 179.161C140.031 180.201 140.866 180.973 141.847 181.33C142.553 181.516 143.285 181.528 143.995 181.365C144.706 181.202 145.381 180.867 145.977 180.382C147.419 179.359 148.506 178.121 150.553 177.429C152.017 177.062 153.396 176.321 154.593 175.259C155.729 174.179 157.247 171.192 155.074 170.5C152.901 169.807 148.178 172.248 143.874 172.471L140.14 174.451Z" fill="#37474F"/>
<path d="M140.14 171.266V175.077C140.272 175.505 140.501 175.882 140.802 176.166C141.103 176.45 141.465 176.63 141.847 176.686C142.196 176.746 142.554 176.701 142.884 176.554C143.406 176.318 143.858 175.906 144.185 175.37C144.512 174.833 144.699 174.195 144.723 173.535L144.849 171.266H140.14Z" fill="#FFA8A7"/>
<path d="M146.27 147.7C146.27 152.443 145.141 172.949 145.141 172.949C145.141 172.949 143.504 175.424 139.945 172.949L138.747 150.034L146.27 147.7Z" fill="#37474F"/>
<path d="M127.603 167.909L138.747 160.304C139.204 160.02 139.586 159.593 139.853 159.071C140.12 158.548 140.261 157.949 140.261 157.338C140.261 156.727 140.12 156.128 139.853 155.606C139.586 155.083 139.204 154.657 138.747 154.373L130.445 148.698C129.977 148.417 129.461 148.271 128.937 148.271C128.413 148.271 127.896 148.417 127.429 148.698L116.285 156.303C115.83 156.589 115.45 157.016 115.184 157.538C114.919 158.061 114.779 158.659 114.779 159.268C114.779 159.878 114.919 160.476 115.184 160.999C115.45 161.521 115.83 161.948 116.285 162.234L124.587 167.909C125.055 168.189 125.571 168.336 126.095 168.336C126.619 168.336 127.136 168.189 127.603 167.909Z" fill="#BA68C8"/>
<path d="M127.603 167.909L138.747 160.304C139.204 160.02 139.586 159.593 139.853 159.071C140.12 158.548 140.261 157.949 140.261 157.338C140.261 156.727 140.12 156.128 139.853 155.606C139.586 155.083 139.204 154.657 138.747 154.373L130.445 148.698C129.977 148.417 129.461 148.271 128.937 148.271C128.413 148.271 127.896 148.417 127.429 148.698L116.285 156.303C115.83 156.589 115.45 157.016 115.184 157.538C114.919 158.061 114.779 158.659 114.779 159.268C114.779 159.878 114.919 160.476 115.184 160.999C115.45 161.521 115.83 161.948 116.285 162.234L124.587 167.909C125.055 168.189 125.571 168.336 126.095 168.336C126.619 168.336 127.136 168.189 127.603 167.909Z" fill="white"/>
<path d="M116.285 158.365L124.587 164.04C125.055 164.321 125.571 164.467 126.095 164.467C126.619 164.467 127.136 164.321 127.603 164.04L138.747 156.435C138.929 156.362 139.087 156.223 139.199 156.038C139.311 155.853 139.371 155.631 139.371 155.404C139.371 155.176 139.311 154.954 139.199 154.77C139.087 154.585 138.929 154.446 138.747 154.373L130.445 148.698C129.978 148.417 129.461 148.271 128.937 148.271C128.413 148.271 127.896 148.417 127.429 148.698L116.285 156.303C116.103 156.376 115.945 156.515 115.833 156.7C115.721 156.885 115.661 157.107 115.661 157.334C115.661 157.562 115.721 157.783 115.833 157.968C115.945 158.153 116.103 158.292 116.285 158.365Z" fill="#3638DA"/>
<path d="M123.076 107.883L121.662 114.787L115.588 115.225L116.898 105.656L123.076 107.883Z" fill="#FFA8A7"/>
<path d="M128.996 102.686C128.996 102.686 129.693 105.606 129.407 105.771C128.968 105.85 128.522 105.85 128.084 105.771L128.996 102.686Z" fill="#F28F8F"/>
<path d="M127.833 93.3646C128.808 94.7257 129.7 96.9611 129.01 102.438C128.258 108.427 127.324 109.12 126.572 109.697C125.59 110.456 121.662 110.052 120.554 109.095C119.224 107.948 117.169 104.311 116.682 100.722C116.111 96.5074 117.302 91.8304 119.92 91.0302C123.605 89.9001 127.004 92.2098 127.833 93.3646Z" fill="#FFA8A7"/>
<path d="M116.285 107.594C117.225 108.749 119.154 109.063 120.366 109.327C121.578 109.591 125.305 109.879 126.405 106.736C127.506 103.594 126.753 101.334 128.105 100.575C129.456 99.8158 130.807 99.3209 131.162 98.9249C131.518 98.529 131.525 93.357 127.896 90.6762C124.267 87.9953 118.709 87.3767 115.052 92.8126C112.28 97.0112 113.415 104.047 116.285 107.594Z" fill="#455A64"/>
<path d="M119.941 109.368C120.882 109.467 123.856 108.914 124.754 107.462C125.653 106.01 126.015 103.412 126.147 102.051C126.159 101.515 126.325 101 126.618 100.591C126.91 100.181 127.312 99.902 127.756 99.7991C128.655 99.4609 130.64 98.3061 130.64 98.3061V97.6627C131.28 97.615 131.922 97.615 132.562 97.6627C132.98 97.7534 132.75 98.4876 131.692 99.1227C130.633 99.7579 127.728 100.987 127.283 101.408C126.837 101.828 126.628 103.602 126.273 105.491C125.917 107.38 124.817 110.201 119.941 109.368Z" fill="#37474F"/>
<path d="M128.3 117.179L131.782 114.812C132.116 113.616 131.58 113.014 130.633 113.088C129.686 113.162 129.978 112.074 129.4 111.768C128.641 111.356 128.209 111.587 127.868 111.397C127.526 111.207 127.38 110.729 126.934 110.671C124.942 110.449 123.584 113.814 123.584 113.814L128.3 117.179Z" fill="#F28F8F"/>
<path d="M104.66 147.469C104.66 147.469 120.046 138.436 122.727 136.976C125.409 135.516 129.616 133.396 131.852 133.396C132.725 133.482 133.544 133.938 134.157 134.68C134.77 135.423 135.136 136.402 135.188 137.438C135.217 139.03 135.14 140.621 134.958 142.198C130.731 143.84 126.411 145.127 122.031 146.05C115.63 147.37 104.66 147.469 104.66 147.469Z" fill="#37474F"/>
<path d="M106.331 142.247C106.331 145.992 106.032 149.886 107.348 152.624C108.665 155.363 115.797 161.698 122.511 160.37C126.9 159.495 139.924 152.393 139.924 152.393C139.924 152.393 146.242 149.646 146.27 147.691C146.311 144.813 146.144 140.754 140.635 140.927C135.613 141.084 120.798 144.747 120.798 144.747L106.331 142.247Z" fill="#455A64"/>
<path d="M110.629 112.576C113.011 109.631 114.62 109.384 115.762 109.747C118.387 110.637 120.929 111.842 123.347 113.343C123.347 113.343 122.428 123.885 126.781 126.921V143.352C126.781 143.352 126.649 145.134 124.754 146.907C123.083 148.466 119.3 150.042 114.787 149.597C109.424 149.069 106.331 142.247 106.331 142.247C106.331 142.247 106.192 128.81 106.951 123.473C107.843 117.245 109.807 113.599 110.629 112.576Z" fill="#455A64"/>
<path d="M126.781 127.721C126.781 127.721 124.148 125.247 123.347 122.03C123.347 122.03 123.661 127.078 126.781 129.635V127.721Z" fill="#37474F"/>
<path d="M151.152 135.475C152.403 135.536 153.633 135.084 154.635 134.197C154.635 134.197 155.847 131.408 157.337 131.648C157.337 131.648 157.602 130.46 156.989 130.072C156.376 129.684 156.112 129.792 155.861 129.379C155.61 128.967 155.582 128.2 154.468 128.2C154.008 128.2 154.071 127.812 152.956 127.655C151.842 127.499 150.741 130.542 149.926 130.542L151.152 135.475Z" fill="#FFA8A7"/>
<path d="M123.347 113.343C127.171 114.044 128.557 115.389 129.95 116.915C131.343 118.441 139.869 128.57 139.869 128.57L150.191 130.327C150.734 130.848 151.132 131.549 151.333 132.34C151.751 133.775 151.375 135.343 150.978 135.714C150.978 135.714 140.739 136.44 138.726 135.986C136.714 135.532 126.746 127.696 126.746 127.696C125.794 126.845 124.995 125.777 124.397 124.554C123.798 123.332 123.413 121.979 123.264 120.577C122.616 115.603 123.347 113.343 123.347 113.343Z" fill="#455A64"/>
<path d="M114.167 156.914L98.3494 179.779C98.1738 179.805 97.997 179.819 97.82 179.82C97.1928 179.832 96.5729 179.659 96.016 179.317L82.6568 170.178L81.7514 169.559C81.2568 169.221 80.8459 167.835 80.8459 166.466V162.613C80.8453 158.656 81.7243 154.769 83.3944 151.342C85.0646 147.914 87.467 145.068 90.3603 143.089L106.311 132.184L123.285 143.79L114.167 156.914Z" fill="#3638DA"/>
<g opacity="0.1">
<path d="M114.435 156.793L98.6174 179.659C98.4418 179.685 98.265 179.699 98.088 179.7C97.4608 179.712 96.8409 179.539 96.2841 179.197L82.9248 170.057L82.0194 169.439C81.5248 169.101 81.1139 167.715 81.1139 166.345V162.493C81.1134 158.536 81.9923 154.649 83.6624 151.221C85.3326 147.794 87.735 144.948 90.6283 142.969L106.579 132.064L123.553 143.67L114.435 156.793Z" fill="black"/>
</g>
<path d="M108.714 164.799L123.264 143.798L106.29 132.192L90.3463 143.088C88.284 144.502 86.4646 146.363 84.9832 148.574L108.714 164.799Z" fill="#3638DA"/>
<path d="M122.079 163.337L122.076 163.339L121.171 163.957L121.17 163.957L99.3346 178.891C99.0087 179.098 98.6575 179.228 98.299 179.278V174.219V174.219C98.2985 170.334 99.1622 166.521 100.799 163.164C102.436 159.808 104.785 157.032 107.602 155.107C107.602 155.107 107.602 155.107 107.602 155.107L109.406 153.879L109.407 153.878L122.764 144.738V160.658C122.764 161.298 122.669 161.939 122.519 162.451C122.444 162.707 122.359 162.92 122.272 163.079C122.181 163.246 122.109 163.317 122.079 163.337Z" fill="#3638DA" stroke="black"/>
<g opacity="0.2">
<path d="M123.147 160.706C123.147 162.075 122.821 163.462 122.319 163.8L121.336 164.418L99.4934 179.356C99.0959 179.61 98.6607 179.77 98.2118 179.826C98.0362 179.853 97.8594 179.867 97.6824 179.868V174.267C97.6819 170.309 98.5616 166.42 100.233 162.993C101.905 159.565 104.309 156.72 107.204 154.742L109.008 153.513L123.147 143.837V160.706Z" fill="black"/>
</g>
<path d="M127.951 188.951L136.498 188.918L148.729 180.554L136.748 190.807L127.729 190.956L127.951 188.951Z" fill="#E0E0E0"/>
<path d="M107.202 203.354C107.202 203.354 122.609 196.474 123.918 195.666C125.455 194.551 126.913 193.29 128.279 191.896C128.557 191.46 128.688 190.916 128.646 190.371C128.603 189.827 128.39 189.32 128.049 188.952C128.049 188.952 121.78 188.613 120.171 189.199C119.273 189.521 104.771 195.031 104.771 195.031L107.202 203.354Z" fill="#E0E0E0"/>
<path d="M106.512 195.666C105.238 194.371 103.956 194.907 103.643 196.854C103.523 197.928 103.619 199.02 103.923 200.042C104.227 201.064 104.73 201.987 105.391 202.735C106.666 204.03 107.947 203.503 108.261 201.548C108.38 200.474 108.284 199.381 107.98 198.36C107.676 197.338 107.173 196.415 106.512 195.666Z" fill="#455A64"/>
</svg>
