<svg width="324" height="239" viewBox="0 0 324 239" fill="none" xmlns="http://www.w3.org/2000/svg">
<path d="M291.47 222.532H270.013V222.694H291.47V222.532Z" fill="#EBEBEB"/>
<path d="M214.583 224.294H208.953V224.456H214.583V224.294Z" fill="#EBEBEB"/>
<path d="M269.365 216.52H256.933V216.681H269.365V216.52Z" fill="#EBEBEB"/>
<path d="M61.9676 217.608H33.9867V217.77H61.9676V217.608Z" fill="#EBEBEB"/>
<path d="M71.8409 217.608H67.74V217.77H71.8409V217.608Z" fill="#EBEBEB"/>
<path d="M145.865 220.342H85.1736V220.504H145.865V220.342Z" fill="#EBEBEB"/>
<path d="M153.542 183.213H28.4538C27.4727 183.213 26.5317 182.824 25.838 182.13C25.1443 181.436 24.7545 180.495 24.7545 179.514V3.66662C24.7631 2.69114 25.1566 1.75852 25.8494 1.07177C26.5422 0.385011 27.4783 -0.000281539 28.4538 -0.000244138H153.542C154.523 -0.000244138 155.464 0.389498 156.157 1.08324C156.851 1.77699 157.241 2.71791 157.241 3.69901V179.514C157.241 180.495 156.851 181.436 156.157 182.13C155.464 182.824 154.523 183.213 153.542 183.213ZM28.4538 0.129327C27.5161 0.13104 26.6174 0.504267 25.9544 1.16727C25.2914 1.83027 24.9182 2.729 24.9165 3.66662V179.514C24.9182 180.452 25.2914 181.35 25.9544 182.013C26.6174 182.676 27.5161 183.05 28.4538 183.051H153.542C154.479 183.05 155.378 182.676 156.041 182.013C156.704 181.35 157.077 180.452 157.079 179.514V3.66662C157.077 2.729 156.704 1.83027 156.041 1.16727C155.378 0.504267 154.479 0.13104 153.542 0.129327H28.4538Z" fill="#EBEBEB"/>
<path d="M293.679 183.213H168.579C167.598 183.212 166.658 182.821 165.965 182.128C165.271 181.434 164.881 180.495 164.879 179.514V3.66662C164.889 2.69167 165.284 1.76003 165.976 1.07364C166.668 0.387244 167.604 0.00140678 168.579 -0.000244141H293.679C294.653 0.00312762 295.585 0.389926 296.275 1.07632C296.965 1.7627 297.357 2.69338 297.366 3.66662V179.514C297.366 180.493 296.978 181.432 296.287 182.125C295.596 182.819 294.658 183.21 293.679 183.213ZM168.579 0.129327C167.641 0.13104 166.742 0.504267 166.079 1.16727C165.416 1.83027 165.043 2.729 165.041 3.66662V179.514C165.043 180.452 165.416 181.35 166.079 182.013C166.742 182.676 167.641 183.05 168.579 183.051H293.679C294.617 183.05 295.516 182.676 296.179 182.013C296.842 181.35 297.215 180.452 297.217 179.514V3.66662C297.215 2.729 296.842 1.83027 296.179 1.16727C295.516 0.504267 294.617 0.13104 293.679 0.129327H168.579Z" fill="#EBEBEB"/>
<path d="M323.928 212.108H0V212.27H323.928V212.108Z" fill="#EBEBEB"/>
<path d="M161.083 133.037H159.139V109.779C159.171 107.292 158.249 104.888 156.562 103.061C154.874 101.234 152.551 100.123 150.069 99.9574C148.816 99.8946 147.562 100.079 146.38 100.501C145.197 100.923 144.11 101.574 143.179 102.416C142.248 103.258 141.493 104.276 140.955 105.41C140.418 106.545 140.109 107.774 140.047 109.027C140.042 109.15 139.99 109.266 139.902 109.352C139.814 109.437 139.697 109.486 139.574 109.487H138.576C138.513 109.487 138.45 109.475 138.391 109.45C138.333 109.426 138.28 109.39 138.235 109.345C138.19 109.299 138.155 109.246 138.132 109.187C138.108 109.128 138.096 109.065 138.097 109.002C138.227 106.073 139.467 103.304 141.566 101.258C143.665 99.2122 146.465 98.0428 149.396 97.988C155.822 97.8778 161.057 103.359 161.057 109.792L161.083 133.037Z" fill="#F0F0F0"/>
<path d="M286.799 135.576H272.987V212.081H286.799V135.576Z" fill="#E6E6E6"/>
<path d="M276.757 135.576H127.103V212.081H276.757V135.576Z" fill="#F5F5F5"/>
<path d="M276.757 151.507H127.103V152.803H163.869V212.082H165.164V152.803H200.926V212.082H202.222V152.803H237.99V212.082H239.286V152.803H276.757V151.507Z" fill="#E0E0E0"/>
<path d="M160.144 185.519C159.8 185.519 159.47 185.383 159.227 185.14C158.984 184.897 158.848 184.567 158.848 184.224V178.393C158.848 178.049 158.984 177.72 159.227 177.477C159.47 177.234 159.8 177.097 160.144 177.097C160.487 177.097 160.817 177.234 161.06 177.477C161.303 177.72 161.439 178.049 161.439 178.393V184.224C161.439 184.567 161.303 184.897 161.06 185.14C160.817 185.383 160.487 185.519 160.144 185.519Z" fill="#E6E6E6"/>
<path d="M168.889 185.519C168.546 185.519 168.216 185.383 167.973 185.14C167.73 184.897 167.594 184.567 167.594 184.224V178.393C167.594 178.049 167.73 177.72 167.973 177.477C168.216 177.234 168.546 177.097 168.889 177.097C169.233 177.097 169.563 177.234 169.806 177.477C170.049 177.72 170.185 178.049 170.185 178.393V184.224C170.185 184.567 170.049 184.897 169.806 185.14C169.563 185.383 169.233 185.519 168.889 185.519Z" fill="#E6E6E6"/>
<path d="M234.265 185.519C233.921 185.519 233.591 185.383 233.348 185.14C233.105 184.897 232.969 184.567 232.969 184.224V178.393C232.969 178.049 233.105 177.72 233.348 177.477C233.591 177.234 233.921 177.097 234.265 177.097C234.608 177.097 234.938 177.234 235.181 177.477C235.424 177.72 235.56 178.049 235.56 178.393V184.224C235.56 184.567 235.424 184.897 235.181 185.14C234.938 185.383 234.608 185.519 234.265 185.519Z" fill="#E6E6E6"/>
<path d="M243.011 185.519C242.667 185.519 242.337 185.383 242.094 185.14C241.851 184.897 241.715 184.567 241.715 184.224V178.393C241.715 178.049 241.851 177.72 242.094 177.477C242.337 177.234 242.667 177.097 243.011 177.097C243.354 177.097 243.684 177.234 243.927 177.477C244.17 177.72 244.306 178.049 244.306 178.393V184.224C244.306 184.567 244.17 184.897 243.927 185.14C243.684 185.383 243.354 185.519 243.011 185.519Z" fill="#E6E6E6"/>
<path d="M290.038 133.898H272.87V137.248H290.038V133.898Z" fill="#E0E0E0"/>
<path d="M278.053 133.898H123.864V137.248H278.053V133.898Z" fill="#EBEBEB"/>
<path d="M178.951 134.281H127.842C127.512 134.281 127.195 134.15 126.962 133.916C126.729 133.683 126.598 133.367 126.598 133.037C126.598 132.707 126.729 132.391 126.962 132.157C127.195 131.924 127.512 131.793 127.842 131.793H178.951C179.281 131.793 179.597 131.924 179.83 132.157C180.064 132.391 180.195 132.707 180.195 133.037C180.195 133.367 180.064 133.683 179.83 133.916C179.597 134.15 179.281 134.281 178.951 134.281Z" fill="#E6E6E6"/>
<path d="M165.968 129.7H164.031V132.162H165.968V129.7Z" fill="#E0E0E0"/>
<path d="M166.797 130.316H163.195L163.895 126.008H166.097L166.797 130.316Z" fill="#F0F0F0"/>
<path d="M156.166 129.7H154.229V132.162H156.166V129.7Z" fill="#E0E0E0"/>
<path d="M157.001 130.316H153.393L154.099 126.008H156.295L157.001 130.316Z" fill="#F0F0F0"/>
<path d="M197.252 11.2791H196.086V102.218H197.252V11.2791Z" fill="#E0E0E0"/>
<path d="M269.845 11.2791H268.678V102.218H269.845V11.2791Z" fill="#E0E0E0"/>
<path d="M274.412 16.9995H191.519L189.77 12.918H276.161L274.412 16.9995Z" fill="#EBEBEB"/>
<path d="M274.412 22.6032H191.519L189.77 18.5217H276.161L274.412 22.6032Z" fill="#EBEBEB"/>
<path d="M274.412 28.2077H191.519L189.77 24.1262H276.161L274.412 28.2077Z" fill="#EBEBEB"/>
<path d="M274.412 33.8112H191.519L189.77 29.7297H276.161L274.412 33.8112Z" fill="#EBEBEB"/>
<path d="M274.412 39.4152H191.519L189.77 35.3337H276.161L274.412 39.4152Z" fill="#EBEBEB"/>
<path d="M274.412 45.019H191.519L189.77 40.9375H276.161L274.412 45.019Z" fill="#EBEBEB"/>
<path d="M274.412 50.6237H191.519L189.77 46.5422H276.161L274.412 50.6237Z" fill="#EBEBEB"/>
<path d="M274.412 56.2205H191.519L189.77 52.1455H276.161L274.412 56.2205Z" fill="#EBEBEB"/>
<path d="M274.412 61.8309H191.519L189.77 57.7429H276.161L274.412 61.8309Z" fill="#EBEBEB"/>
<path d="M274.412 67.4287H191.519L189.77 63.3472H276.161L274.412 67.4287Z" fill="#EBEBEB"/>
<path d="M274.412 73.0317H191.519L189.77 68.9502H276.161L274.412 73.0317Z" fill="#EBEBEB"/>
<path d="M274.412 78.6364H191.519L189.77 74.5549H276.161L274.412 78.6364Z" fill="#EBEBEB"/>
<path d="M274.412 84.2402H191.519L189.77 80.1587H276.161L274.412 84.2402Z" fill="#EBEBEB"/>
<path d="M274.412 89.8442H191.519L189.77 85.7627H276.161L274.412 89.8442Z" fill="#EBEBEB"/>
<path d="M274.412 95.4484H191.519L189.77 91.3669H276.161L274.412 95.4484Z" fill="#EBEBEB"/>
<path d="M274.412 101.052H191.519L189.77 96.9707H276.161L274.412 101.052Z" fill="#EBEBEB"/>
<path d="M276.161 101.052H189.77V103.384H276.161V101.052Z" fill="#E0E0E0"/>
<path d="M279.174 7.80664H186.757V13.2486H279.174V7.80664Z" fill="#E0E0E0"/>
<path d="M187.71 62.5898C187.461 62.5898 187.222 62.4908 187.046 62.3146C186.869 62.1384 186.77 61.8995 186.77 61.6504V29.9055C186.77 29.6563 186.869 29.4174 187.046 29.2412C187.222 29.065 187.461 28.9661 187.71 28.9661C187.959 28.9661 188.198 29.065 188.374 29.2412C188.55 29.4174 188.649 29.6563 188.649 29.9055V61.6504C188.649 61.8995 188.55 62.1384 188.374 62.3146C188.198 62.4908 187.959 62.5898 187.71 62.5898Z" fill="#E0E0E0"/>
<path d="M188.046 12.1604H187.366V31.013H188.046V12.1604Z" fill="#E0E0E0"/>
<path d="M79.0513 170.45H106.423V166.239H79.0513V170.45Z" fill="#E0E0E0"/>
<path d="M108.043 212.075H78.2415V170.787C78.2415 170.226 78.4647 169.687 78.862 169.289C79.2593 168.892 79.7981 168.669 80.36 168.669H105.95C106.512 168.669 107.051 168.892 107.448 169.289C107.846 169.687 108.069 170.226 108.069 170.787V212.075H108.043Z" fill="#F0F0F0"/>
<path d="M80.5804 167.534H105.704C106.996 167.534 108.043 166.487 108.043 165.196V163.395C108.043 162.103 106.996 161.056 105.704 161.056H80.5804C79.2887 161.056 78.2416 162.103 78.2416 163.395V165.196C78.2416 166.487 79.2887 167.534 80.5804 167.534Z" fill="#F0F0F0"/>
<path d="M99.2969 212.082H113.226V210.138L99.2969 208.843V212.082Z" fill="#E0E0E0"/>
<path d="M264.396 108.27H252.339C251.156 108.271 250.022 108.742 249.185 109.579C248.348 110.416 247.877 111.55 247.876 112.733V114.223H250.279V112.727C250.278 112.456 250.331 112.187 250.434 111.936C250.537 111.686 250.689 111.458 250.88 111.266C251.072 111.074 251.299 110.921 251.55 110.818C251.8 110.714 252.068 110.66 252.339 110.66H264.396C264.943 110.662 265.467 110.88 265.853 111.268C266.239 111.655 266.456 112.18 266.456 112.727V114.217H268.86V112.727C268.858 111.544 268.387 110.41 267.55 109.575C266.713 108.739 265.579 108.27 264.396 108.27Z" fill="#E0E0E0"/>
<path d="M278.682 117.482V130.99C278.682 131.849 278.34 132.673 277.733 133.28C277.125 133.888 276.301 134.229 275.442 134.229H246.107C245.248 134.229 244.424 133.888 243.817 133.28C243.209 132.673 242.868 131.849 242.868 130.99V117.482C242.868 116.623 243.209 115.799 243.817 115.192C244.424 114.584 245.248 114.243 246.107 114.243H275.416C275.844 114.239 276.268 114.321 276.664 114.482C277.06 114.643 277.42 114.881 277.724 115.182C278.027 115.483 278.268 115.842 278.433 116.236C278.597 116.631 278.682 117.054 278.682 117.482Z" fill="#E6E6E6"/>
<path d="M274.114 117.482V130.99C274.114 131.849 273.773 132.673 273.165 133.28C272.558 133.888 271.734 134.229 270.875 134.229H241.54C240.681 134.229 239.857 133.888 239.249 133.28C238.642 132.673 238.301 131.849 238.301 130.99V117.482C238.301 116.623 238.642 115.799 239.249 115.192C239.857 114.584 240.681 114.243 241.54 114.243H270.849C271.276 114.239 271.7 114.321 272.096 114.482C272.492 114.643 272.853 114.881 273.156 115.182C273.46 115.483 273.701 115.842 273.865 116.236C274.029 116.631 274.114 117.054 274.114 117.482Z" fill="#F5F5F5"/>
<path d="M263.956 116.542H248.66V131.838H263.956V116.542Z" fill="white"/>
<path d="M257.613 119.982H255.028V128.877H257.613V119.982Z" fill="#E0E0E0"/>
<path d="M251.873 123.131V125.716H260.768V123.131H251.873Z" fill="#E0E0E0"/>
<path d="M158.841 238.871C228.215 238.871 284.454 235.587 284.454 231.537C284.454 227.487 228.215 224.203 158.841 224.203C89.4675 224.203 33.2288 227.487 33.2288 231.537C33.2288 235.587 89.4675 238.871 158.841 238.871Z" fill="#F5F5F5"/>
<path d="M224.657 117.981C225.085 117.929 237.472 119.154 238.262 132.428L236.143 141.628C226.131 137.909 215.092 138.057 205.182 142.042L205.033 142.107L205.895 131.599C205.895 131.599 209.07 119.808 224.657 117.981Z" fill="#263238"/>
<path d="M198.646 182.093L201.133 182.306C202.042 166.509 203.826 150.775 206.478 135.175C206.956 132.654 207.929 130.253 209.341 128.111C210.753 125.969 212.577 124.129 214.706 122.697C215.605 122.048 216.585 121.519 217.621 121.123C219.525 120.307 221.569 119.867 223.64 119.827C224.481 119.827 225.321 119.886 226.154 120.002C228.033 120.291 229.826 120.987 231.408 122.043C232.149 122.61 232.858 123.218 233.533 123.863C233.889 124.232 234.22 124.623 234.524 125.036C235.616 126.604 236.37 128.382 236.736 130.257C237.102 132.132 237.072 134.063 236.649 135.927C234.012 150.187 232.171 164.583 231.136 179.048L233.623 179.216C234.641 164.865 236.455 150.582 239.059 136.432C239.556 134.227 239.586 131.943 239.148 129.726C238.709 127.509 237.812 125.408 236.513 123.559C235.232 121.755 233.57 120.256 231.644 119.167C229.718 118.079 227.576 117.428 225.37 117.262C215.652 116.614 205.539 124.511 204.042 134.644C201.37 150.348 199.568 166.189 198.646 182.093Z" fill="#263238"/>
<path opacity="0.3" d="M198.646 182.093L201.133 182.306C202.042 166.509 203.826 150.775 206.478 135.175C206.956 132.654 207.929 130.253 209.341 128.111C210.753 125.969 212.577 124.129 214.706 122.697C215.605 122.048 216.585 121.519 217.621 121.123C219.525 120.307 221.569 119.867 223.64 119.827C224.481 119.827 225.321 119.886 226.154 120.002C228.033 120.291 229.826 120.987 231.408 122.043C232.149 122.61 232.858 123.218 233.533 123.863C233.889 124.232 234.22 124.623 234.524 125.036C235.616 126.604 236.37 128.382 236.736 130.257C237.102 132.132 237.072 134.063 236.649 135.927C234.012 150.187 232.171 164.583 231.136 179.048L233.623 179.216C234.641 164.865 236.455 150.582 239.059 136.432C239.556 134.227 239.586 131.943 239.148 129.726C238.709 127.509 237.812 125.408 236.513 123.559C235.232 121.755 233.57 120.256 231.644 119.167C229.718 118.079 227.576 117.428 225.37 117.262C215.652 116.614 205.539 124.511 204.042 134.644C201.37 150.348 199.568 166.189 198.646 182.093Z" fill="white"/>
<path d="M233.669 180.59H176.437V179.262C176.437 178.003 176.938 176.795 177.828 175.904C178.719 175.014 179.927 174.513 181.186 174.513H228.914C230.173 174.513 231.381 175.014 232.271 175.904C233.162 176.795 233.662 178.003 233.662 179.262V180.59H233.669Z" fill="#263238"/>
<path d="M231.732 230.584H234.77L232.283 180.596H228.408L231.732 230.584Z" fill="#263238"/>
<path opacity="0.3" d="M231.732 230.584H234.77L232.283 180.596H228.408L231.732 230.584Z" fill="white"/>
<path d="M211.408 230.584H214.447L212.788 180.596H208.921L211.408 230.584Z" fill="#263238"/>
<path opacity="0.3" d="M211.408 230.584H214.447L212.788 180.596H208.921L211.408 230.584Z" fill="white"/>
<path d="M195.653 230.584H198.691L201.179 180.596H197.311L195.653 230.584Z" fill="#263238"/>
<path opacity="0.3" d="M195.653 230.584H198.691L201.179 180.596H197.311L195.653 230.584Z" fill="white"/>
<path d="M175.329 230.584H178.374L181.691 180.596H177.817L175.329 230.584Z" fill="#263238"/>
<path opacity="0.3" d="M175.329 230.584H178.374L181.691 180.596H177.817L175.329 230.584Z" fill="white"/>
<path d="M173.943 182.805H207.949V178.381H173.943V182.805Z" fill="#263238"/>
<path opacity="0.7" d="M173.943 182.805H207.949V178.381H173.943V182.805Z" fill="white"/>
<path d="M207.949 182.805H236.163V178.381H207.949V182.805Z" fill="#263238"/>
<path opacity="0.4" d="M207.949 182.805H236.163V178.381H207.949V182.805Z" fill="white"/>
<path d="M197.726 110.051C191.545 111.269 179.301 116.53 179.223 116.245C179.223 116.245 168.916 113.802 164.679 109.118C164.679 109.118 160.63 108.619 158.511 108.198C160.047 111.82 163.046 116.212 166.376 118.305C170.607 120.961 171.76 121.764 175.945 123.358C181.18 125.353 189.194 123.235 194.383 121.11C196.294 120.326 198.27 119.328 199.378 117.592C200.486 115.856 199.443 111.211 197.726 110.051Z" fill="#407BFF"/>
<path opacity="0.7" d="M197.726 110.051C191.545 111.269 179.301 116.53 179.223 116.245C179.223 116.245 168.916 113.802 164.679 109.118C164.679 109.118 160.63 108.619 158.511 108.198C160.047 111.82 163.046 116.212 166.376 118.305C170.607 120.961 171.76 121.764 175.945 123.358C181.18 125.353 189.194 123.235 194.383 121.11C196.294 120.326 198.27 119.328 199.378 117.592C200.486 115.856 199.443 111.211 197.726 110.051Z" fill="white"/>
<path d="M181.309 109.747H165.909C163.759 101.972 168.067 94.1528 165.909 86.3591H181.309C183.466 94.1528 179.152 101.953 181.309 109.747Z" fill="#407BFF"/>
<g opacity="0.7">
<path d="M181.309 109.747H165.909C163.759 101.972 168.067 94.1528 165.909 86.3591H181.309C183.466 94.1528 179.152 101.953 181.309 109.747Z" fill="white"/>
</g>
<path d="M168.319 105.6L165.851 106.786C165.577 107.593 165.056 108.294 164.361 108.788C163.669 109.179 162.934 109.489 162.171 109.714C161.625 109.886 161.041 109.896 160.489 109.743C159.937 109.59 159.442 109.281 159.062 108.853C158.896 108.686 158.784 108.473 158.74 108.242C158.697 108.012 158.723 107.773 158.815 107.557L161.18 103.139C161.314 102.89 161.503 102.675 161.733 102.512C161.964 102.349 162.229 102.242 162.508 102.199L166.395 101.584C166.637 101.543 166.886 101.569 167.114 101.659C167.343 101.749 167.542 101.9 167.691 102.096L168.831 103.592C168.949 103.752 169.029 103.936 169.067 104.13C169.105 104.325 169.099 104.525 169.05 104.717C169.001 104.909 168.91 105.088 168.784 105.241C168.658 105.393 168.499 105.516 168.319 105.6Z" fill="#CE7A63"/>
<path d="M220.155 146.616L223.802 159.923L203.77 164.218L191.675 157.811L195.057 146.364L220.155 146.616Z" fill="#407BFF"/>
<path opacity="0.1" d="M220.155 146.616L223.802 159.923L203.77 164.218L191.675 157.811L195.057 146.364L220.155 146.616Z" fill="black"/>
<path d="M193.107 117.702C192.742 121.112 192.727 124.551 193.061 127.964C193.249 132.551 194.247 137.371 195.497 144.808C198.004 146.279 210.709 145.67 218.82 144.62C218.328 138.142 219.137 130.678 223.543 116.043C224.566 112.649 222.286 109.39 218.645 109.047C217.673 108.949 216.637 108.872 215.581 108.826C211.87 108.58 208.148 108.58 204.438 108.826C203.252 108.936 201.969 109.079 200.771 109.228C196.45 109.779 193.904 113.109 193.107 117.702Z" fill="#3638DA"/>
<path d="M195.056 146.364C203.25 147.266 211.518 147.249 219.707 146.312C219.783 146.295 219.855 146.263 219.918 146.219C219.982 146.174 220.036 146.117 220.078 146.052C220.119 145.986 220.147 145.913 220.161 145.836C220.174 145.76 220.172 145.681 220.154 145.606V145.528C219.954 145.055 219.746 144.582 219.558 144.109C219.517 144.005 219.443 143.917 219.347 143.858C219.251 143.8 219.139 143.774 219.027 143.785C211.151 144.647 203.205 144.647 195.329 143.785C195.26 143.776 195.19 143.781 195.124 143.798C195.057 143.816 194.994 143.847 194.94 143.889C194.885 143.931 194.839 143.984 194.804 144.044C194.77 144.104 194.748 144.17 194.739 144.239C194.742 144.251 194.742 144.265 194.739 144.277C194.687 144.77 194.642 145.256 194.597 145.748C194.587 145.82 194.593 145.894 194.613 145.964C194.632 146.034 194.666 146.1 194.711 146.157C194.756 146.215 194.812 146.262 194.876 146.298C194.94 146.333 195.01 146.356 195.082 146.364H195.056Z" fill="#407BFF"/>
<path d="M204.146 108.626C198.089 116.4 197.667 135.616 199.19 173.36C199.326 176.651 196.171 176.411 193.081 175.776C188.481 174.824 186.654 175.167 186.654 175.167C186.654 175.167 193.994 155.894 192.802 138.609C191.61 121.324 192.439 115.215 195.244 112.047C198.05 108.879 204.146 108.626 204.146 108.626Z" fill="#407BFF"/>
<path opacity="0.7" d="M204.146 108.626C198.089 116.4 197.667 135.616 199.19 173.36C199.32 176.651 196.326 176.295 193.074 175.776C190.955 175.39 188.807 175.186 186.654 175.167C186.654 175.167 193.994 155.894 192.802 138.609C191.61 121.324 192.439 115.215 195.244 112.047C198.05 108.879 204.146 108.626 204.146 108.626Z" fill="white"/>
<path d="M214.809 96.2712C213.844 99.8409 212.652 106.43 214.984 108.827C214.984 108.827 211.907 111.295 205.383 113.673C203.44 113.174 203.848 108.827 203.848 108.827C207.923 107.868 208.039 104.94 207.547 102.121L214.809 96.2712Z" fill="#CE7A63"/>
<path opacity="0.2" d="M211.849 98.6558L207.541 102.115C207.662 102.756 207.727 103.407 207.735 104.059C209.283 103.839 211.506 102.167 211.791 100.56C211.92 99.9336 211.939 99.2893 211.849 98.6558Z" fill="black"/>
<path d="M208.124 83.1525C203.882 88.8868 202.052 96.0533 203.025 103.119C200.978 99.2323 199.138 101.351 198.989 96.9712C198.924 94.7685 200.071 85.8346 201.049 83.8586C202.027 81.8827 204.029 80.289 206.232 80.3797C207.027 80.3845 207.791 80.6953 208.363 81.2478C208.901 81.8244 208.609 82.5241 208.124 83.1525Z" fill="#263238"/>
<path d="M217.874 89.0741C216.792 94.8659 216.449 97.3407 213.125 100.088C208.15 104.247 201.321 102.031 200.648 96.1551C200.058 90.8362 201.943 82.2586 207.91 80.3474C209.18 79.8835 210.551 79.769 211.88 80.0159C213.208 80.2629 214.447 80.8622 215.465 81.7513C216.483 82.6404 217.244 83.7866 217.668 85.0702C218.091 86.3538 218.163 87.7276 217.874 89.0481V89.0741Z" fill="#CE7A63"/>
<path d="M207.819 90.4017C207.683 90.8746 207.314 91.205 207.016 91.1402C206.718 91.0754 206.569 90.6349 206.705 90.1619C206.841 89.689 207.21 89.3521 207.515 89.4169C207.819 89.4817 207.962 89.9222 207.819 90.4017Z" fill="#263238"/>
<path d="M202.896 89.2162C202.76 89.6891 202.397 90.0195 202.092 89.9547C201.788 89.8899 201.645 89.4429 201.788 88.9765C201.93 88.51 202.287 88.1666 202.591 88.2379C202.896 88.3092 203.038 88.7562 202.896 89.2162Z" fill="#263238"/>
<path d="M202.721 88.29L201.684 87.7134C201.684 87.7134 202.008 88.7564 202.721 88.29Z" fill="#263238"/>
<path d="M204.276 90.3499C203.538 91.3418 202.678 92.2365 201.717 93.0125C201.909 93.2409 202.153 93.4216 202.427 93.5407C202.701 93.6598 202.999 93.7141 203.297 93.6993L204.276 90.3499Z" fill="#BA4D3C"/>
<path d="M205.487 96.044C205.216 96.031 204.947 95.992 204.684 95.9274C204.666 95.9244 204.649 95.9177 204.634 95.9077C204.618 95.8977 204.606 95.8847 204.596 95.8694C204.586 95.8541 204.58 95.837 204.577 95.8191C204.574 95.8012 204.575 95.7829 204.58 95.7654C204.592 95.7287 204.617 95.6977 204.651 95.6786C204.684 95.6594 204.724 95.6534 204.761 95.6617C205.363 95.7944 205.987 95.7906 206.586 95.6504C207.186 95.5103 207.747 95.2374 208.227 94.8519C208.254 94.8254 208.29 94.8105 208.328 94.8105C208.365 94.8105 208.402 94.8254 208.428 94.8519C208.453 94.8794 208.467 94.9152 208.467 94.9523C208.467 94.9895 208.453 95.0253 208.428 95.0528C207.604 95.7349 206.556 96.088 205.487 96.044Z" fill="#263238"/>
<path d="M203.751 81.1246C205.565 78.6303 210.495 77.9501 213.384 78.6368C223.621 81.0792 218.924 89.5856 224.852 94.3668C223.128 97.457 221.47 96.8027 219.461 98.1956C218.289 99.0119 215.179 101.558 213.773 101.435C213.844 98.5389 215.114 95.209 214.525 92.3649C214.011 89.5347 212.762 86.8894 210.903 84.6943C209.018 82.6211 206.472 80.9821 203.751 81.1246Z" fill="#263238"/>
<path opacity="0.2" d="M203.751 81.1246C205.565 78.6303 210.495 77.9501 213.384 78.6368C223.621 81.0792 218.924 89.5856 224.852 94.3668C223.128 97.457 221.47 96.8027 219.461 98.1956C218.289 99.0119 215.179 101.558 213.773 101.435C213.844 98.5389 215.114 95.209 214.525 92.3649C214.011 89.5347 212.762 86.8894 210.903 84.6943C209.018 82.6211 206.472 80.9821 203.751 81.1246Z" fill="black"/>
<path d="M203.751 81.1246C205.565 78.6303 210.495 77.9501 213.384 78.6368C223.621 81.0792 218.924 89.5856 224.852 94.3668C223.128 97.457 221.47 96.8027 219.461 98.1956C218.289 99.0119 215.179 101.558 213.773 101.435C213.844 98.5389 215.114 95.209 214.525 92.3649C214.011 89.5347 212.762 86.8894 210.903 84.6943C209.018 82.6211 206.472 80.9821 203.751 81.1246Z" fill="#263238"/>
<path opacity="0.1" d="M203.751 81.1246C205.565 78.6303 210.495 77.9501 213.384 78.6368C223.621 81.0792 218.924 89.5856 224.852 94.3668C223.128 97.457 221.47 96.8027 219.461 98.1956C218.289 99.0119 215.179 101.558 213.773 101.435C213.844 98.5389 215.114 95.209 214.525 92.3649C214.011 89.5347 212.762 86.8894 210.903 84.6943C209.018 82.6211 206.472 80.9821 203.751 81.1246Z" fill="black"/>
<path d="M217.531 94.9364C217.234 95.4158 216.839 95.8273 216.372 96.1443C215.906 96.4613 215.378 96.6766 214.823 96.7763C213.443 96.9707 213.041 95.364 213.682 93.8869C214.278 92.5912 215.658 90.8549 216.922 91.3473C218.185 91.8397 218.328 93.6731 217.531 94.9364Z" fill="#CE7A63"/>
<path d="M210.028 88.5101C209.993 88.4991 209.962 88.4799 209.936 88.4539C209.91 88.428 209.89 88.3961 209.879 88.3611C209.76 88.0314 209.561 87.7364 209.3 87.5025C209.039 87.2685 208.724 87.1027 208.383 87.02C208.315 87.0104 208.254 86.9743 208.213 86.9197C208.171 86.865 208.153 86.7963 208.163 86.7285C208.16 86.7179 208.16 86.7067 208.163 86.6961C208.18 86.6197 208.226 86.5528 208.291 86.5094C208.356 86.466 208.435 86.4493 208.512 86.4629C208.946 86.5586 209.348 86.7627 209.681 87.0562C210.014 87.3496 210.268 87.7228 210.417 88.1408C210.442 88.213 210.438 88.2921 210.405 88.3612C210.373 88.4303 210.314 88.4837 210.242 88.5101C210.174 88.5371 210.097 88.5371 210.028 88.5101Z" fill="#263238"/>
<path d="M201.807 86.411C201.772 86.4101 201.737 86.4022 201.704 86.3877C201.672 86.3732 201.643 86.3523 201.619 86.3263C201.595 86.3004 201.576 86.2698 201.564 86.2365C201.552 86.2032 201.546 86.1678 201.548 86.1324C201.55 86.0911 201.562 86.0509 201.582 86.0149C201.602 85.979 201.63 85.9482 201.665 85.9251C202.01 85.6105 202.424 85.3802 202.874 85.2521C203.323 85.124 203.796 85.1015 204.256 85.1865C204.325 85.2063 204.383 85.2515 204.419 85.313C204.455 85.3744 204.466 85.4474 204.45 85.5169C204.424 85.5897 204.372 85.6502 204.304 85.6872C204.236 85.7242 204.157 85.7351 204.081 85.7178C203.719 85.6568 203.347 85.6794 202.994 85.7838C202.642 85.8882 202.318 86.0717 202.047 86.3203C202.016 86.3516 201.978 86.3758 201.937 86.3915C201.895 86.4071 201.851 86.4137 201.807 86.411Z" fill="#263238"/>
<path d="M207.644 89.4755L206.608 88.8989C206.608 88.8989 206.932 89.9161 207.644 89.4755Z" fill="#263238"/>
<path d="M204.632 80.8783C204.192 81.3565 203.841 81.9094 203.595 82.5109C203.473 82.8113 203.419 83.135 203.437 83.4587C203.455 83.7824 203.545 84.0981 203.699 84.3832C204.025 84.8559 204.492 85.214 205.033 85.4068C205.563 85.6384 206.118 85.81 206.686 85.9186C206.387 85.67 206.166 85.3399 206.051 84.9685C205.936 84.597 205.931 84.2001 206.038 83.8261C206.101 84.1931 206.242 84.5422 206.452 84.8497C206.663 85.1571 206.937 85.4157 207.256 85.6077C207.839 85.951 208.493 86.1389 209.096 86.4434C210.994 87.3958 214.531 92.3842 211.914 102.756C214.227 101.901 217.472 93.7577 216.935 91.3477C216.397 88.9377 216.287 82.7442 210.126 80.5803C208.461 80.0037 206.323 80.3989 204.632 80.8783Z" fill="#263238"/>
<path d="M174.707 225.052L169.142 225.59L165.845 209.912L172.407 209.154L174.707 225.052Z" fill="#CE7A63"/>
<path d="M166.842 224.294C167.358 223.769 168.051 223.455 168.786 223.413L174.753 222.998C174.887 222.981 175.023 223.017 175.132 223.098C175.24 223.179 175.313 223.298 175.336 223.432L176.489 228.971C176.555 229.275 176.498 229.593 176.33 229.855C176.163 230.117 175.898 230.302 175.595 230.371H175.569C173.314 230.954 171.896 230.481 168.443 230.72C166.318 230.869 161.802 231.712 158.906 231.232C156.01 230.753 156.38 227.883 157.61 227.825C162.055 227.682 165.696 225.453 166.842 224.294Z" fill="#263238"/>
<g opacity="0.2">
<path d="M165.845 209.918L167.762 219.033L173.664 217.802L172.414 209.16L165.845 209.918Z" fill="black"/>
</g>
<path d="M200.725 177.409C200.505 177.409 200.278 177.409 200.045 177.409C199.666 177.403 199.287 177.375 198.911 177.324L169.11 175.731C173.923 180.143 174.714 215.496 174.714 215.496L173.289 215.8L166.81 217.18L165.624 217.433C165.624 217.433 162.923 205.856 159.794 192.575C158.213 185.85 156.166 178.899 155.259 172.226C155.012 170.452 154.869 168.665 154.831 166.874C154.831 166.324 154.831 165.78 154.831 165.235C154.828 165.179 154.828 165.123 154.831 165.067C154.831 164.834 154.831 164.613 154.883 164.419C155.033 163.341 155.482 162.327 156.179 161.491L156.399 161.238C156.472 161.153 156.55 161.073 156.632 160.998C156.788 160.837 156.953 160.683 157.125 160.538C157.306 160.389 157.487 160.24 157.682 160.098L158.181 159.754C158.388 159.625 158.595 159.502 158.828 159.379C158.937 159.314 159.05 159.256 159.165 159.204C159.502 159.022 159.852 158.854 160.221 158.698L160.539 158.562L160.973 158.4C161.102 158.342 161.232 158.297 161.362 158.251C161.757 158.109 162.165 157.973 162.586 157.863L162.8 157.798H162.858C174.163 154.598 193.392 157.066 193.392 157.066C193.392 157.066 198.471 153.308 203.867 152.596L204.632 152.68L207.035 152.946C207.07 152.942 207.105 152.942 207.139 152.946C215.088 166.79 210.158 177.305 200.725 177.409Z" fill="#3638DA"/>
<g opacity="0.1">
<path d="M200.728 179.215C200.507 179.215 200.281 179.215 200.047 179.215C199.668 179.209 199.289 179.181 198.914 179.13L169.112 177.537C173.926 181.949 174.716 217.302 174.716 217.302L173.291 217.607L166.812 218.987L165.627 219.239C165.627 219.239 162.925 207.662 159.796 194.381C158.215 187.656 156.168 180.705 155.261 174.032C155.014 172.258 154.872 170.471 154.833 168.681C154.833 168.13 154.833 167.586 154.833 167.042C154.83 166.985 154.83 166.929 154.833 166.873C154.833 166.64 154.833 166.42 154.885 166.225C155.035 165.147 155.484 164.133 156.181 163.297L156.401 163.044C156.474 162.96 156.552 162.88 156.635 162.805C156.791 162.643 156.955 162.489 157.127 162.345C157.308 162.196 157.49 162.047 157.684 161.904L158.183 161.561C158.39 161.431 158.598 161.308 158.831 161.185C158.94 161.12 159.052 161.062 159.168 161.01C159.505 160.829 159.854 160.66 160.224 160.505L160.541 160.369L160.975 160.207C161.105 160.148 161.234 160.103 161.364 160.058C161.759 159.915 162.167 159.779 162.588 159.669L162.802 159.604H162.86C174.165 156.404 193.394 158.872 193.394 158.872C193.394 158.872 198.473 155.115 203.87 154.402L204.634 154.486L207.038 154.752C207.072 154.749 207.107 154.749 207.141 154.752C215.091 168.596 210.16 179.111 200.728 179.215Z" fill="black"/>
</g>
<path d="M137.864 198.432L136.27 200.874L132.72 206.316L126.779 206.938L131.282 197.479L134.34 191.04L137.864 198.432Z" fill="#CE7A63"/>
<path d="M128.276 202.863L133.193 205.934C133.303 205.995 133.387 206.095 133.429 206.215C133.471 206.334 133.468 206.464 133.42 206.582L131.01 212.205C130.942 212.339 130.848 212.459 130.734 212.557C130.619 212.656 130.487 212.73 130.344 212.777C130.2 212.824 130.049 212.842 129.899 212.831C129.749 212.819 129.602 212.778 129.468 212.71H129.436C127.142 211.317 126.112 210.533 123.203 208.823L115.967 204.625C113.492 203.174 114.826 200.673 115.999 201.055C121.182 202.779 124.7 202.999 127.013 202.636C127.447 202.559 127.895 202.64 128.276 202.863Z" fill="#263238"/>
<g opacity="0.2">
<path d="M137.864 198.432L136.276 200.874H136.27L131.281 197.479L134.339 191.04L137.864 198.432Z" fill="black"/>
</g>
<path d="M202.643 177.953C201.987 177.874 201.338 177.748 200.7 177.577C200.479 177.525 200.252 177.46 200.019 177.389C194.551 175.815 186.68 171.507 179.353 167.263C172.602 163.376 166.337 159.489 162.865 157.908H162.806L162.593 157.973C162.172 158.089 161.763 158.226 161.368 158.368C161.236 158.407 161.106 158.455 160.98 158.511L160.545 158.673L160.228 158.809C159.859 158.964 159.509 159.139 159.172 159.314C159.055 159.366 158.945 159.431 158.835 159.489C158.615 159.612 158.408 159.735 158.187 159.865L157.688 160.214C157.494 160.357 157.313 160.499 157.131 160.648C156.959 160.793 156.795 160.947 156.639 161.108C156.555 161.186 156.477 161.27 156.406 161.348L156.185 161.601C155.489 162.437 155.04 163.451 154.89 164.529C154.89 164.749 154.844 164.976 154.838 165.177C154.838 165.721 154.838 166.265 154.838 166.816C154.87 168.617 155.006 170.415 155.246 172.2V172.336C147.109 187.01 138.648 200.317 138.648 200.317L137.21 199.325L132.027 195.775L131.133 195.127C131.133 195.127 140.164 173.968 146.377 155.116C147.513 151.649 149.722 148.633 152.685 146.505C155.647 144.376 159.21 143.244 162.858 143.273C178.193 143.409 198.328 151.883 198.328 151.883L203.855 152.473L204.619 152.557L207.023 152.822C207.057 152.819 207.092 152.819 207.126 152.822C208.422 152.965 209.873 153.069 211.279 153.172C212.832 153.284 214.313 153.876 215.515 154.866C216.718 155.856 217.583 157.195 217.991 158.698C222.111 173.716 212.309 179.138 202.643 177.953Z" fill="#3638DA"/>
<path d="M215.237 108.27C215.237 108.27 211.02 112.014 209.763 121.052C207.755 135.622 208.804 163.713 209.556 179.761C209.583 180.308 209.739 180.842 210.011 181.318C210.283 181.794 210.664 182.198 211.123 182.499C211.581 182.8 212.105 182.988 212.65 183.048C213.195 183.108 213.746 183.038 214.259 182.844C219.267 180.979 227.449 182.443 231.103 179.275C231.369 174.442 222.96 149.746 223.776 136.963C224.592 124.181 226.186 113.045 224.534 110.635C222.882 108.224 215.237 108.27 215.237 108.27Z" fill="#3638DA"/>
<path opacity="0.7" d="M215.465 108.511C215.465 108.511 211.248 112.256 209.991 121.293C207.982 135.864 209.142 163.955 209.9 180.002C209.926 180.549 210.081 181.083 210.353 181.559C210.624 182.035 211.005 182.44 211.463 182.74C211.921 183.041 212.444 183.229 212.989 183.289C213.533 183.349 214.084 183.28 214.597 183.086C219.605 181.22 227.677 182.684 231.351 179.516C231.616 174.683 223.207 149.987 224.023 137.205C224.84 124.422 226.433 113.286 224.781 110.876C223.129 108.466 215.465 108.511 215.465 108.511Z" fill="white"/>
<path d="M215.049 127.446C215.021 127.444 214.994 127.437 214.969 127.425C214.943 127.413 214.921 127.395 214.902 127.374C214.883 127.353 214.869 127.329 214.86 127.302C214.851 127.275 214.847 127.247 214.849 127.219C214.85 127.181 214.862 127.145 214.882 127.113C214.903 127.081 214.931 127.055 214.965 127.038L215.866 126.597C216.707 126.194 217.406 125.544 217.869 124.734C218.332 123.924 218.537 122.992 218.457 122.062L217.725 113.297C217.671 112.644 217.398 112.029 216.952 111.55C216.505 111.071 215.91 110.756 215.263 110.657C214.615 110.557 213.954 110.679 213.384 111.001C212.814 111.324 212.369 111.829 212.121 112.435L208.778 120.559C208.42 121.421 208.331 122.371 208.524 123.283C208.717 124.196 209.183 125.029 209.86 125.671L210.592 126.364C210.631 126.405 210.653 126.46 210.653 126.516C210.653 126.573 210.631 126.628 210.592 126.669C210.572 126.689 210.549 126.705 210.522 126.716C210.496 126.727 210.468 126.732 210.44 126.732C210.412 126.732 210.384 126.727 210.357 126.716C210.331 126.705 210.308 126.689 210.288 126.669L209.556 125.975C208.817 125.272 208.31 124.36 208.102 123.362C207.893 122.363 207.994 121.325 208.389 120.384L211.758 112.28C212.045 111.586 212.557 111.008 213.211 110.64C213.866 110.271 214.625 110.134 215.367 110.249C216.109 110.364 216.791 110.725 217.304 111.274C217.816 111.824 218.128 112.529 218.192 113.277L218.917 122.03C219.001 123.048 218.772 124.067 218.262 124.951C217.751 125.835 216.983 126.543 216.06 126.98L215.16 127.414C215.128 127.437 215.089 127.449 215.049 127.446Z" fill="#263238"/>
<path d="M218.068 115.215C218.016 115.212 217.967 115.191 217.929 115.155C217.891 115.12 217.867 115.072 217.861 115.02C217.715 114.333 217.364 113.706 216.854 113.223C216.343 112.74 215.699 112.424 215.004 112.316C214.31 112.207 213.6 112.313 212.967 112.618C212.334 112.922 211.808 113.412 211.46 114.022C211.454 114.054 211.442 114.084 211.423 114.11C211.405 114.136 211.381 114.158 211.353 114.173C211.325 114.189 211.294 114.199 211.262 114.202C211.23 114.204 211.198 114.2 211.168 114.189C211.138 114.178 211.111 114.161 211.088 114.138C211.065 114.115 211.048 114.088 211.037 114.058C211.026 114.028 211.022 113.996 211.024 113.964C211.027 113.932 211.036 113.901 211.052 113.873C211.436 113.173 212.026 112.608 212.743 112.255C213.46 111.901 214.268 111.778 215.057 111.9C215.846 112.023 216.579 112.385 217.155 112.939C217.731 113.493 218.122 114.21 218.276 114.994C218.281 115.05 218.265 115.106 218.229 115.149C218.194 115.193 218.143 115.221 218.088 115.228L218.068 115.215Z" fill="#263238"/>
<path d="M215.276 110.654C215.248 110.652 215.221 110.645 215.196 110.633C215.171 110.62 215.149 110.603 215.131 110.582C215.113 110.561 215.099 110.536 215.091 110.509C215.082 110.483 215.079 110.455 215.082 110.427C215.173 109.371 215.082 107.44 214.091 106.916C214.066 106.902 214.044 106.884 214.027 106.862C214.009 106.84 213.996 106.814 213.988 106.787C213.98 106.76 213.978 106.732 213.981 106.704C213.984 106.676 213.993 106.649 214.006 106.624C214.02 106.599 214.038 106.578 214.06 106.56C214.082 106.543 214.108 106.529 214.135 106.522C214.162 106.514 214.19 106.511 214.218 106.515C214.246 106.518 214.273 106.526 214.298 106.54C215.723 107.317 215.516 110.142 215.484 110.466C215.479 110.517 215.455 110.565 215.416 110.6C215.378 110.635 215.328 110.654 215.276 110.654Z" fill="#263238"/>
<path d="M210.916 126.584C210.851 126.993 210.586 127.284 210.32 127.232C210.055 127.18 209.893 126.837 209.957 126.435C210.022 126.034 210.281 125.736 210.547 125.788C210.813 125.839 210.975 126.189 210.916 126.584Z" fill="#263238"/>
<path d="M215.535 127.31C215.477 127.705 215.211 127.997 214.946 127.958C214.68 127.919 214.518 127.556 214.583 127.155C214.648 126.753 214.907 126.468 215.173 126.507C215.438 126.546 215.6 126.902 215.535 127.31Z" fill="#263238"/>
<path d="M203.854 118.907C203.634 119.808 202.973 120.423 202.403 120.281C201.833 120.138 201.509 119.309 201.755 118.383C202.001 117.456 202.636 116.867 203.206 117.016C203.777 117.165 204.075 118.007 203.854 118.907Z" fill="#263238"/>
<path d="M202.015 118.597H201.969C201.941 118.595 201.914 118.588 201.888 118.575C201.863 118.563 201.84 118.546 201.822 118.525C201.803 118.504 201.789 118.479 201.78 118.453C201.77 118.426 201.767 118.398 201.768 118.37C201.995 114.742 204.152 108.736 206.517 106.773C206.537 106.752 206.56 106.735 206.586 106.724C206.612 106.712 206.641 106.707 206.669 106.707C206.698 106.707 206.726 106.712 206.752 106.724C206.779 106.735 206.802 106.752 206.822 106.773C206.842 106.793 206.858 106.817 206.869 106.843C206.88 106.869 206.885 106.897 206.885 106.925C206.885 106.954 206.88 106.982 206.869 107.008C206.858 107.034 206.842 107.058 206.822 107.078C206.807 107.094 206.79 107.107 206.77 107.117C204.489 109.06 202.39 114.832 202.177 118.402C202.175 118.448 202.158 118.492 202.129 118.527C202.099 118.562 202.059 118.587 202.015 118.597Z" fill="#263238"/>
<path d="M204.496 118.998C204.347 119.769 203.777 120.294 203.2 120.209C202.896 120.09 202.649 119.86 202.507 119.566C202.365 119.271 202.34 118.934 202.436 118.622C202.578 117.845 203.155 117.326 203.732 117.411C204.036 117.53 204.283 117.76 204.425 118.054C204.567 118.349 204.592 118.686 204.496 118.998Z" fill="white"/>
<path d="M204.541 119.07C204.34 120.022 203.816 120.722 203.381 120.631C202.947 120.54 202.734 119.685 202.967 118.726C203.2 117.767 203.692 117.074 204.126 117.171C204.561 117.269 204.723 118.111 204.541 119.07Z" fill="#263238"/>
<path d="M195.795 139.788L182.281 140.034C182.025 140.035 181.777 139.943 181.584 139.775C181.391 139.607 181.266 139.374 181.231 139.121L178.64 118.441C178.623 118.323 178.632 118.203 178.666 118.089C178.699 117.975 178.757 117.87 178.835 117.78C178.913 117.69 179.01 117.619 179.118 117.569C179.226 117.52 179.344 117.495 179.463 117.495L192.996 117.262C193.252 117.261 193.5 117.353 193.693 117.521C193.886 117.689 194.011 117.922 194.046 118.175L196.637 138.855C196.652 138.973 196.642 139.094 196.606 139.207C196.57 139.321 196.51 139.426 196.43 139.515C196.35 139.603 196.252 139.673 196.143 139.721C196.033 139.768 195.914 139.791 195.795 139.788Z" fill="#263238"/>
<path d="M188.06 118.979L184.82 119.037C184.502 119.04 184.194 118.925 183.955 118.714C183.716 118.504 183.563 118.213 183.525 117.897L183.279 115.966L188.85 115.863L189.083 117.767C189.11 117.917 189.104 118.07 189.064 118.216C189.025 118.362 188.954 118.498 188.856 118.614C188.758 118.729 188.636 118.822 188.499 118.885C188.361 118.948 188.211 118.98 188.06 118.979Z" fill="#263238"/>
<path opacity="0.7" d="M188.06 118.979L184.82 119.037C184.502 119.04 184.194 118.925 183.955 118.714C183.716 118.504 183.563 118.213 183.525 117.897L183.279 115.966L188.85 115.863L189.083 117.767C189.11 117.917 189.104 118.07 189.064 118.216C189.025 118.362 188.954 118.498 188.856 118.614C188.758 118.729 188.636 118.822 188.499 118.885C188.361 118.948 188.211 118.98 188.06 118.979Z" fill="white"/>
<path d="M193.618 117.294H192.97C193.226 117.296 193.472 117.39 193.664 117.557C193.857 117.725 193.983 117.955 194.02 118.208L196.611 138.894C196.628 139.012 196.619 139.132 196.586 139.246C196.552 139.36 196.494 139.465 196.416 139.555C196.338 139.644 196.242 139.716 196.133 139.766C196.025 139.815 195.908 139.84 195.789 139.84H196.436C196.555 139.84 196.673 139.815 196.781 139.766C196.889 139.716 196.985 139.644 197.062 139.555C197.14 139.465 197.197 139.359 197.23 139.245C197.263 139.131 197.271 139.011 197.253 138.894L194.661 118.208C194.624 117.957 194.499 117.727 194.308 117.559C194.117 117.392 193.872 117.298 193.618 117.294Z" fill="white"/>
<path opacity="0.2" d="M219.889 113.673C220.09 114.113 215.71 131.567 215.71 131.567L219.047 133.037L219.889 113.673Z" fill="black"/>
<path d="M227.074 124.945C226.316 131.793 225.616 134.468 225.13 135.213C222.616 144.497 214.622 139.826 213.469 139.444C211.473 138.796 209.413 137.435 207.508 136.554C203.803 134.876 200.304 133.548 196.838 131.417L198.613 127.588C198.613 127.588 211.914 130.477 213.657 130.827C214.415 130.996 218.192 131.618 218.107 129.59C218.496 128.903 218.839 117.171 219.928 112.487C220.054 111.962 220.285 111.468 220.608 111.035L220.718 110.893C221.444 109.908 221.923 109.915 223.251 109.966C226.147 110.083 227.514 112.318 227.819 115.201C228.104 117.909 227.398 122.276 227.074 124.945Z" fill="#407BFF"/>
<g opacity="0.7">
<path d="M227.074 124.945C226.316 131.793 225.616 134.468 225.13 135.213C222.616 144.497 214.622 139.826 213.469 139.444C211.473 138.796 209.413 137.435 207.508 136.554C203.803 134.876 200.304 133.548 196.838 131.417L198.613 127.588C198.613 127.588 211.914 130.477 213.657 130.827C214.415 130.996 218.192 131.618 218.107 129.59C218.496 128.903 218.839 117.171 219.928 112.487C220.054 111.962 220.285 111.468 220.608 111.035L220.718 110.893C221.444 109.908 221.923 109.915 223.251 109.966C226.147 110.083 227.514 112.318 227.819 115.201C228.104 117.909 227.398 122.276 227.074 124.945Z" fill="white"/>
</g>
<path d="M198.769 128.043C198.873 128.509 198.88 128.992 198.789 129.462C198.699 129.931 198.513 130.377 198.244 130.772C197.974 131.167 197.626 131.502 197.222 131.757C196.817 132.012 196.365 132.181 195.892 132.254C194.833 132.41 193.76 132.451 192.692 132.377L192.446 125.801L197.479 126.786C197.794 126.847 198.083 126.998 198.312 127.221C198.541 127.445 198.7 127.73 198.769 128.043Z" fill="#CE7A63"/>
<path d="M192.446 125.801L192.711 132.396L190.269 132.539C189.551 132.584 188.841 132.374 188.264 131.946C187.686 131.518 187.279 130.899 187.114 130.2L187.081 130.044C186.987 129.643 186.975 129.227 187.046 128.821C187.117 128.414 187.27 128.027 187.495 127.682C187.72 127.336 188.014 127.04 188.357 126.812C188.7 126.583 189.086 126.427 189.491 126.352L192.446 125.801Z" fill="#CE7A63"/>
<path d="M132.934 122.004L131.178 139.807H134.048L132.934 122.004Z" fill="#263238"/>
<path d="M154.358 139.704L133.75 139.788L132.746 122.011L153.347 121.92L154.358 139.704Z" fill="#407BFF"/>
<path opacity="0.6" d="M154.358 139.704L133.75 139.788L132.746 122.011L153.347 121.92L154.358 139.704Z" fill="white"/>
<path d="M153.348 121.92L132.746 122.01L132.552 118.68L153.16 118.596L153.348 121.92Z" fill="#263238"/>
<path d="M135.635 117.566C135.625 117.419 135.561 117.282 135.454 117.181C135.347 117.08 135.206 117.023 135.059 117.022C134.987 117.021 134.917 117.034 134.851 117.062C134.786 117.09 134.727 117.131 134.678 117.183C134.629 117.235 134.592 117.296 134.568 117.363C134.544 117.43 134.535 117.502 134.54 117.572C134.54 117.767 134.65 119.574 134.663 119.769C134.673 119.916 134.738 120.054 134.844 120.156C134.951 120.258 135.092 120.316 135.24 120.319C135.311 120.32 135.381 120.305 135.446 120.277C135.511 120.249 135.57 120.208 135.618 120.156C135.667 120.105 135.704 120.044 135.729 119.977C135.753 119.91 135.763 119.839 135.758 119.769C135.752 119.613 135.648 117.721 135.635 117.566Z" fill="#407BFF"/>
<path d="M139.6 117.553C139.592 117.406 139.528 117.266 139.421 117.164C139.314 117.062 139.172 117.004 139.024 117.003C138.952 117.002 138.881 117.017 138.816 117.046C138.75 117.074 138.691 117.116 138.643 117.168C138.594 117.22 138.557 117.282 138.533 117.35C138.509 117.417 138.5 117.489 138.505 117.56C138.505 117.754 138.616 119.562 138.628 119.756C138.64 119.903 138.706 120.041 138.814 120.142C138.922 120.243 139.064 120.299 139.212 120.3C139.282 120.3 139.353 120.286 139.418 120.258C139.483 120.23 139.541 120.189 139.59 120.137C139.639 120.086 139.676 120.025 139.7 119.958C139.724 119.891 139.734 119.82 139.73 119.75C139.717 119.594 139.613 117.709 139.6 117.553Z" fill="#407BFF"/>
<path d="M143.572 117.534C143.56 117.386 143.494 117.249 143.386 117.148C143.278 117.047 143.136 116.991 142.989 116.989C142.917 116.988 142.847 117.002 142.781 117.03C142.716 117.057 142.657 117.098 142.608 117.15C142.559 117.202 142.522 117.264 142.498 117.331C142.474 117.398 142.465 117.469 142.47 117.54C142.47 117.734 142.587 119.542 142.593 119.736C142.603 119.885 142.669 120.024 142.777 120.126C142.885 120.228 143.028 120.286 143.176 120.287C143.248 120.286 143.318 120.271 143.383 120.242C143.448 120.213 143.507 120.172 143.555 120.12C143.604 120.067 143.641 120.006 143.665 119.939C143.689 119.872 143.699 119.801 143.695 119.73C143.682 119.574 143.578 117.689 143.572 117.534Z" fill="#407BFF"/>
<path d="M147.536 117.521C147.527 117.372 147.461 117.233 147.353 117.131C147.245 117.029 147.102 116.972 146.953 116.97C146.883 116.971 146.813 116.986 146.748 117.014C146.684 117.043 146.625 117.084 146.577 117.135C146.529 117.187 146.491 117.247 146.467 117.314C146.442 117.38 146.431 117.45 146.435 117.521C146.435 117.715 146.552 119.529 146.565 119.724C146.574 119.87 146.639 120.008 146.746 120.109C146.853 120.21 146.994 120.266 147.141 120.268C147.212 120.269 147.283 120.255 147.348 120.227C147.414 120.2 147.473 120.159 147.522 120.107C147.571 120.055 147.608 119.994 147.632 119.926C147.655 119.859 147.665 119.788 147.659 119.717C147.653 119.562 147.543 117.676 147.536 117.521Z" fill="#407BFF"/>
<path d="M151.501 117.501C151.491 117.354 151.427 117.217 151.32 117.116C151.213 117.015 151.072 116.958 150.925 116.957C150.854 116.956 150.783 116.969 150.717 116.997C150.652 117.025 150.593 117.066 150.544 117.118C150.495 117.17 150.458 117.231 150.434 117.298C150.41 117.365 150.401 117.437 150.406 117.508C150.406 117.702 150.517 119.509 150.529 119.704C150.536 119.852 150.6 119.991 150.708 120.092C150.815 120.194 150.958 120.25 151.106 120.248C151.177 120.249 151.248 120.235 151.313 120.208C151.379 120.18 151.438 120.139 151.487 120.087C151.535 120.035 151.573 119.974 151.597 119.907C151.62 119.84 151.63 119.768 151.624 119.697C151.598 119.542 151.508 117.657 151.501 117.501Z" fill="#407BFF"/>
<g opacity="0.7">
<path d="M135.635 117.565C135.625 117.419 135.561 117.281 135.454 117.18C135.347 117.079 135.206 117.023 135.059 117.021C134.987 117.02 134.917 117.034 134.851 117.062C134.786 117.089 134.727 117.13 134.678 117.182C134.629 117.234 134.592 117.296 134.568 117.363C134.544 117.43 134.535 117.501 134.54 117.572C134.54 117.766 134.65 119.574 134.663 119.768C134.673 119.916 134.738 120.054 134.844 120.156C134.951 120.258 135.092 120.316 135.24 120.319C135.311 120.319 135.381 120.305 135.446 120.277C135.511 120.249 135.57 120.207 135.618 120.156C135.667 120.104 135.704 120.043 135.729 119.977C135.753 119.91 135.763 119.839 135.758 119.768C135.752 119.613 135.648 117.721 135.635 117.565Z" fill="white"/>
<path d="M139.6 117.553C139.592 117.405 139.528 117.266 139.421 117.164C139.313 117.062 139.171 117.004 139.023 117.002C138.952 117.002 138.881 117.017 138.816 117.045C138.75 117.074 138.691 117.115 138.642 117.168C138.594 117.22 138.556 117.282 138.533 117.349C138.509 117.417 138.5 117.488 138.505 117.56C138.505 117.754 138.615 119.561 138.628 119.756C138.64 119.903 138.706 120.041 138.814 120.141C138.922 120.242 139.064 120.299 139.211 120.3C139.282 120.3 139.352 120.286 139.417 120.258C139.482 120.23 139.541 120.189 139.59 120.137C139.638 120.085 139.676 120.024 139.7 119.958C139.724 119.891 139.734 119.82 139.73 119.749C139.717 119.594 139.613 117.709 139.6 117.553Z" fill="white"/>
<path d="M143.571 117.533C143.56 117.386 143.494 117.248 143.386 117.148C143.278 117.047 143.136 116.99 142.988 116.989C142.917 116.988 142.847 117.002 142.781 117.029C142.715 117.057 142.656 117.098 142.608 117.15C142.559 117.202 142.521 117.263 142.498 117.33C142.474 117.397 142.465 117.469 142.47 117.54C142.47 117.734 142.587 119.542 142.593 119.736C142.603 119.884 142.668 120.024 142.777 120.126C142.885 120.228 143.027 120.285 143.176 120.287C143.247 120.286 143.318 120.271 143.383 120.242C143.448 120.213 143.506 120.171 143.555 120.119C143.603 120.067 143.641 120.006 143.665 119.939C143.689 119.872 143.699 119.801 143.694 119.73C143.681 119.574 143.578 117.689 143.571 117.533Z" fill="white"/>
<path d="M147.536 117.521C147.527 117.372 147.461 117.233 147.353 117.131C147.245 117.029 147.102 116.971 146.953 116.97C146.883 116.971 146.813 116.986 146.748 117.014C146.684 117.043 146.625 117.084 146.577 117.135C146.529 117.186 146.491 117.247 146.467 117.313C146.442 117.38 146.431 117.45 146.435 117.521C146.435 117.715 146.552 119.529 146.565 119.723C146.574 119.87 146.639 120.008 146.746 120.109C146.853 120.209 146.994 120.266 147.141 120.268C147.212 120.269 147.283 120.255 147.348 120.227C147.414 120.199 147.473 120.158 147.522 120.107C147.571 120.055 147.608 119.993 147.632 119.926C147.655 119.859 147.665 119.788 147.659 119.717C147.653 119.561 147.543 117.676 147.536 117.521Z" fill="white"/>
<path d="M151.501 117.501C151.491 117.354 151.426 117.217 151.32 117.116C151.213 117.015 151.072 116.958 150.925 116.957C150.853 116.956 150.783 116.969 150.717 116.997C150.652 117.025 150.593 117.066 150.544 117.118C150.495 117.17 150.458 117.231 150.434 117.298C150.41 117.365 150.401 117.437 150.406 117.508C150.406 117.702 150.516 119.509 150.529 119.704C150.536 119.852 150.6 119.991 150.708 120.092C150.815 120.194 150.958 120.25 151.106 120.248C151.177 120.249 151.248 120.235 151.313 120.208C151.379 120.18 151.438 120.139 151.487 120.087C151.535 120.035 151.573 119.974 151.597 119.907C151.62 119.84 151.63 119.768 151.624 119.697C151.598 119.542 151.508 117.657 151.501 117.501Z" fill="white"/>
</g>
<path d="M154.935 139.205L134.326 139.289L132.746 122.011L153.347 121.92L154.935 139.205Z" fill="#407BFF"/>
<path opacity="0.8" d="M154.935 139.205L134.326 139.289L132.746 122.011L153.347 121.92L154.935 139.205Z" fill="white"/>
<path d="M148.988 126.189L138.784 126.228L138.505 123.19L148.709 123.144L148.988 126.189Z" fill="#407BFF"/>
<path opacity="0.6" d="M148.988 126.189L138.784 126.228L138.505 123.19L148.709 123.144L148.988 126.189Z" fill="white"/>
<path d="M137.43 130.167L134.702 130.18L134.45 127.452L137.177 127.439L137.43 130.167Z" fill="white"/>
<path d="M141.291 130.147L138.57 130.16L138.318 127.439L141.045 127.426L141.291 130.147Z" fill="white"/>
<path d="M137.76 133.84L135.039 133.853L134.786 131.126L137.514 131.113L137.76 133.84Z" fill="#407BFF"/>
<path d="M138.097 137.513L135.376 137.526L135.123 134.799L137.851 134.792L138.097 137.513Z" fill="#407BFF"/>
<path d="M141.628 133.827L138.907 133.834L138.654 131.113L141.375 131.1L141.628 133.827Z" fill="#407BFF"/>
<path opacity="0.2" d="M141.628 133.827L138.907 133.834L138.654 131.113L141.375 131.1L141.628 133.827Z" fill="white"/>
<path d="M145.496 133.808L142.768 133.821L142.522 131.094L145.243 131.081L145.496 133.808Z" fill="#407BFF"/>
<path opacity="0.2" d="M145.496 133.808L142.768 133.821L142.522 131.094L145.243 131.081L145.496 133.808Z" fill="white"/>
<path d="M149.357 133.795L146.636 133.801L146.383 131.08L149.11 131.067L149.357 133.795Z" fill="#407BFF"/>
<path opacity="0.2" d="M149.357 133.795L146.636 133.801L146.383 131.08L149.11 131.067L149.357 133.795Z" fill="white"/>
<path d="M153.225 133.776L150.497 133.789L150.251 131.061L152.972 131.055L153.225 133.776Z" fill="#407BFF"/>
<path opacity="0.2" d="M153.225 133.776L150.497 133.789L150.251 131.061L152.972 131.055L153.225 133.776Z" fill="white"/>
<path d="M141.965 137.5L139.237 137.513L138.991 134.786L141.719 134.773L141.965 137.5Z" fill="#407BFF"/>
<path opacity="0.2" d="M141.965 137.5L139.237 137.513L138.991 134.786L141.719 134.773L141.965 137.5Z" fill="white"/>
<path d="M145.826 137.481L143.105 137.493L142.852 134.766L145.58 134.76L145.826 137.481Z" fill="#407BFF"/>
<path opacity="0.2" d="M145.826 137.481L143.105 137.493L142.852 134.766L145.58 134.76L145.826 137.481Z" fill="white"/>
<path d="M149.694 137.468L146.973 137.481L146.72 134.754L149.448 134.741L149.694 137.468Z" fill="#407BFF"/>
<path opacity="0.2" d="M149.694 137.468L146.973 137.481L146.72 134.754L149.448 134.741L149.694 137.468Z" fill="white"/>
<path d="M145.159 130.135L142.431 130.148L142.185 127.42L144.906 127.407L145.159 130.135Z" fill="#407BFF"/>
<path opacity="0.2" d="M145.159 130.135L142.431 130.148L142.185 127.42L144.906 127.407L145.159 130.135Z" fill="white"/>
<path d="M149.02 130.115L146.299 130.128L146.046 127.407L148.774 127.394L149.02 130.115Z" fill="#407BFF"/>
<path opacity="0.2" d="M149.02 130.115L146.299 130.128L146.046 127.407L148.774 127.394L149.02 130.115Z" fill="white"/>
<path d="M152.888 130.102L150.16 130.115L149.914 127.387L152.635 127.375L152.888 130.102Z" fill="#407BFF"/>
<path opacity="0.2" d="M152.888 130.102L150.16 130.115L149.914 127.387L152.635 127.375L152.888 130.102Z" fill="white"/>
<path d="M153.562 137.449L150.834 137.462L150.588 134.741L153.309 134.728L153.562 137.449Z" fill="white"/>
<path d="M105.847 144.957V148.909H82.6277L80.1205 231.336H77.989V144.957H105.847Z" fill="#263238"/>
<path opacity="0.7" d="M105.847 144.957V148.909H82.6277L80.1205 231.336H77.989V144.957H105.847Z" fill="white"/>
<path d="M77.9891 231.336H75.9743L75.3264 144.957H77.9891V231.336Z" fill="#263238"/>
<g opacity="0.3">
<path d="M77.9891 231.336H75.9743L75.3264 144.957H77.9891V231.336Z" fill="white"/>
</g>
<path d="M112.455 144.957V231.336H110.343L108.464 148.909H105.976V144.957H112.455Z" fill="#263238"/>
<path d="M110.583 231.336H108.568L105.976 144.957H108.639L110.583 231.336Z" fill="#263238"/>
<g opacity="0.3">
<path d="M110.583 231.336H108.568L105.976 144.957H108.639L110.583 231.336Z" fill="white"/>
</g>
<path opacity="0.7" d="M112.455 144.957V231.336H110.343L108.464 148.909H105.976V144.957H112.455Z" fill="white"/>
<path d="M239.156 231.336H237.148L234.556 144.957H237.213L239.156 231.336Z" fill="#263238"/>
<path opacity="0.3" d="M234.556 144.957H237.213L239.156 231.336H237.148" fill="white"/>
<path d="M204.638 144.957H78.0022V151.507H204.638V144.957Z" fill="#263238"/>
<path opacity="0.5" d="M204.638 144.957H78.0022V151.507H204.638V144.957Z" fill="white"/>
<path d="M206.698 144.957V231.336H208.823L211.331 148.903H237.044L238.923 231.336H241.035V144.957H206.698Z" fill="#263238"/>
<path opacity="0.7" d="M206.698 144.957V231.336H208.823L211.331 148.903H237.044L238.923 231.336H241.035V144.957H206.698Z" fill="white"/>
<path d="M206.699 231.336H204.684L204.036 144.957H206.699V231.336Z" fill="#263238"/>
<path opacity="0.3" d="M206.699 231.336H204.684L204.036 144.957H206.699V231.336Z" fill="white"/>
<path d="M205.034 139.988H71.8021V144.957H205.034V139.988Z" fill="#263238"/>
<path opacity="0.6" d="M205.034 139.988H71.8021V144.957H205.034V139.988Z" fill="white"/>
<path d="M244.559 139.988H201.943V144.957H244.559V139.988Z" fill="#263238"/>
<path opacity="0.7" d="M244.559 139.988H201.943V144.957H244.559V139.988Z" fill="white"/>
<path d="M126.817 129.723H49.0356C59.9261 90.3336 38.1452 50.9635 49.0356 11.5803H126.817C115.927 50.9635 137.734 90.3336 126.817 129.723Z" fill="#407BFF"/>
<path opacity="0.7" d="M126.817 129.723H49.0356C59.9261 90.3336 38.1452 50.9635 49.0356 11.5803H126.817C115.927 50.9635 137.734 90.3336 126.817 129.723Z" fill="white"/>
<path d="M117.773 36.3151H82.6268C82.5357 36.3151 82.4484 36.279 82.384 36.2146C82.3196 36.1502 82.2834 36.0628 82.2834 35.9718C82.2834 35.8807 82.3196 35.7934 82.384 35.729C82.4484 35.6646 82.5357 35.6284 82.6268 35.6284H117.773C117.864 35.6284 117.951 35.6646 118.016 35.729C118.08 35.7934 118.116 35.8807 118.116 35.9718C118.116 36.0628 118.08 36.1502 118.016 36.2146C117.951 36.279 117.864 36.3151 117.773 36.3151Z" fill="#263238"/>
<path d="M117.941 43.3H82.7953C82.7034 43.2985 82.6156 43.2622 82.5495 43.1985C82.4833 43.1348 82.4438 43.0484 82.4389 42.9566C82.4363 42.9125 82.4427 42.8683 82.4578 42.8267C82.4729 42.7851 82.4963 42.7471 82.5267 42.7149C82.557 42.6828 82.5936 42.6571 82.6342 42.6397C82.6749 42.6222 82.7186 42.6132 82.7629 42.6133H117.909C118.001 42.6147 118.09 42.6507 118.157 42.7143C118.224 42.7779 118.265 42.8644 118.272 42.9566C118.274 43.0011 118.266 43.0455 118.25 43.0871C118.235 43.1287 118.211 43.1666 118.18 43.1987C118.149 43.2308 118.112 43.2563 118.071 43.2737C118.03 43.2911 117.986 43.3 117.941 43.3Z" fill="#263238"/>
<path d="M118.395 50.3156H52.3136C52.2202 50.3132 52.1307 50.2771 52.0617 50.214C51.9927 50.1509 51.9487 50.0651 51.9378 49.9723C51.9333 49.9288 51.938 49.8849 51.9515 49.8433C51.9651 49.8018 51.9873 49.7635 52.0166 49.7311C52.046 49.6987 52.0818 49.6729 52.1218 49.6553C52.1618 49.6377 52.2051 49.6287 52.2488 49.6289H118.33C118.423 49.6302 118.513 49.666 118.581 49.7295C118.649 49.7929 118.691 49.8794 118.699 49.9723C118.704 50.0152 118.699 50.0586 118.686 50.0997C118.673 50.1408 118.651 50.1787 118.623 50.211C118.594 50.2433 118.559 50.2693 118.52 50.2873C118.481 50.3053 118.438 50.315 118.395 50.3156Z" fill="#263238"/>
<path d="M123.889 110.203H57.7883C57.7435 110.204 57.699 110.196 57.6576 110.179C57.6162 110.162 57.5788 110.136 57.5478 110.104C57.5167 110.072 57.4927 110.033 57.4772 109.991C57.4618 109.949 57.4552 109.905 57.4579 109.86C57.4644 109.768 57.5055 109.683 57.5729 109.62C57.6402 109.557 57.7288 109.523 57.8207 109.523H123.902C123.946 109.522 123.989 109.53 124.03 109.547C124.071 109.564 124.107 109.589 124.138 109.62C124.168 109.652 124.192 109.69 124.207 109.731C124.222 109.772 124.229 109.816 124.226 109.86C124.223 109.949 124.186 110.033 124.124 110.097C124.062 110.161 123.978 110.198 123.889 110.203Z" fill="#263238"/>
<path d="M78.7784 122.208H56.4663C56.4236 122.209 56.3811 122.2 56.3423 122.182C56.3034 122.164 56.2692 122.138 56.2423 122.105C56.2154 122.071 56.1964 122.032 56.187 121.991C56.1775 121.949 56.1778 121.906 56.1877 121.864C56.2065 121.77 56.2563 121.685 56.3292 121.623C56.402 121.561 56.4936 121.525 56.5894 121.521H78.8821C78.9248 121.52 78.9673 121.528 79.0061 121.546C79.0449 121.564 79.0792 121.591 79.1061 121.624C79.133 121.657 79.152 121.696 79.1614 121.738C79.1709 121.779 79.1706 121.823 79.1607 121.864C79.1428 121.955 79.0958 122.038 79.0269 122.1C78.9579 122.162 78.8708 122.199 78.7784 122.208Z" fill="#263238"/>
<path d="M122.794 122.208H100.501C100.459 122.209 100.416 122.2 100.377 122.182C100.338 122.164 100.304 122.138 100.277 122.105C100.25 122.071 100.231 122.032 100.222 121.991C100.213 121.949 100.213 121.906 100.223 121.864C100.24 121.77 100.29 121.684 100.363 121.622C100.436 121.559 100.528 121.524 100.624 121.521H122.917C122.96 121.52 123.002 121.528 123.041 121.546C123.08 121.564 123.114 121.591 123.141 121.624C123.168 121.657 123.187 121.696 123.196 121.738C123.206 121.779 123.206 121.823 123.196 121.864C123.177 121.958 123.127 122.043 123.054 122.105C122.981 122.168 122.89 122.204 122.794 122.208Z" fill="#263238"/>
<path d="M69.8446 27.5691C69.8446 30.5039 67.6354 32.3309 64.1175 32.3309H61.4613V35.9654H58.4099V22.7815H64.1175C67.6354 22.7815 69.8446 24.6084 69.8446 27.5691ZM66.7543 27.5691C66.7543 26.1179 65.8084 25.2693 63.9491 25.2693H61.4613V29.8431H63.9491C65.8214 29.8431 66.7543 29.0009 66.7543 27.5691Z" fill="#3638DA"/>
<path d="M71.9371 43.5003L68.7561 38.9264L65.627 43.5003H62.1221L67.0004 36.795L62.3683 30.3164H65.8213L68.8533 34.5923L71.8334 30.3164H75.131L70.5312 36.6848L75.4485 43.5003H71.9371Z" fill="#3638DA"/>
<path d="M56.4796 54.702C56.4796 55.4276 55.9354 55.8811 55.0608 55.8811H54.4129V56.7816H53.6484V53.5424H55.0608C55.9354 53.4841 56.4796 53.9376 56.4796 54.702ZM55.7151 54.702C55.7151 54.3457 55.4819 54.1319 55.0219 54.1319H54.374V55.2657H55.0219C55.456 55.2333 55.7151 55.026 55.7151 54.702Z" fill="#263238"/>
<path d="M58.5202 54.2028V54.8507H58.3518C58.2621 54.8504 58.1734 54.8687 58.0912 54.9045C58.0091 54.9402 57.9352 54.9926 57.8743 55.0584C57.8134 55.1242 57.7668 55.2018 57.7375 55.2865C57.7082 55.3712 57.6967 55.4611 57.7039 55.5504V56.736H56.9589V54.2288H57.6521V54.5592C57.7575 54.4344 57.8915 54.3369 58.0426 54.2749C58.1937 54.2129 58.3575 54.1882 58.5202 54.2028Z" fill="#263238"/>
<path d="M61.3643 55.6987H59.4725C59.5069 55.8567 59.599 55.9961 59.7309 56.0896C59.8627 56.1831 60.0248 56.2239 60.1852 56.2041C60.3044 56.2109 60.4237 56.1925 60.5354 56.1501C60.647 56.1077 60.7484 56.0422 60.833 55.9579L61.2217 56.379C61.0258 56.5684 60.7807 56.699 60.5142 56.7561C60.2478 56.8133 59.9707 56.7946 59.7143 56.7021C59.458 56.6097 59.2326 56.4473 59.0639 56.2333C58.8952 56.0193 58.7899 55.7623 58.7599 55.4914C58.7598 55.3179 58.7946 55.1462 58.8621 54.9864C58.9296 54.8266 59.0286 54.682 59.153 54.5612C59.2775 54.4404 59.425 54.3457 59.5867 54.283C59.7484 54.2202 59.9211 54.1905 60.0945 54.1957C60.2666 54.1884 60.4383 54.2169 60.5989 54.2794C60.7594 54.3419 60.9052 54.4371 61.027 54.5589C61.1488 54.6807 61.244 54.8265 61.3065 54.987C61.369 55.1475 61.3975 55.3193 61.3902 55.4914C61.3837 55.5562 61.3707 55.6404 61.3643 55.6987ZM59.4596 55.2712H60.697C60.656 55.1391 60.5738 55.0237 60.4625 54.9417C60.3512 54.8597 60.2165 54.8154 60.0783 54.8154C59.94 54.8154 59.8054 54.8597 59.6941 54.9417C59.5828 55.0237 59.5006 55.1391 59.4596 55.2712Z" fill="#263238"/>
<path d="M61.6169 56.5159L61.8631 55.9912C62.1242 56.1519 62.4247 56.2371 62.7313 56.2373C63.0681 56.2373 63.1977 56.1466 63.1977 56.0041C63.1977 55.596 61.6817 56.0041 61.6817 55.0129C61.6817 54.54 62.1093 54.2031 62.8414 54.2031C63.1764 54.1961 63.5079 54.2718 63.8067 54.4234L63.5605 54.9416C63.342 54.8156 63.0936 54.7507 62.8414 54.7538C62.5175 54.7538 62.3749 54.8574 62.3749 54.987C62.3749 55.4146 63.8909 54.987 63.8909 55.9912C63.8909 56.4511 63.4569 56.788 62.7053 56.788C62.3249 56.7952 61.9493 56.7013 61.6169 56.5159Z" fill="#263238"/>
<path d="M64.15 55.4921C64.1495 55.3135 64.186 55.1366 64.2571 54.9727C64.3282 54.8089 64.4324 54.6614 64.5632 54.5398C64.694 54.4181 64.8486 54.3248 65.0172 54.2657C65.1858 54.2066 65.3648 54.183 65.5429 54.1964C65.7743 54.1776 66.0059 54.2294 66.2072 54.3451C66.4085 54.4608 66.5699 54.6349 66.6702 54.8443L66.1065 55.1423C66.052 55.0398 65.9709 54.9538 65.8717 54.8934C65.7726 54.833 65.659 54.8004 65.5429 54.7989C65.359 54.7989 65.1827 54.8719 65.0527 55.0019C64.9227 55.1319 64.8497 55.3083 64.8497 55.4921C64.8497 55.676 64.9227 55.8523 65.0527 55.9823C65.1827 56.1123 65.359 56.1853 65.5429 56.1853C65.6599 56.1883 65.7753 56.1575 65.8753 56.0966C65.9752 56.0357 66.0555 55.9473 66.1065 55.8419L66.6702 56.1529C66.5678 56.3606 66.406 56.5332 66.2052 56.6485C66.0044 56.7639 65.7739 56.8169 65.5429 56.8008C65.3637 56.8143 65.1836 56.7903 65.0141 56.7305C64.8446 56.6706 64.6894 56.5761 64.5584 56.453C64.4274 56.3299 64.3234 56.181 64.2531 56.0155C64.1828 55.8501 64.1477 55.6718 64.15 55.4921Z" fill="#263238"/>
<path d="M68.6398 54.2022V54.8501H68.4778C68.3882 54.8498 68.2995 54.8681 68.2173 54.9039C68.1351 54.9396 68.0612 54.992 68.0004 55.0578C67.9395 55.1236 67.8929 55.2012 67.8636 55.2859C67.8342 55.3706 67.8228 55.4604 67.8299 55.5498V56.7354H67.1173V54.2282H67.7652V54.5586C67.8709 54.4324 68.0059 54.3341 68.1583 54.272C68.3107 54.2099 68.476 54.1859 68.6398 54.2022Z" fill="#263238"/>
<path d="M68.983 53.4836C68.9846 53.4268 68.9977 53.3709 69.0217 53.3194C69.0457 53.268 69.0801 53.222 69.1226 53.1843C69.1651 53.1467 69.2149 53.1181 69.2689 53.1005C69.3229 53.0829 69.38 53.0766 69.4365 53.0819C69.4922 53.0756 69.5486 53.0809 69.6022 53.0974C69.6557 53.1138 69.7053 53.1411 69.7479 53.1776C69.7904 53.2141 69.825 53.2589 69.8494 53.3093C69.8739 53.3597 69.8877 53.4146 69.89 53.4706C69.89 53.5909 69.8423 53.7062 69.7572 53.7913C69.6722 53.8763 69.5568 53.9241 69.4365 53.9241C69.3163 53.9241 69.2009 53.8763 69.1159 53.7913C69.0308 53.7062 68.983 53.5909 68.983 53.4706V53.4836ZM69.0737 54.2416H69.7993V56.7488H69.0608L69.0737 54.2416Z" fill="#263238"/>
<path d="M73.2071 55.492C73.217 55.6609 73.1918 55.83 73.133 55.9887C73.0743 56.1473 72.9833 56.2921 72.8658 56.4138C72.7484 56.5356 72.6069 56.6317 72.4504 56.696C72.294 56.7604 72.1259 56.7916 71.9567 56.7877C71.8161 56.7933 71.6758 56.7691 71.5451 56.7166C71.4145 56.6641 71.2965 56.5846 71.1987 56.4832V57.6493H70.4731V54.2416H71.1663V54.5267C71.2656 54.4172 71.3881 54.3313 71.5249 54.2752C71.6616 54.2192 71.8092 54.1944 71.9567 54.2028C72.1253 54.1989 72.2928 54.23 72.4488 54.294C72.6048 54.3579 72.746 54.4534 72.8633 54.5744C72.9807 54.6955 73.0719 54.8394 73.131 54.9973C73.1902 55.1552 73.2161 55.3236 73.2071 55.492ZM72.4685 55.492C72.4597 55.3662 72.4143 55.2457 72.338 55.1452C72.2617 55.0448 72.1577 54.9689 72.0388 54.9267C71.9199 54.8846 71.7913 54.878 71.6688 54.9079C71.5462 54.9378 71.4351 55.0028 71.3489 55.095C71.2628 55.1871 71.2055 55.3024 71.1839 55.4267C71.1624 55.551 71.1776 55.6789 71.2277 55.7946C71.2778 55.9104 71.3606 56.009 71.4659 56.0784C71.5713 56.1478 71.6946 56.1849 71.8207 56.1852C71.9097 56.1854 71.9978 56.1673 72.0795 56.1319C72.1613 56.0966 72.2348 56.0447 72.2956 55.9797C72.3564 55.9147 72.4031 55.8378 72.4329 55.7539C72.4626 55.6699 72.4748 55.5808 72.4685 55.492Z" fill="#263238"/>
<path d="M75.3063 56.6454C75.1287 56.7587 74.9208 56.8152 74.7103 56.8073C74.5865 56.8247 74.4604 56.8137 74.3416 56.7751C74.2227 56.7365 74.1142 56.6713 74.0243 56.5845C73.9343 56.4977 73.8654 56.3916 73.8226 56.2742C73.7798 56.1567 73.7644 56.0311 73.7774 55.9068V54.8767H73.3887V54.3131H73.7774V53.7041H74.503V54.3131H75.1508V54.8767H74.503V55.8938C74.4971 55.937 74.5009 55.9808 74.5141 56.0223C74.5273 56.0637 74.5497 56.1017 74.5795 56.1334C74.6093 56.1651 74.6459 56.1897 74.6864 56.2054C74.727 56.2211 74.7706 56.2276 74.814 56.2243C74.9184 56.2261 75.0206 56.1943 75.1055 56.1336L75.3063 56.6454Z" fill="#263238"/>
<path d="M75.6237 53.4834C75.6252 53.4266 75.6384 53.3707 75.6624 53.3193C75.6864 53.2678 75.7207 53.2218 75.7632 53.1841C75.8057 53.1465 75.8556 53.1179 75.9096 53.1003C75.9636 53.0827 76.0206 53.0764 76.0772 53.0817C76.1323 53.0764 76.188 53.0824 76.2408 53.0993C76.2936 53.1161 76.3424 53.1436 76.3842 53.18C76.4261 53.2164 76.46 53.2609 76.4841 53.3108C76.5082 53.3607 76.5218 53.4151 76.5242 53.4704C76.5109 53.5806 76.4578 53.682 76.3749 53.7556C76.2919 53.8292 76.1848 53.8698 76.0739 53.8698C75.963 53.8698 75.856 53.8292 75.773 53.7556C75.69 53.682 75.6369 53.5806 75.6237 53.4704V53.4834ZM75.7079 54.2414H76.44V56.7486H75.7079V54.2414Z" fill="#263238"/>
<path d="M76.9258 55.492C76.9089 55.2161 76.9753 54.9415 77.1163 54.7038C77.2573 54.466 77.4665 54.2761 77.7167 54.1587C77.9669 54.0412 78.2466 54.0016 78.5196 54.0449C78.7926 54.0883 79.0462 54.2126 79.2477 54.4018C79.4492 54.591 79.5893 54.8363 79.6497 55.1061C79.7101 55.3758 79.6882 55.6574 79.5867 55.9145C79.4852 56.1716 79.3088 56.3923 79.0804 56.548C78.852 56.7037 78.5821 56.7872 78.3057 56.7877C78.1286 56.7992 77.951 56.7743 77.784 56.7143C77.6169 56.6544 77.464 56.5608 77.3346 56.4393C77.2052 56.3178 77.1021 56.171 77.0318 56.0081C76.9615 55.8451 76.9254 55.6695 76.9258 55.492ZM78.9406 55.492C78.9318 55.3662 78.8864 55.2457 78.8101 55.1452C78.7337 55.0448 78.6298 54.9689 78.5109 54.9267C78.392 54.8846 78.2634 54.878 78.1409 54.9079C78.0183 54.9378 77.9072 55.0028 77.821 55.095C77.7349 55.1871 77.6776 55.3024 77.656 55.4267C77.6345 55.551 77.6497 55.6788 77.6998 55.7946C77.7499 55.9104 77.8327 56.009 77.938 56.0784C78.0433 56.1478 78.1666 56.1849 78.2928 56.1852C78.3818 56.1854 78.4699 56.1673 78.5516 56.1319C78.6333 56.0966 78.7069 56.0447 78.7677 55.9797C78.8285 55.9147 78.8752 55.8378 78.905 55.7539C78.9347 55.6699 78.9469 55.5808 78.9406 55.492Z" fill="#263238"/>
<path d="M82.724 55.3105V56.7487H82.0179V55.453C82.0179 55.0513 81.83 54.8635 81.5061 54.8635C81.1822 54.8635 80.9101 55.0773 80.9101 55.5113V56.7552H80.178V54.248H80.8777V54.5395C80.9849 54.4293 81.1142 54.3429 81.2571 54.286C81.4 54.229 81.5532 54.2029 81.7069 54.2091C81.8497 54.2023 81.9922 54.2268 82.1244 54.281C82.2566 54.3351 82.3754 54.4176 82.4724 54.5226C82.5693 54.6275 82.6421 54.7525 82.6856 54.8886C82.7291 55.0247 82.7422 55.1687 82.724 55.3105Z" fill="#263238"/>
<path d="M83.2036 54.6562C83.2008 54.5968 83.2105 54.5374 83.232 54.4819C83.2535 54.4264 83.2863 54.3761 83.3284 54.334C83.3704 54.2919 83.4208 54.2591 83.4763 54.2376C83.5318 54.2161 83.5912 54.2064 83.6506 54.2092C83.7103 54.2065 83.77 54.2162 83.8258 54.2376C83.8816 54.259 83.9324 54.2917 83.975 54.3337C84.0175 54.3757 84.051 54.426 84.0732 54.4815C84.0954 54.537 84.106 54.5965 84.1041 54.6562C84.1059 54.7163 84.0954 54.776 84.0732 54.8319C84.0511 54.8877 84.0177 54.9384 83.9753 54.9809C83.9328 55.0234 83.8821 55.0567 83.8263 55.0788C83.7704 55.101 83.7107 55.1115 83.6506 55.1097C83.5911 55.1106 83.532 55.0995 83.477 55.0769C83.4219 55.0543 83.372 55.0209 83.3302 54.9785C83.2884 54.9361 83.2557 54.8857 83.2339 54.8303C83.2121 54.7749 83.2018 54.7157 83.2036 54.6562ZM83.2036 56.3277C83.2008 56.2682 83.2105 56.2089 83.232 56.1534C83.2535 56.0979 83.2863 56.0475 83.3284 56.0054C83.3704 55.9634 83.4208 55.9305 83.4763 55.9091C83.5318 55.8876 83.5912 55.8779 83.6506 55.8807C83.7103 55.878 83.77 55.8876 83.8258 55.909C83.8816 55.9305 83.9324 55.9632 83.975 56.0052C84.0175 56.0471 84.051 56.0974 84.0732 56.1529C84.0954 56.2084 84.106 56.2679 84.1041 56.3277C84.1059 56.388 84.0954 56.4481 84.0733 56.5043C84.0512 56.5604 84.018 56.6116 83.9756 56.6545C83.9332 56.6975 83.8826 56.7315 83.8267 56.7544C83.7709 56.7772 83.711 56.7886 83.6506 56.7877C83.5905 56.7886 83.5309 56.7773 83.4754 56.7543C83.4199 56.7314 83.3696 56.6973 83.3278 56.6542C83.2859 56.6111 83.2533 56.5599 83.2319 56.5038C83.2106 56.4476 83.2009 56.3877 83.2036 56.3277Z" fill="#263238"/>
<path d="M142.847 53.7474L131.328 50.08C129.245 49.4168 127.018 50.5679 126.355 52.651L113.779 92.1536C113.115 94.2367 114.267 96.4631 116.35 97.1263L127.869 100.794C129.952 101.457 132.178 100.306 132.842 98.2227L145.418 58.7201C146.081 56.637 144.93 54.4106 142.847 53.7474Z" fill="black"/>
<path opacity="0.8" d="M145.599 57.6597C145.592 58.0273 145.531 58.3918 145.418 58.7416L132.843 98.2608C132.8 98.395 132.75 98.5269 132.694 98.656C132.301 99.5502 131.592 100.268 130.701 100.669C129.811 101.071 128.804 101.13 127.874 100.833L116.348 97.1659C115.366 96.8509 114.545 96.1647 114.061 95.2535C113.577 94.3422 113.468 93.278 113.757 92.2875L121.013 69.5025L126.332 52.6518C126.487 52.155 126.739 51.6938 127.074 51.2946C127.408 50.8954 127.817 50.566 128.279 50.3253C128.74 50.0846 129.245 49.9373 129.763 49.8918C130.282 49.8464 130.804 49.9036 131.301 50.0603L142.852 53.7726C143.104 53.8531 143.347 53.9595 143.578 54.09C144.21 54.4419 144.733 54.9612 145.09 55.5909C145.446 56.2206 145.622 56.9364 145.599 57.6597Z" fill="white"/>
<g opacity="0.6">
<path opacity="0.5" d="M117.728 79.7575L122.956 63.3473L137.76 52.1265L143.591 54.07C144.224 54.4225 144.748 54.9428 145.104 55.5738C145.461 56.2047 145.637 56.9218 145.612 57.6462L117.728 79.7575Z" fill="white"/>
</g>
<path opacity="0.5" d="M125.036 56.7527L126.332 52.6518C126.487 52.155 126.74 51.6938 127.074 51.2946C127.408 50.8954 127.817 50.566 128.279 50.3253C128.74 50.0846 129.245 49.9373 129.763 49.8918C130.282 49.8464 130.804 49.9036 131.301 50.0603L133.031 50.611L125.036 56.7527Z" fill="white"/>
<path d="M132.985 56.5903C132.894 56.876 132.721 57.1283 132.486 57.3153C132.252 57.5023 131.967 57.6156 131.669 57.6408C131.37 57.6661 131.07 57.6022 130.808 57.4573C130.545 57.3123 130.332 57.0928 130.194 56.8265C130.057 56.5601 130.001 56.259 130.034 55.961C130.068 55.6631 130.189 55.3817 130.382 55.1526C130.576 54.9235 130.833 54.7568 131.121 54.6737C131.409 54.5906 131.715 54.5947 132.001 54.6856C132.191 54.7453 132.367 54.842 132.52 54.9703C132.673 55.0985 132.798 55.2557 132.89 55.4328C132.981 55.6099 133.037 55.8033 133.053 56.002C133.07 56.2007 133.047 56.4007 132.985 56.5903Z" fill="#407BFF"/>
<path d="M130.096 65.6475C130.005 65.9318 129.832 66.1828 129.598 66.3686C129.364 66.5544 129.081 66.6668 128.783 66.6915C128.486 66.7163 128.188 66.6523 127.927 66.5076C127.666 66.3629 127.453 66.1441 127.317 65.8787C127.18 65.6134 127.125 65.3135 127.158 65.0169C127.192 64.7203 127.313 64.4403 127.506 64.2124C127.699 63.9845 127.955 63.8188 128.241 63.7364C128.528 63.654 128.833 63.6585 129.118 63.7493C129.307 63.8097 129.482 63.9067 129.633 64.0347C129.785 64.1628 129.909 64.3195 130 64.4957C130.091 64.672 130.146 64.8645 130.163 65.0621C130.179 65.2597 130.156 65.4587 130.096 65.6475Z" fill="#407BFF"/>
<path d="M127.213 74.7107C127.123 74.9971 126.95 75.2503 126.716 75.4383C126.482 75.6263 126.198 75.7406 125.899 75.7667C125.6 75.7928 125.3 75.7296 125.037 75.585C124.773 75.4404 124.559 75.221 124.421 74.9546C124.283 74.6881 124.227 74.3866 124.26 74.0883C124.293 73.79 124.414 73.5083 124.608 73.2789C124.802 73.0495 125.059 72.8827 125.347 72.7996C125.636 72.7166 125.942 72.7211 126.228 72.8125C126.418 72.8721 126.594 72.9686 126.746 73.0964C126.898 73.2242 127.023 73.3808 127.115 73.5571C127.206 73.7335 127.262 73.9262 127.279 74.1241C127.296 74.3221 127.273 74.5214 127.213 74.7107Z" fill="#407BFF"/>
<path d="M124.33 83.7747C124.239 84.0603 124.065 84.3126 123.831 84.4996C123.597 84.6866 123.312 84.7999 123.013 84.8252C122.715 84.8504 122.415 84.7866 122.153 84.6416C121.89 84.4966 121.677 84.2771 121.539 84.0108C121.401 83.7445 121.346 83.4433 121.379 83.1454C121.413 82.8474 121.534 82.5661 121.727 82.3369C121.92 82.1078 122.177 81.9411 122.465 81.858C122.753 81.7749 123.06 81.7791 123.345 81.87C123.536 81.9296 123.712 82.0263 123.865 82.1546C124.017 82.2828 124.143 82.44 124.235 82.6171C124.326 82.7942 124.382 82.9877 124.398 83.1863C124.415 83.385 124.391 83.585 124.33 83.7747Z" fill="#407BFF"/>
<path d="M121.447 92.8315C121.357 93.1179 121.184 93.3711 120.95 93.5591C120.716 93.7471 120.431 93.8614 120.132 93.8875C119.833 93.9137 119.533 93.8504 119.27 93.7058C119.007 93.5613 118.793 93.3418 118.655 93.0754C118.517 92.809 118.461 92.5075 118.494 92.2092C118.527 91.9109 118.648 91.6292 118.842 91.3997C119.035 91.1703 119.293 91.0035 119.581 90.9205C119.87 90.8375 120.176 90.8419 120.462 90.9333C120.843 91.0568 121.16 91.3252 121.344 91.6804C121.528 92.0357 121.565 92.4492 121.447 92.8315Z" fill="#407BFF"/>
<path d="M140.267 58.9096C140.127 59.2693 139.856 59.5621 139.508 59.7284C139.159 59.8947 138.761 59.922 138.393 59.8047C138.026 59.6874 137.717 59.4343 137.529 59.0971C137.342 58.7598 137.29 58.3638 137.384 57.9897C137.435 57.789 137.526 57.6008 137.652 57.4367C137.778 57.2726 137.937 57.136 138.118 57.0355C138.299 56.9349 138.498 56.8725 138.704 56.8519C138.91 56.8314 139.118 56.8533 139.315 56.9162C139.512 56.9791 139.694 57.0818 139.85 57.2178C140.006 57.3538 140.133 57.5203 140.222 57.707C140.311 57.8938 140.361 58.0968 140.369 58.3037C140.377 58.5105 140.342 58.7167 140.267 58.9096Z" fill="#407BFF"/>
<path d="M137.384 67.9665C137.294 68.2507 137.121 68.5017 136.888 68.6878C136.654 68.8739 136.371 68.9868 136.074 69.0121C135.777 69.0374 135.479 68.9741 135.218 68.8301C134.956 68.6861 134.743 68.468 134.606 68.2032C134.469 67.9383 134.413 67.6388 134.446 67.3422C134.478 67.0457 134.598 66.7655 134.79 66.5371C134.982 66.3087 135.237 66.1422 135.524 66.0588C135.81 65.9753 136.115 65.9786 136.399 66.0683C136.781 66.1903 137.099 66.4584 137.284 66.8142C137.468 67.1699 137.504 67.5842 137.384 67.9665Z" fill="#407BFF"/>
<path d="M134.502 77.0303C134.412 77.3166 134.239 77.5699 134.005 77.7579C133.771 77.9458 133.486 78.0601 133.187 78.0863C132.888 78.1124 132.588 78.0492 132.325 77.9046C132.062 77.76 131.848 77.5406 131.709 77.2741C131.571 77.0077 131.515 76.7062 131.549 76.4079C131.582 76.1096 131.703 75.8279 131.896 75.5985C132.09 75.3691 132.347 75.2023 132.636 75.1192C132.924 75.0362 133.231 75.0406 133.517 75.132C133.897 75.2555 134.214 75.5239 134.399 75.8792C134.583 76.2344 134.62 76.6479 134.502 77.0303Z" fill="#407BFF"/>
<path d="M131.612 86.0937C131.472 86.4534 131.201 86.7462 130.852 86.9125C130.504 87.0788 130.106 87.1061 129.738 86.9888C129.371 86.8715 129.061 86.6184 128.874 86.2812C128.686 85.9439 128.635 85.5479 128.729 85.1737C128.78 84.9731 128.871 84.7849 128.997 84.6208C129.123 84.4567 129.281 84.3201 129.462 84.2196C129.643 84.119 129.843 84.0565 130.049 84.036C130.255 84.0155 130.463 84.0374 130.66 84.1003C130.857 84.1632 131.039 84.2659 131.195 84.4019C131.351 84.5379 131.478 84.7044 131.567 84.8911C131.656 85.0779 131.706 85.2809 131.714 85.4877C131.722 85.6946 131.687 85.9008 131.612 86.0937Z" fill="#407BFF"/>
<path d="M128.729 95.1506C128.638 95.4348 128.466 95.6858 128.233 95.8719C127.999 96.058 127.716 96.1708 127.419 96.1962C127.122 96.2215 126.824 96.1582 126.562 96.0142C126.301 95.8702 126.088 95.6521 125.951 95.3872C125.814 95.1224 125.758 94.8228 125.791 94.5263C125.823 94.2298 125.943 93.9496 126.135 93.7212C126.327 93.4928 126.582 93.3263 126.869 93.2429C127.155 93.1594 127.46 93.1627 127.744 93.2523C128.126 93.3744 128.444 93.6425 128.628 93.9982C128.813 94.3539 128.849 94.7682 128.729 95.1506Z" fill="#407BFF"/>
<g opacity="0.4">
<path d="M132.985 56.5903C132.894 56.876 132.72 57.1283 132.486 57.3153C132.252 57.5023 131.967 57.6156 131.668 57.6408C131.37 57.6661 131.07 57.6022 130.808 57.4573C130.545 57.3123 130.332 57.0928 130.194 56.8265C130.056 56.5601 130.001 56.259 130.034 55.961C130.068 55.6631 130.189 55.3817 130.382 55.1526C130.575 54.9235 130.832 54.7568 131.12 54.6737C131.408 54.5906 131.715 54.5947 132 54.6856C132.191 54.7453 132.367 54.842 132.52 54.9703C132.672 55.0985 132.798 55.2557 132.89 55.4328C132.981 55.6099 133.037 55.8033 133.053 56.002C133.07 56.2007 133.046 56.4007 132.985 56.5903Z" fill="white"/>
<path d="M130.096 65.6475C130.005 65.9318 129.831 66.1828 129.598 66.3686C129.364 66.5544 129.081 66.6668 128.783 66.6915C128.486 66.7163 128.188 66.6523 127.927 66.5076C127.665 66.3629 127.453 66.1441 127.316 65.8787C127.18 65.6134 127.125 65.3135 127.158 65.0169C127.192 64.7203 127.313 64.4403 127.506 64.2124C127.698 63.9845 127.954 63.8188 128.241 63.7364C128.528 63.654 128.833 63.6585 129.118 63.7493C129.306 63.8097 129.482 63.9067 129.633 64.0347C129.784 64.1628 129.909 64.3195 130 64.4957C130.091 64.672 130.146 64.8645 130.162 65.0621C130.179 65.2597 130.156 65.4587 130.096 65.6475Z" fill="white"/>
<path d="M127.213 74.7107C127.123 74.9971 126.95 75.2503 126.716 75.4383C126.482 75.6263 126.197 75.7406 125.898 75.7667C125.599 75.7928 125.299 75.7296 125.036 75.585C124.773 75.4404 124.559 75.221 124.421 74.9546C124.283 74.6881 124.227 74.3866 124.26 74.0883C124.293 73.79 124.414 73.5083 124.608 73.2789C124.801 73.0495 125.059 72.8827 125.347 72.7996C125.636 72.7166 125.942 72.7211 126.228 72.8125C126.418 72.8721 126.593 72.9686 126.746 73.0964C126.898 73.2242 127.023 73.3808 127.115 73.5571C127.206 73.7335 127.262 73.9262 127.279 74.1241C127.296 74.3221 127.273 74.5214 127.213 74.7107Z" fill="white"/>
<path d="M124.33 83.7747C124.239 84.0603 124.065 84.3126 123.831 84.4996C123.596 84.6866 123.312 84.7999 123.013 84.8252C122.714 84.8504 122.415 84.7866 122.152 84.6416C121.89 84.4966 121.676 84.2771 121.539 84.0108C121.401 83.7445 121.345 83.4433 121.379 83.1454C121.412 82.8474 121.533 82.5661 121.727 82.3369C121.92 82.1078 122.177 81.9411 122.465 81.858C122.753 81.7749 123.059 81.7791 123.345 81.87C123.535 81.9296 123.712 82.0263 123.864 82.1546C124.017 82.2828 124.143 82.44 124.234 82.6171C124.326 82.7942 124.382 82.9877 124.398 83.1863C124.414 83.385 124.391 83.585 124.33 83.7747Z" fill="white"/>
<path d="M121.447 92.8315C121.357 93.1179 121.184 93.3711 120.95 93.5591C120.716 93.7471 120.431 93.8614 120.132 93.8875C119.833 93.9137 119.533 93.8504 119.27 93.7058C119.007 93.5613 118.793 93.3418 118.655 93.0754C118.517 92.809 118.461 92.5075 118.494 92.2092C118.527 91.9109 118.648 91.6292 118.842 91.3997C119.035 91.1703 119.293 91.0035 119.581 90.9205C119.87 90.8375 120.176 90.8419 120.462 90.9333C120.843 91.0568 121.16 91.3252 121.344 91.6804C121.528 92.0357 121.565 92.4492 121.447 92.8315Z" fill="white"/>
</g>
<g opacity="0.4">
<path d="M140.267 58.9094C140.128 59.269 139.856 59.5618 139.508 59.7282C139.16 59.8945 138.761 59.9218 138.394 59.8045C138.026 59.6872 137.717 59.4341 137.529 59.0968C137.342 58.7596 137.29 58.3636 137.384 57.9894C137.435 57.7887 137.526 57.6005 137.652 57.4364C137.778 57.2723 137.937 57.1358 138.118 57.0352C138.299 56.9347 138.498 56.8722 138.704 56.8517C138.91 56.8312 139.118 56.8531 139.315 56.916C139.512 56.9789 139.695 57.0815 139.851 57.2175C140.007 57.3535 140.133 57.5201 140.222 57.7068C140.312 57.8936 140.362 58.0966 140.369 58.3034C140.377 58.5102 140.342 58.7165 140.267 58.9094Z" fill="white"/>
<path d="M137.384 67.9662C137.294 68.2505 137.121 68.5015 136.888 68.6876C136.654 68.8737 136.371 68.9865 136.074 69.0118C135.777 69.0372 135.479 68.9739 135.218 68.8299C134.956 68.6859 134.743 68.4677 134.606 68.2029C134.469 67.9381 134.413 67.6385 134.446 67.342C134.478 67.0455 134.598 66.7653 134.79 66.5369C134.982 66.3084 135.237 66.142 135.524 66.0585C135.81 65.9751 136.115 65.9784 136.399 66.068C136.781 66.19 137.099 66.4582 137.284 66.8139C137.468 67.1696 137.504 67.5839 137.384 67.9662Z" fill="white"/>
<path d="M134.502 77.0303C134.412 77.3166 134.239 77.5699 134.005 77.7579C133.771 77.9458 133.486 78.0601 133.187 78.0863C132.888 78.1124 132.588 78.0492 132.325 77.9046C132.062 77.76 131.848 77.5406 131.709 77.2741C131.571 77.0077 131.515 76.7062 131.549 76.4079C131.582 76.1096 131.703 75.8279 131.896 75.5985C132.09 75.3691 132.347 75.2023 132.636 75.1192C132.924 75.0362 133.231 75.0406 133.517 75.132C133.897 75.2555 134.214 75.5239 134.399 75.8792C134.583 76.2344 134.62 76.6479 134.502 77.0303Z" fill="white"/>
<path d="M131.612 86.0935C131.472 86.4531 131.201 86.7459 130.852 86.9122C130.504 87.0786 130.106 87.1058 129.738 86.9885C129.371 86.8712 129.061 86.6182 128.874 86.2809C128.686 85.9437 128.635 85.5476 128.729 85.1735C128.78 84.9728 128.871 84.7846 128.997 84.6205C129.123 84.4564 129.281 84.3199 129.462 84.2193C129.643 84.1188 129.843 84.0563 130.049 84.0358C130.255 84.0153 130.463 84.0372 130.66 84.1001C130.857 84.163 131.039 84.2656 131.195 84.4016C131.351 84.5376 131.478 84.7041 131.567 84.8909C131.656 85.0777 131.706 85.2807 131.714 85.4875C131.722 85.6943 131.687 85.9005 131.612 86.0935Z" fill="white"/>
<path d="M128.729 95.1503C128.638 95.4345 128.466 95.6856 128.232 95.8717C127.999 96.0578 127.716 96.1706 127.419 96.1959C127.122 96.2213 126.824 96.1579 126.562 96.014C126.301 95.87 126.088 95.6518 125.951 95.387C125.813 95.1222 125.758 94.8226 125.79 94.5261C125.823 94.2295 125.943 93.9494 126.135 93.7209C126.327 93.4925 126.582 93.3261 126.869 93.2426C127.155 93.1592 127.46 93.1625 127.744 93.2521C128.126 93.3741 128.444 93.6423 128.628 93.998C128.813 94.3537 128.849 94.768 128.729 95.1503Z" fill="white"/>
</g>
<path opacity="0.7" d="M121.046 99.1227L101.143 103.23C100.228 103.418 99.275 103.235 98.4941 102.721C97.7132 102.207 97.1679 101.405 96.9777 100.49L91.2506 72.7226C90.8778 70.9333 91.097 69.0713 91.8754 67.4176C92.6537 65.7639 93.9489 64.4083 95.5654 63.5554C96.2683 63.1825 97.021 62.912 97.8005 62.7521L108.082 60.6336C109.167 60.4082 110.285 60.3991 111.374 60.6068C112.462 60.8145 113.499 61.2349 114.425 61.844C115.35 62.453 116.146 63.2388 116.768 64.1561C117.389 65.0734 117.824 66.1044 118.046 67.1899L123.779 94.957C123.874 95.4101 123.879 95.8774 123.792 96.3322C123.706 96.787 123.531 97.2203 123.277 97.6073C123.023 97.9943 122.695 98.3273 122.312 98.5874C121.929 98.8474 121.499 99.0293 121.046 99.1227Z" fill="white"/>
<path d="M118.306 68.4628L91.5049 73.9934L95.7576 94.6015L122.558 89.0709L118.306 68.4628Z" fill="#3638DA"/>
<path opacity="0.4" d="M118.331 68.497L91.4075 74.053L95.6592 94.6561L122.583 89.1001L118.331 68.497Z" fill="white"/>
<path d="M94.634 56.7623L109.227 53.7509C109.463 53.7022 109.706 53.7005 109.943 53.7457C110.179 53.791 110.404 53.8824 110.605 54.0148C110.807 54.1471 110.98 54.3177 111.115 54.517C111.25 54.7162 111.345 54.9401 111.393 55.1759L111.963 57.9359L93.7531 61.6937L93.1783 58.9083C93.133 58.6718 93.1347 58.4287 93.1833 58.1929C93.2319 57.957 93.3265 57.7331 93.4616 57.5338C93.5968 57.3345 93.7699 57.1638 93.9711 57.0315C94.1722 56.8991 94.3975 56.8076 94.634 56.7623Z" fill="#3638DA"/>
<path opacity="0.7" d="M111.217 60.5744C110.178 60.3998 109.114 60.4196 108.082 60.6328L97.8263 62.7512C97.0468 62.9112 96.2941 63.1817 95.5912 63.5546L95.1506 61.4102L110.751 58.1709L111.217 60.5744Z" fill="white"/>
<path opacity="0.3" d="M95.2996 65.0839C95.2911 64.9784 95.2491 64.8783 95.1799 64.7982C95.1107 64.7181 95.0178 64.6621 94.9146 64.6383C94.8114 64.6145 94.7034 64.6241 94.606 64.6658C94.5087 64.7075 94.4272 64.779 94.3732 64.8701C93.6494 66.031 93.3178 67.3937 93.4273 68.7573C93.7772 71.0895 98.7527 96.5179 99.5172 100.411C99.5832 100.732 99.757 101.02 100.01 101.228C100.178 101.362 100.374 101.455 100.584 101.501C100.794 101.547 101.012 101.545 101.221 101.493L101.979 101.306L95.5005 68.0641C95.5005 68.0641 95.3839 66.4703 95.2996 65.0839Z" fill="white"/>
</svg>
