<svg width="24" height="24" viewBox="0 0 24 24" fill="none" xmlns="http://www.w3.org/2000/svg">
<path d="M12 12.64C11.6429 12.6414 11.296 12.7601 11.0129 12.9778C10.7297 13.1954 10.5259 13.5001 10.4328 13.8449C10.3396 14.1897 10.3623 14.5555 10.4973 14.8862C10.6323 15.2168 10.8721 15.494 11.18 15.675V18H12.84V15.675C13.0836 15.531 13.2857 15.3263 13.4268 15.081C13.5678 14.8357 13.643 14.558 13.645 14.275C13.645 14.0595 13.6024 13.8461 13.5196 13.647C13.4368 13.448 13.3155 13.2673 13.1626 13.1154C13.0097 12.9634 12.8283 12.8432 12.6288 12.7616C12.4292 12.68 12.2156 12.6387 12 12.64Z" fill="#718096" stroke="#718096" stroke-linecap="round" stroke-linejoin="round"/>
<path d="M18.145 8.88501H5.85C4.65707 8.88501 3.69 9.85207 3.69 11.045V19.59C3.69 20.7829 4.65707 21.75 5.85 21.75H18.145C19.3379 21.75 20.305 20.7829 20.305 19.59V11.045C20.305 9.85207 19.3379 8.88501 18.145 8.88501Z" stroke="#718096" stroke-linecap="round" stroke-linejoin="round"/>
<path d="M6.67499 8.885V7.58C6.67499 6.1664 7.23654 4.81069 8.23611 3.81112C9.23568 2.81155 10.5914 2.25 12.005 2.25C13.4186 2.25 14.7743 2.81155 15.7739 3.81112C16.7734 4.81069 17.335 6.1664 17.335 7.58V8.885" stroke="#718096" stroke-linecap="round" stroke-linejoin="round"/>
</svg>
