<svg width="20" height="20" viewBox="0 0 20 20" fill="none" xmlns="http://www.w3.org/2000/svg">
<path d="M7.45238 2.5C8.76583 2.5 10.0255 3.02177 10.9542 3.95052C11.883 4.87927 12.4048 6.13893 12.4048 7.45238C12.4048 8.67905 11.9552 9.80667 11.2162 10.6752L11.4219 10.881H12.0238L15.8333 14.6905L14.6905 15.8333L10.881 12.0238V11.4219L10.6752 11.2162C9.80667 11.9552 8.67905 12.4048 7.45238 12.4048C6.13893 12.4048 4.87927 11.883 3.95052 10.9542C3.02177 10.0255 2.5 8.76583 2.5 7.45238C2.5 6.13893 3.02177 4.87927 3.95052 3.95052C4.87927 3.02177 6.13893 2.5 7.45238 2.5ZM7.45238 4.02381C5.54762 4.02381 4.02381 5.54762 4.02381 7.45238C4.02381 9.35714 5.54762 10.881 7.45238 10.881C9.35714 10.881 10.881 9.35714 10.881 7.45238C10.881 5.54762 9.35714 4.02381 7.45238 4.02381Z" fill="#C6CCD5"/>
</svg>
