<svg width="20" height="20" viewBox="0 0 20 20" fill="none" xmlns="http://www.w3.org/2000/svg">
<path d="M1.66669 1.6665H3.11669C4.01669 1.6665 4.72502 2.4415 4.65002 3.33317L3.95835 11.6332C3.84169 12.9915 4.91668 14.1582 6.28335 14.1582H15.1584C16.3584 14.1582 17.4084 13.1748 17.5 11.9832L17.95 5.73317C18.05 4.34984 17 3.22483 15.6084 3.22483H4.85003" stroke="#C6CCD5" stroke-width="1.5" stroke-miterlimit="10" stroke-linecap="round" stroke-linejoin="round"/>
<path d="M13.5417 18.3333C14.117 18.3333 14.5833 17.867 14.5833 17.2917C14.5833 16.7164 14.117 16.25 13.5417 16.25C12.9664 16.25 12.5 16.7164 12.5 17.2917C12.5 17.867 12.9664 18.3333 13.5417 18.3333Z" stroke="#C6CCD5" stroke-width="1.5" stroke-miterlimit="10" stroke-linecap="round" stroke-linejoin="round"/>
<path d="M6.87498 18.3333C7.45028 18.3333 7.91665 17.867 7.91665 17.2917C7.91665 16.7164 7.45028 16.25 6.87498 16.25C6.29968 16.25 5.83331 16.7164 5.83331 17.2917C5.83331 17.867 6.29968 18.3333 6.87498 18.3333Z" stroke="#C6CCD5" stroke-width="1.5" stroke-miterlimit="10" stroke-linecap="round" stroke-linejoin="round"/>
<path d="M7.5 6.6665H17.5" stroke="#C6CCD5" stroke-width="1.5" stroke-miterlimit="10" stroke-linecap="round" stroke-linejoin="round"/>
</svg>
