<svg width="26" height="27" viewBox="0 0 26 27" fill="none" xmlns="http://www.w3.org/2000/svg">
<path d="M1.66663 8.66663H3.11663C4.01663 8.66663 4.72496 9.44163 4.64996 10.3333L3.95829 18.6333C3.84163 19.9916 4.91662 21.1583 6.28329 21.1583H15.1583C16.3583 21.1583 17.4083 20.175 17.5 18.9833L17.95 12.7333C18.05 11.35 17 10.225 15.6083 10.225H4.84997" stroke="#C6CCD5" stroke-width="1.5" stroke-miterlimit="10" stroke-linecap="round" stroke-linejoin="round"/>
<path d="M13.5417 25.3333C14.117 25.3333 14.5833 24.867 14.5833 24.2917C14.5833 23.7164 14.117 23.25 13.5417 23.25C12.9664 23.25 12.5 23.7164 12.5 24.2917C12.5 24.867 12.9664 25.3333 13.5417 25.3333Z" stroke="#C6CCD5" stroke-width="1.5" stroke-miterlimit="10" stroke-linecap="round" stroke-linejoin="round"/>
<path d="M6.87504 25.3333C7.45034 25.3333 7.91671 24.867 7.91671 24.2917C7.91671 23.7164 7.45034 23.25 6.87504 23.25C6.29974 23.25 5.83337 23.7164 5.83337 24.2917C5.83337 24.867 6.29974 25.3333 6.87504 25.3333Z" stroke="#C6CCD5" stroke-width="1.5" stroke-miterlimit="10" stroke-linecap="round" stroke-linejoin="round"/>
<path d="M7.5 13.6666H17.5" stroke="#C6CCD5" stroke-width="1.5" stroke-miterlimit="10" stroke-linecap="round" stroke-linejoin="round"/>
<circle cx="17" cy="7" r="7" fill="#20B83A"/>
<path d="M14.5817 10V9.14347L16.854 6.91584C17.0714 6.69638 17.2525 6.50142 17.3974 6.33097C17.5423 6.16051 17.6509 5.99538 17.7234 5.83558C17.7958 5.67578 17.832 5.50533 17.832 5.32422C17.832 5.11754 17.7852 4.9407 17.6914 4.79368C17.5977 4.64453 17.4688 4.52947 17.3047 4.44851C17.1406 4.36754 16.9542 4.32706 16.7454 4.32706C16.5302 4.32706 16.3416 4.3718 16.1797 4.46129C16.0178 4.54865 15.892 4.6733 15.8026 4.83523C15.7152 4.99716 15.6715 5.18999 15.6715 5.41371H14.5433C14.5433 4.99822 14.6381 4.63707 14.8278 4.33026C15.0174 4.02344 15.2784 3.78587 15.6108 3.61754C15.9453 3.44922 16.3288 3.36506 16.7614 3.36506C17.2003 3.36506 17.5859 3.44709 17.9183 3.61115C18.2507 3.77521 18.5085 4 18.6918 4.28551C18.8771 4.57102 18.9698 4.89702 18.9698 5.26349C18.9698 5.50852 18.9229 5.74929 18.8292 5.9858C18.7354 6.2223 18.5703 6.48437 18.3338 6.77202C18.0994 7.05966 17.7702 7.40803 17.3462 7.81712L16.218 8.96449V9.00923H19.0689V10H14.5817Z" fill="#C6CCD5"/>
</svg>
