<svg width="283" height="195" viewBox="0 0 283 195" fill="none" xmlns="http://www.w3.org/2000/svg">
<mask id="mask0_698_3722" style="mask-type:luminance" maskUnits="userSpaceOnUse" x="81" y="0" width="120" height="120">
<path d="M81.1877 0H200.964V120H81.1877V0Z" fill="white"/>
</mask>
<g mask="url(#mask0_698_3722)">
<path d="M182.854 20.047C182.854 20.047 188.328 24.2553 196.167 24.8855C197.052 24.9532 197.495 25.9636 196.927 26.6563C194.427 29.6928 187.818 35.3542 175.709 30.8959C175.709 30.8959 179.755 36.0834 184.406 38.4845C185.162 38.8959 185.162 39.974 184.406 40.3855C180.391 42.5313 170.745 46.2657 164.354 37.2865C164.354 37.2865 157.209 48.099 145.412 38.7709V116.469C145.412 118.052 144.495 119.412 143.167 120.073C142.599 120.359 141.964 120.484 141.271 120.484C139.089 120.422 137.38 118.557 137.38 116.344V38.7397H136.938C125.11 48.099 117.995 37.2501 117.995 37.2501C111.61 46.2032 101.995 42.4688 97.9481 40.349C97.1877 39.9428 97.1877 38.8334 97.9481 38.4532C102.625 36.0522 106.641 30.8647 106.641 30.8647C94.5627 35.323 87.9533 29.6615 85.4533 26.6563C84.8856 25.9949 85.3283 24.9845 86.2137 24.8855C94.0575 24.2553 99.5262 20.047 99.5262 20.047C85.9273 21.1876 82.2294 13.1251 81.2502 9.4532C81.0262 8.66674 81.7241 7.93758 82.5158 8.12508C87.7971 9.2657 94.2762 9.17195 101.141 8.44279C104.495 8.09383 107.906 7.58862 111.354 6.98966C126.849 4.27091 127.865 26.6928 136.969 26.6928H137.412V19.1615C133.584 17.4897 131.026 13.4428 131.531 8.85424C132.068 4.27091 135.797 0.599036 140.386 0.156326C141.839 7.70763e-05 143.261 0.187576 144.557 0.599035C148.511 1.92716 151.391 5.66153 151.391 10.0574C151.391 14.1355 148.953 17.6147 145.443 19.1615V26.6928C154.552 26.6928 155.531 4.30216 171.057 6.98966C181.557 8.82299 192.057 9.80216 199.901 8.12508C200.693 7.96883 201.386 8.69799 201.167 9.4532C200.151 13.0938 196.453 21.1876 182.854 20.047Z" fill="#1E4EDD"/>
</g>
<path d="M174.297 50.0937C174.297 31.8749 159.594 30.1041 154.089 33.0781C153.11 33.6145 152.443 34.2812 152.193 35.0364C150.516 40.0677 153.016 47.8802 162.25 48.9843C162.25 48.9843 168.193 57.3958 140.427 62.4895C112.662 57.427 118.61 48.9843 118.61 48.9843C127.813 47.8802 130.339 40.0677 128.667 35.0364C128.537 34.6302 128.287 34.2499 127.906 33.901C123.828 29.9479 106.563 30.3281 106.563 50.0937C106.563 59.4218 113.516 64.3854 122.276 67.5781C113.485 71.9739 111.589 78.1093 113.266 84.401C114.245 88.1041 119.084 93.1614 129.266 96.927C126.927 98.5052 125.281 100.406 124.776 102.838C123.729 107.771 126.167 111.281 128.224 113.245C128.761 113.75 129.615 113.245 129.422 112.516C129.422 112.484 129.391 112.453 129.391 112.391C128.318 108.026 131.573 103.505 140.459 100.307C149.474 103.536 152.698 108.12 151.495 112.516C151.308 113.213 152.193 113.719 152.698 113.213C154.755 111.25 157.188 107.74 156.146 102.807C155.641 100.406 153.964 98.5052 151.656 96.8958C161.839 93.1614 166.677 88.0729 167.656 84.3697C169.334 78.0468 167.433 71.9427 158.646 67.5468C167.37 64.4166 174.297 59.4531 174.297 50.0937ZM157.917 81.0833C157.917 86.6458 149.031 89.0833 140.396 91.9895C131.797 89.0833 122.875 86.6458 122.875 81.0833C122.875 76.2135 130.781 74.2812 140.396 72.2291C150.011 74.2812 157.917 76.1822 157.917 81.0833Z" fill="#30D1FF"/>
<path d="M151.594 96.927C149.631 97.651 147.448 98.3176 145.078 98.9166C143.37 99.3593 141.818 99.8333 140.396 100.338C138.974 99.8333 137.422 99.3593 135.719 98.9166C133.344 98.3176 131.162 97.651 129.203 96.927C132.177 94.901 136.256 93.3853 140.396 91.9583C144.542 93.3853 148.62 94.901 151.594 96.927ZM142.485 62.8333C141.756 62.7083 141.094 62.5833 140.427 62.4895C139.766 62.6145 139.068 62.7395 138.375 62.8333C131.448 63.9739 126.198 65.6197 122.276 67.578C128.032 69.6666 134.547 70.9635 140.427 72.2291C146.313 70.9635 152.854 69.6666 158.578 67.578C154.693 65.6197 149.412 64.0051 142.485 62.8333Z" fill="#30A8FF"/>
<path d="M118.042 39.8749C117.282 39.8749 116.584 39.4009 116.302 38.7082C116.016 37.9791 116.235 37.1561 116.839 36.6509C117.438 36.1145 118.355 36.0832 119.021 36.4947C119.651 36.9061 120 37.6614 119.844 38.4218C119.683 39.2447 118.927 39.8749 118.042 39.8749ZM164.146 38.4218C164.302 37.6614 163.99 36.8749 163.323 36.4634C162.662 36.052 161.776 36.0832 161.172 36.5884C160.573 37.0624 160.349 37.9166 160.605 38.6457C160.86 39.3697 161.584 39.8749 162.344 39.8749C163.198 39.8749 163.959 39.2447 164.146 38.4218Z" fill="white"/>
<path d="M13.1875 142.135C15.0729 142.135 16.5885 142.5 17.7292 143.219C18.8802 143.943 19.7188 144.906 20.25 146.115C20.7917 147.323 21.0625 148.651 21.0625 150.094C21.0625 151.609 20.7917 152.99 20.25 154.24C19.7188 155.49 18.8802 156.484 17.7292 157.219C16.5885 157.943 15.0729 158.302 13.1875 158.302H5.70833V166.969H0V142.135H13.1875ZM11.375 153.906C12.776 153.906 13.7552 153.547 14.3125 152.823C14.8646 152.104 15.1458 151.208 15.1458 150.135C15.1458 149.094 14.875 148.24 14.3333 147.573C13.7917 146.896 12.8177 146.552 11.4167 146.552H5.70833V153.906H11.375Z" fill="#1E4EDD"/>
<path d="M43.7857 142.135H49.4524V166.969H43.7857V156.51H32.4107V166.969H26.7649V142.135H32.4107V152.073H43.7857V142.135Z" fill="#1E4EDD"/>
<path d="M75.5549 166.969L73.7632 161.885H62.6382L60.8465 166.969H55.1382L63.8674 142.135H72.534L81.2632 166.969H75.5549ZM64.159 157.531H72.2215L68.2007 146.052L64.159 157.531Z" fill="#1E4EDD"/>
<path d="M107.585 160.927V162.594C107.585 163.625 107.631 164.464 107.73 165.115C107.824 165.755 107.939 166.375 108.064 166.969H102.397C102.241 166.526 102.126 165.958 102.043 165.26C101.96 164.552 101.918 163.693 101.918 162.677V161.365C101.918 159.979 101.532 158.964 100.772 158.323C100.006 157.688 99.0064 157.365 97.7721 157.365H92.6471V166.969H86.9387V142.135H100.043C102.777 142.135 104.824 142.771 106.189 144.031C107.564 145.281 108.251 146.917 108.251 148.927C108.251 150.677 107.751 152.125 106.751 153.26C105.762 154.385 104.532 155.109 103.064 155.427C103.907 155.635 104.673 155.948 105.355 156.365C106.048 156.771 106.59 157.333 106.98 158.052C107.381 158.776 107.585 159.734 107.585 160.927ZM98.7721 153.302C100.064 153.302 100.97 153 101.501 152.385C102.043 151.776 102.314 150.901 102.314 149.76C102.314 148.719 102.032 147.927 101.48 147.385C100.923 146.833 100.022 146.552 98.7721 146.552H92.6471V153.302H98.7721Z" fill="#1E4EDD"/>
<path d="M145.541 142.135V166.969H139.875V145.885L133.333 166.969H126.77L120.208 145.76V166.969H114.562V142.135H124.312L130.125 161.365L135.958 142.135H145.541Z" fill="#1E4EDD"/>
<path d="M171.639 166.969L169.847 161.885H158.722L156.931 166.969H151.222L159.951 142.135H168.618L177.347 166.969H171.639ZM160.243 157.531H168.306L164.285 146.052L160.243 157.531Z" fill="#1E4EDD"/>
<path d="M201.606 142.135H207.064V166.969H197.648L189.898 150.01C189.616 149.375 189.361 148.734 189.127 148.094C188.887 147.458 188.674 146.833 188.481 146.219V166.969H183.023V142.135H192.439L200.273 159.344C200.491 159.875 200.721 160.443 200.96 161.052C201.195 161.667 201.408 162.292 201.606 162.927V142.135Z" fill="#1E4EDD"/>
<path d="M226.444 167.594C224.053 167.594 222.017 167.24 220.34 166.531C218.673 165.823 217.324 164.865 216.298 163.656C215.267 162.448 214.517 161.068 214.048 159.51C213.574 157.943 213.34 156.297 213.34 154.573C213.34 152.88 213.574 151.255 214.048 149.698C214.517 148.146 215.267 146.755 216.298 145.531C217.324 144.297 218.673 143.318 220.34 142.594C222.017 141.875 224.053 141.51 226.444 141.51C228.829 141.51 230.85 141.875 232.506 142.594C234.157 143.318 235.496 144.297 236.527 145.531C237.569 146.755 238.324 148.146 238.798 149.698C239.267 151.255 239.506 152.88 239.506 154.573C239.506 156.297 239.267 157.938 238.798 159.49C238.324 161.047 237.569 162.438 236.527 163.656C235.496 164.865 234.157 165.823 232.506 166.531C230.85 167.24 228.829 167.594 226.444 167.594ZM219.277 154.573C219.277 156.365 219.491 157.885 219.923 159.135C220.35 160.375 221.09 161.318 222.131 161.969C223.183 162.609 224.621 162.927 226.444 162.927C228.246 162.927 229.673 162.609 230.715 161.969C231.767 161.318 232.511 160.375 232.944 159.135C233.386 157.885 233.61 156.365 233.61 154.573C233.61 152.729 233.386 151.188 232.944 149.948C232.511 148.698 231.767 147.755 230.715 147.115C229.673 146.464 228.246 146.135 226.444 146.135C224.621 146.135 223.183 146.464 222.131 147.115C221.09 147.755 220.35 148.698 219.923 149.948C219.491 151.188 219.277 152.729 219.277 154.573Z" fill="#1E4EDD"/>
<path d="M276.689 142.135H282.293L277.626 166.969H267.98L263.73 146.552L259.48 166.969H249.835L245.21 142.135H250.772L254.814 163.656L259.48 142.135H268.022L272.689 163.656L276.689 142.135Z" fill="#1E4EDD"/>
<path d="M39.3533 184.797V188.214H44.9783V189.984H39.3533V194.026H37.0408V183.026H45.1658V184.797H39.3533Z" fill="#30D1FF"/>
<path d="M49.3743 194.026V183.026H51.6868V194.026H49.3743Z" fill="#30D1FF"/>
<path d="M63.0877 194.026L58.2961 185.547C58.3898 186.37 58.4419 187.026 58.4419 187.526V194.026H56.3794V183.026H59.0252L63.8794 191.568C63.7961 190.776 63.7544 190.063 63.7544 189.422V183.026H65.7961V194.026H63.0877Z" fill="#30D1FF"/>
<path d="M80.3066 188.443C80.3066 189.583 80.0827 190.578 79.64 191.422C79.1921 192.255 78.5618 192.901 77.7441 193.359C76.9368 193.807 76.0046 194.026 74.9525 194.026H70.4941V183.026H74.4941C76.3379 183.026 77.7702 183.495 78.7858 184.422C79.7962 185.354 80.3066 186.693 80.3066 188.443ZM77.9941 188.443C77.9941 187.266 77.6868 186.359 77.0775 185.734C76.4629 185.109 75.5827 184.797 74.4316 184.797H72.8066V192.234H74.765C75.7493 192.234 76.5358 191.896 77.1191 191.214C77.7025 190.537 77.9941 189.609 77.9941 188.443Z" fill="#30D1FF"/>
<path d="M100.76 194.026V187.359C100.76 187.208 100.76 187.057 100.76 186.901C100.771 186.75 100.802 186.104 100.843 184.964C100.468 186.354 100.198 187.328 100.031 187.88L98.0309 194.026H96.4059L94.4059 187.88L93.5726 184.964C93.6403 186.172 93.6768 186.974 93.6768 187.359V194.026H91.6143V183.026H94.7184L96.6768 189.172L96.8434 189.776L97.2184 191.234L97.7184 189.484L99.7393 183.026H102.802V194.026H100.76Z" fill="#30D1FF"/>
<path d="M107.502 194.026V183.026H116.169V184.797H109.815V187.568H115.69V189.339H109.815V192.234H116.481V194.026H107.502Z" fill="#30D1FF"/>
<path d="M130.547 188.443C130.547 189.583 130.323 190.578 129.88 191.422C129.432 192.255 128.802 192.901 127.984 193.359C127.177 193.807 126.245 194.026 125.192 194.026H120.734V183.026H124.734C126.578 183.026 128.01 183.495 129.026 184.422C130.036 185.354 130.547 186.693 130.547 188.443ZM128.234 188.443C128.234 187.266 127.927 186.359 127.317 185.734C126.703 185.109 125.823 184.797 124.672 184.797H123.047V192.234H125.005C125.989 192.234 126.776 191.896 127.359 191.214C127.942 190.537 128.234 189.609 128.234 188.443Z" fill="#30D1FF"/>
<path d="M134.849 194.026V183.026H137.161V194.026H134.849Z" fill="#30D1FF"/>
<path d="M147 192.36C148.385 192.36 149.354 191.667 149.896 190.276L151.917 191.026C151.484 192.099 150.844 192.896 150 193.422C149.167 193.938 148.167 194.193 147 194.193C145.234 194.193 143.865 193.693 142.896 192.693C141.937 191.683 141.458 190.271 141.458 188.464C141.458 186.662 141.922 185.276 142.854 184.318C143.781 183.349 145.13 182.86 146.896 182.86C148.187 182.86 149.234 183.12 150.042 183.63C150.859 184.146 151.437 184.912 151.771 185.922L149.729 186.464C149.562 185.922 149.229 185.495 148.729 185.172C148.229 184.839 147.635 184.672 146.958 184.672C145.917 184.672 145.125 185 144.583 185.651C144.042 186.292 143.771 187.229 143.771 188.464C143.771 189.729 144.047 190.693 144.604 191.36C145.156 192.026 145.958 192.36 147 192.36Z" fill="#30D1FF"/>
<path d="M155.969 194.026V183.026H158.281V194.026H155.969Z" fill="#30D1FF"/>
<path d="M169.682 194.026L164.891 185.547C164.985 186.37 165.037 187.026 165.037 187.526V194.026H162.974V183.026H165.62L170.474 191.568C170.391 190.776 170.349 190.063 170.349 189.422V183.026H172.391V194.026H169.682Z" fill="#30D1FF"/>
<path d="M177.089 194.026V183.026H185.756V184.797H179.401V187.568H185.276V189.339H179.401V192.234H186.068V194.026H177.089Z" fill="#30D1FF"/>
<path d="M199.638 184.797V188.214H205.263V189.984H199.638V194.026H197.326V183.026H205.451V184.797H199.638Z" fill="#30D1FF"/>
<path d="M217.451 194.026L216.472 191.214H212.284L211.305 194.026H208.993L213.014 183.026H215.722L219.722 194.026H217.451ZM214.368 184.714L214.326 184.88C214.269 185.078 214.206 185.292 214.139 185.526C214.066 185.766 213.618 187.083 212.784 189.484H215.951L214.868 186.318L214.534 185.255L214.368 184.714Z" fill="#30D1FF"/>
<path d="M232.753 190.86C232.753 191.933 232.347 192.755 231.545 193.339C230.753 193.912 229.587 194.193 228.045 194.193C226.628 194.193 225.514 193.943 224.712 193.443C223.92 192.933 223.404 192.167 223.17 191.151L225.399 190.797C225.55 191.38 225.842 191.808 226.274 192.068C226.717 192.334 227.326 192.464 228.107 192.464C229.717 192.464 230.524 191.974 230.524 190.985C230.524 190.683 230.425 190.422 230.232 190.214C230.05 190.005 229.795 189.839 229.462 189.714C229.128 189.578 228.482 189.412 227.524 189.214C226.701 189.021 226.128 188.87 225.795 188.755C225.472 188.63 225.18 188.495 224.92 188.339C224.67 188.172 224.451 187.979 224.274 187.755C224.092 187.537 223.946 187.276 223.837 186.985C223.738 186.683 223.691 186.328 223.691 185.922C223.691 184.938 224.066 184.183 224.816 183.651C225.566 183.125 226.649 182.86 228.066 182.86C229.441 182.86 230.467 183.078 231.149 183.505C231.826 183.922 232.264 184.625 232.462 185.61L230.232 185.922C230.118 185.453 229.883 185.099 229.524 184.86C229.175 184.61 228.675 184.485 228.024 184.485C226.633 184.485 225.941 184.922 225.941 185.797C225.941 186.089 226.008 186.328 226.149 186.505C226.3 186.688 226.524 186.839 226.816 186.964C227.107 187.089 227.696 187.25 228.587 187.443C229.639 187.667 230.399 187.875 230.857 188.068C231.316 188.266 231.675 188.485 231.941 188.735C232.201 188.985 232.404 189.292 232.545 189.651C232.68 190 232.753 190.401 232.753 190.86Z" fill="#30D1FF"/>
<path d="M241.985 184.797V194.026H239.673V184.797H236.131V183.026H245.548V184.797H241.985Z" fill="#30D1FF"/>
</svg>
